{
.appVersion = "1225";
DisplayStrings = (
"/dotbelowcomb/mdotbelow.sc",
"/commaaccentcomb/tcommaaccent.sc",
"/dieresiscomb/odieresismacron",
"/dotaccentcomb/odotaccentmacron",
f,
"/macroncomb.case/macroncomb.case/macroncomb.case/Umacrondieresis",
"/hookabovecomb.case/Ahookabove",
"/hookabovecomb/uhornhookabove",
"/commercialMinusSign",
"/six.sc"
);
classes = (
{
automatic = 1;
code = "zero one two three four five six seven eight nine";
name = figures;
},
{
automatic = 1;
code = "zero.numr one.numr two.numr three.numr four.numr five.numr six.numr seven.numr eight.numr nine.numr";
name = numerators;
},
{
automatic = 1;
code = "zero.dnom one.dnom two.dnom three.dnom four.dnom five.dnom six.dnom seven.dnom eight.dnom nine.dnom";
name = denominators;
},
{
automatic = 1;

glyphs = (
{
color = 4;
glyphname = A;
lastChange = "2019-04-01 03:22:24 +0000";
layers = (
{
anchors = (
{
name = bottom;
position = "{340, 0}";
},
{
name = btm;
position = "{330, -83}";
},
{
name = ogonek;
position = "{612, 10}";
},
{
name = top;
position = "{341, 830}";
}
);
layerId = "8BC678DE-46B6-4C98-A96E-C0ED61786D32";
paths = (
{
closed = 1;
nodes = (
"324 605 LINE",
"344 664 LINE",
"364 605 LINE",
"577 0 LINE",
"665 0 LINE",
"384 751 LINE",
"303 751 LINE",
"16 0 LINE",
"103 0 LINE"
);
},
{
closed = 1;
nodes = (
"528 204 LINE",
"512 266 LINE",
"160 266 LINE",
"145 204 LINE"
);
}
);
width = 680;
},
{
anchors = (
{
name = bottom;
position = "{357, 0}";
},
{
name = btm;
position = "{338, -83}";
},
{
name = ogonek;
position = "{642, 10}";
},
{
name = top;
position = "{357, 830}";
}
);
layerId = "23A20576-2241-481A-AD5B-28E85381F753";
paths = (
{
closed = 1;
nodes = (
"327 501 LINE",
"352 598 LINE",
"376 501 LINE",
"525 0 LINE",
"722 0 LINE",
"461 748 LINE",
"250 748 LINE",
"-9 0 LINE",
"186 0 LINE"
);
},
{
closed = 1;
nodes = (
"535 139 LINE",
"515 269 LINE",
"174 269 LINE",
"153 139 LINE"
);
}
);
width = 713;
},
{
anchors = (
{
name = bottom;
position = "{344.533, 0}";
},
{
name = btm;
position = "{332, -83}";
},
{
name = ogonek;
position = "{619.244, 10}";
},
{
name = top;
position = "{343.711, 830}";
}
);
layerId = "247DB4A4-D150-4133-9396-DC38172DD635";
paths = (
{
closed = 1;
nodes = (
"325.467 558.533 LINE",
"347.467 629.778 LINE",
"368.467 558.533 LINE",
"554.2 0 LINE",
"681.267 0 LINE",
"403.444 751 LINE",
"289.2 751 LINE",
"6.978 0 LINE",
"131.222 0 LINE"
);
},
{
closed = 1;
nodes = (
"528.822 182.489 LINE",
"508 269 LINE",
"167 269 LINE",
"146.822 182.489 LINE"
);
}
);
width = 688.24444;
}
);
leftKerningGroup = A;
rightKerningGroup = A;
unicode = 0041;
},
{
glyphname = Aogonek;
lastChange = "2019-02-18 20:30:01 +0000";
layers = (
{
components = (
{
name = A;
}
);
layerId = "8BC678DE-46B6-4C98-A96E-C0ED61786D32";
paths = (
{
closed = 1;
nodes = (
"441 -219 OFFCURVE",
"493 -250 OFFCURVE",
"558 -250 CURVE SMOOTH",
"599 -250 OFFCURVE",
"646 -240 OFFCURVE",
"672 -220 CURVE",
"672 -175 LINE",
"646 -188 OFFCURVE",
"619 -194 OFFCURVE",
"594 -195 CURVE SMOOTH",
"553 -195 OFFCURVE",
"521 -182 OFFCURVE",
"521 -137 CURVE",
"520 -77 OFFCURVE",
"604 -22 OFFCURVE",
"654 4 CURVE",
"642 11 LINE",
"587 3 LINE",
"529 -25 OFFCURVE",
"439 -82 OFFCURVE",
"440 -152 CURVE"
);
}
);
width = 680;
},
{
components = (
{
name = A;
}
);
layerId = "23A20576-2241-481A-AD5B-28E85381F753";
paths = (
{
closed = 1;
nodes = (
"459 -214 OFFCURVE",
"523 -252 OFFCURVE",
"594 -252 CURVE SMOOTH",
"649 -252 OFFCURVE",
"688 -240 OFFCURVE",
"720 -219 CURVE",
"720 -136 LINE",
"702 -142 OFFCURVE",
"684 -146 OFFCURVE",
"667 -146 CURVE SMOOTH",
"632 -146 OFFCURVE",
"608 -135 OFFCURVE",
"606 -103 CURVE",
"603 -57 OFFCURVE",
"647 -22 OFFCURVE",
"697 4 CURVE",
"651 29 LINE",
"573 0 LINE",
"516 -28 OFFCURVE",
"455 -79 OFFCURVE",
"457 -150 CURVE"
);
}
);
width = 713;
},
{
components = (
{
alignment = -1;
name = A;
}
);
layerId = "247DB4A4-D150-4133-9396-DC38172DD635";
paths = (
{
closed = 1;
nodes = (
"449.022 -214.356 OFFCURVE",
"502.156 -250.356 OFFCURVE",
"568.911 -250.356 CURVE SMOOTH",
"609.911 -250.356 OFFCURVE",
"656.2 -241.644 OFFCURVE",
"684.378 -220.644 CURVE",
"684.378 -160.089 LINE",
"662.556 -167.733 OFFCURVE",
"639.089 -173.378 OFFCURVE",
"617.622 -173.378 CURVE SMOOTH",
"583.8 -173.378 OFFCURVE",
"556.333 -163.2 OFFCURVE",
"555.333 -122.978 CURVE",
"553.8 -75.622 OFFCURVE",
"609.022 -27.178 OFFCURVE",
"669.6 5.178 CURVE",
"648.022 16.133 LINE",
"577.511 1.644 LINE",
"519.111 -27.178 OFFCURVE",
"446.133 -82.644 OFFCURVE",
"447.667 -148.244 CURVE"
);
}
);
width = 688.24444;
}
);
leftKerningGroup = A;
rightKerningGroup = A;
unicode = 0104;
},
{
color = 4;
glyphname = AE;
lastChange = "2019-04-01 04:49:04 +0000";
layers = (
{
anchors = (
{
name = bottom;
position = "{452, 0}";
},
{
name = btm;
position = "{676, -83}";
},
{
name = top;
position = "{498, 830}";
}
);
layerId = "8BC678DE-46B6-4C98-A96E-C0ED61786D32";
paths = (
{
closed = 1;
nodes = (
"65 0 LINE",
"401 702 LINE",
"330 743 LINE",
"-27 0 LINE"
);
},
{
closed = 1;
nodes = (
"330 743 LINE",
"341 688 LINE",
"442 688 LINE",
"410 743 LINE"
);
},
{
closed = 1;
nodes = (
"474 204 LINE",
"459 266 LINE",
"132 266 LINE",
"116 204 LINE"
);
},
{
closed = 1;
nodes = (
"871 0 LINE",
"871 65 LINE",
"492 65 LINE",
"492 351 LINE",
"749 351 LINE",
"749 415 LINE",
"492 415 LINE",
"492 679 LINE",
"835 679 LINE",
"835 743 LINE",
"410 743 LINE",
"410 0 LINE"
);
}
);
width = 903;
},
{
anchors = (
{
name = bottom;
position = "{481, 0}";
},
{
name = btm;
position = "{689, -83}";
},
{
name = top;
position = "{516, 830}";
}
);
layerId = "23A20576-2241-481A-AD5B-28E85381F753";
paths = (
{
closed = 1;
nodes = (
"142 0 LINE",
"437 683 LINE",
"294 743 LINE",
"-58 0 LINE"
);
},
{
closed = 1;
nodes = (
"294 743 LINE",
"318 672 LINE",
"448 672 LINE",
"423 743 LINE"
);
},
{
closed = 1;
nodes = (
"509 155 LINE",
"501 283 LINE",
"163 283 LINE",
"140 155 LINE"
);
},
{
closed = 1;
nodes = (
"919 0 LINE",
"919 142 LINE",
"607 142 LINE",
"607 313 LINE",
"824 313 LINE",
"824 449 LINE",
"607 449 LINE",
"607 604 LINE",
"890 604 LINE",
"890 743 LINE",
"423 743 LINE",
"423 0 LINE"
);
}
);
width = 962;
},
{
anchors = (
{
name = bottom;
position = "{457.556, 0}";
},
{
name = btm;
position = "{676.956, -83}";
},
{
name = top;
position = "{500.311, 830}";
}
);
layerId = "247DB4A4-D150-4133-9396-DC38172DD635";
paths = (
{
closed = 1;
nodes = (
"89.333 0 LINE",
"416.978 689 LINE",
"318.356 743 LINE",
"-39.2 0 LINE"
);
},
{
closed = 1;
nodes = (
"318.356 743 LINE",
"333.356 672 LINE",
"450.467 672 LINE",
"410.956 743 LINE"
);
},
{
closed = 1;
nodes = (
"493.222 187.289 LINE",
"475.956 273.089 LINE",
"135.844 273.089 LINE",
"114.956 187.289 LINE"
);
},
{
closed = 1;
nodes = (
"877.867 0 LINE",
"877.867 91.756 LINE",
"528.133 91.756 LINE",
"528.133 337.978 LINE",
"760.422 337.978 LINE",
"760.422 427.844 LINE",
"528.133 427.844 LINE",
"528.133 652.778 LINE",
"842.578 652.778 LINE",
"842.578 743 LINE",
"410.956 743 LINE",
"410.956 0 LINE"
);
}
);
width = 914.93333;
}
);
leftKerningGroup = A;
rightKerningGroup = E;
unicode = 00C6;
},
{
color = 4;
glyphname = B;
lastChange = "2019-03-29 19:27:19 +0000";
layers = (
{
anchors = (
{
name = bottom;
position = "{330, 0}";
},
{
name = btm;
position = "{348, -83}";
},
{
name = top;
position = "{316, 830}";
}
);
layerId = "8BC678DE-46B6-4C98-A96E-C0ED61786D32";
paths = (
{
closed = 1;
nodes = (
"144 0 LINE",
"193 -2 OFFCURVE",
"259 -7 OFFCURVE",
"313 -7 CURVE SMOOTH",
"531 -7 OFFCURVE",
"606 80 OFFCURVE",
"606 221 CURVE SMOOTH",
"606 318 OFFCURVE",
"526 393 OFFCURVE",
"436 397 CURVE",
"523 419 OFFCURVE",
"555 505 OFFCURVE",
"555 576 CURVE SMOOTH",
"555 685 OFFCURVE",
"475 750 OFFCURVE",
"312 750 CURVE SMOOTH",
"244 750 OFFCURVE",
"208 743 OFFCURVE",
"146 743 CURVE",
"101 744 LINE",
"101 0 LINE"
);
},
{
closed = 1;
nodes = (
"183 685 LINE",
"209 689 OFFCURVE",
"269 691 OFFCURVE",
"296 691 CURVE SMOOTH",
"402 691 OFFCURVE",
"475 657 OFFCURVE",
"475 564 CURVE SMOOTH",
"475 475 OFFCURVE",
"429 418 OFFCURVE",
"352 412 CURVE SMOOTH",
"315 412 OFFCURVE",
"214 410 OFFCURVE",
"183 414 CURVE"
);
},
{
closed = 1;
nodes = (
"183 351 LINE",
"208 354 OFFCURVE",
"306 353 OFFCURVE",
"343 353 CURVE SMOOTH",
"455 351 OFFCURVE",
"522 310 OFFCURVE",
"522 211 CURVE SMOOTH",
"522 94 OFFCURVE",
"450 54 OFFCURVE",
"322 54 CURVE SMOOTH",
"277 54 OFFCURVE",
"224 56 OFFCURVE",
"183 63 CURVE"
);
}
);
width = 659;
},
{
anchors = (
{
name = bottom;
position = "{357, 0}";
},
{
name = btm;
position = "{414, -83}";
},
{
name = top;
position = "{354, 831}";
}
);
layerId = "23A20576-2241-481A-AD5B-28E85381F753";
paths = (
{
closed = 1;
nodes = (
"178 0 LINE",
"219 -2 OFFCURVE",
"300 -7 OFFCURVE",
"369 -7 CURVE SMOOTH",
"607 -7 OFFCURVE",
"677 89 OFFCURVE",
"677 225 CURVE SMOOTH",
"677 319 OFFCURVE",
"612 382 OFFCURVE",
"526 393 CURVE",
"601 414 OFFCURVE",
"638 480 OFFCURVE",
"638 559 CURVE SMOOTH",
"638 677 OFFCURVE",
"559 750 OFFCURVE",
"352 750 CURVE SMOOTH",
"276 750 OFFCURVE",
"226 743 OFFCURVE",
"175 743 CURVE",
"84 744 LINE",
"84 0 LINE"
);
},
{
closed = 1;
nodes = (
"269 619 LINE",
"278 624 OFFCURVE",
"319 625 OFFCURVE",
"333 625 CURVE SMOOTH",
"415 625 OFFCURVE",
"460 604 OFFCURVE",
"460 542 CURVE SMOOTH",
"460 464 OFFCURVE",
"420 437 OFFCURVE",
"341 437 CURVE SMOOTH",
"324 437 OFFCURVE",
"285 438 OFFCURVE",
"269 441 CURVE"
);
},
{
closed = 1;
nodes = (
"269 318 LINE",
"281 321 OFFCURVE",
"330 322 OFFCURVE",
"354 322 CURVE SMOOTH",
"448 322 OFFCURVE",
"487 288 OFFCURVE",
"487 224 CURVE SMOOTH",
"487 146 OFFCURVE",
"445 115 OFFCURVE",
"360 115 CURVE SMOOTH",
"330 115 OFFCURVE",
"282 118 OFFCURVE",
"269 126 CURVE"
);
}
);
width = 714;
},
{
anchors = (
{
name = bottom;
position = "{330.556, 0}";
},
{
name = btm;
position = "{355, -83}";
},
{
name = top;
position = "{326.089, 830.178}";
}
);
layerId = "247DB4A4-D150-4133-9396-DC38172DD635";
paths = (
{
closed = 1;
nodes = (
"152.733 0 LINE",
"188.444 -2 OFFCURVE",
"257.867 -7 OFFCURVE",
"316.111 -7 CURVE SMOOTH",
"547.644 -7 OFFCURVE",
"616.822 88.533 OFFCURVE",
"616.822 223.356 CURVE SMOOTH",
"616.822 315.244 OFFCURVE",
"546.422 395.689 OFFCURVE",
"455.956 400.756 CURVE",
"535.178 421.4 OFFCURVE",
"568.778 502.556 OFFCURVE",
"568.778 572.867 CURVE SMOOTH",
"568.778 679.578 OFFCURVE",
"491.356 750 OFFCURVE",
"320.622 750 CURVE SMOOTH",
"247.267 750 OFFCURVE",
"198.089 743 OFFCURVE",
"149.733 743 CURVE",
"94.467 744 LINE",
"94.467 0 LINE"
);
},
{
closed = 1;
nodes = (
"210.644 660.422 LINE",
"224.111 665.422 OFFCURVE",
"282.511 667.422 OFFCURVE",
"301.156 667.422 CURVE SMOOTH",
"400.2 667.422 OFFCURVE",
"455.311 632.378 OFFCURVE",
"455.311 557.222 CURVE SMOOTH",
"455.311 466.644 OFFCURVE",
"405.978 422.956 OFFCURVE",
"338.178 422.956 CURVE SMOOTH",
"302.556 422.956 OFFCURVE",
"246.267 419.844 OFFCURVE",
"210.644 425.311 CURVE"
);
},
{
closed = 1;
nodes = (
"210.644 337.978 LINE",
"237.8 341.8 OFFCURVE",
"293.044 340.333 OFFCURVE",
"330.8 340.333 CURVE SMOOTH",
"445.422 340.333 OFFCURVE",
"498.467 301.4 OFFCURVE",
"498.467 211.422 CURVE SMOOTH",
"498.467 110.267 OFFCURVE",
"434.667 77.156 OFFCURVE",
"326.867 77.156 CURVE SMOOTH",
"291.578 77.156 OFFCURVE",
"227.111 78.156 OFFCURVE",
"210.644 88.333 CURVE"
);
}
);
width = 661.11111;
}
);
leftKerningGroup = H;
rightKerningGroup = B;
unicode = 0042;
},
{
color = 4;
glyphname = C;
lastChange = "2019-04-01 03:29:43 +0000";
layers = (
{
anchors = (
{
name = bottom;
position = "{324, 0}";
},
{
name = btm;
position = "{386, -83}";
},
{
name = top;
position = "{392, 830}";
}
);
layerId = "8BC678DE-46B6-4C98-A96E-C0ED61786D32";
paths = (
{
closed = 1;
nodes = (
"52 143 OFFCURVE",
"184 -8 OFFCURVE",
"388 -8 CURVE SMOOTH",
"494 -8 OFFCURVE",
"541 17 OFFCURVE",
"585 31 CURVE",
"584 102 LINE",
"558 84 OFFCURVE",
"484 58 OFFCURVE",
"392 58 CURVE SMOOTH",
"229 58 OFFCURVE",
"134 193 OFFCURVE",
"134 374 CURVE SMOOTH",
"134 572 OFFCURVE",
"242 684 OFFCURVE",
"396 684 CURVE SMOOTH",
"508 684 OFFCURVE",
"552 657 OFFCURVE",
"574 649 CURVE",
"586 723 LINE",
"556 729 OFFCURVE",
"505 751 OFFCURVE",
"392 751 CURVE SMOOTH",
"206 751 OFFCURVE",
"52 614 OFFCURVE",
"52 368 CURVE SMOOTH"
);
}
);
width = 648;
},
{
anchors = (
{
name = bottom;
position = "{319, 0}";
},
{
name = btm;
position = "{386, -83}";
},
{
name = top;
position = "{410, 830}";
}
);
layerId = "23A20576-2241-481A-AD5B-28E85381F753";
paths = (
{
closed = 1;
nodes = (
"42 140 OFFCURVE",
"178 -8 OFFCURVE",
"424 -8 CURVE SMOOTH",
"511 -8 OFFCURVE",
"568 15 OFFCURVE",
"606 31 CURVE",
"606 184 LINE",
"581 163 OFFCURVE",
"508 136 OFFCURVE",
"445 136 CURVE SMOOTH",
"306 136 OFFCURVE",
"234 234 OFFCURVE",
"234 381 CURVE SMOOTH",
"234 525 OFFCURVE",
"323 604 OFFCURVE",
"437 604 CURVE SMOOTH",
"526 604 OFFCURVE",
"571 575 OFFCURVE",
"592 561 CURVE",
"616 721 LINE",
"571 730 OFFCURVE",
"525 751 OFFCURVE",
"422 751 CURVE SMOOTH",
"209 751 OFFCURVE",
"42 622 OFFCURVE",
"42 370 CURVE SMOOTH"
);
}
);
width = 644;
},
{
anchors = (
{
name = bottom;
position = "{320.289, 0}";
},
{
name = btm;
position = "{385.378, -83}";
},
{
name = top;
position = "{391.2, 830}";
}
);
layerId = "247DB4A4-D150-4133-9396-DC38172DD635";
paths = (
{
closed = 1;
nodes = (
"46.533 143.356 OFFCURVE",
"184.422 -8 OFFCURVE",
"397.8 -8 CURVE SMOOTH",
"489.444 -8 OFFCURVE",
"541.8 14 OFFCURVE",
"584.8 31 CURVE",
"584.8 130.222 LINE",
"558.8 107.933 OFFCURVE",
"478.156 84.044 OFFCURVE",
"403.756 84.044 CURVE SMOOTH",
"254.356 84.044 OFFCURVE",
"163.778 205.267 OFFCURVE",
"163.778 375.711 CURVE SMOOTH",
"163.778 548.333 OFFCURVE",
"256.778 656.778 OFFCURVE",
"401.622 656.778 CURVE SMOOTH",
"511.489 656.778 OFFCURVE",
"556.956 627.956 OFFCURVE",
"573.267 618.711 CURVE",
"590.333 722.822 LINE",
"560.6 729.356 OFFCURVE",
"506.2 751 OFFCURVE",
"394.089 751 CURVE SMOOTH",
"208.356 751 OFFCURVE",
"46.533 614.356 OFFCURVE",
"46.533 368.356 CURVE SMOOTH"
);
}
);
width = 639.75556;
}
);
leftKerningGroup = O;
rightKerningGroup = C;
unicode = 0043;
},
{
color = 4;
glyphname = D;
lastChange = "2019-03-31 03:56:05 +0000";
layers = (
{
anchors = (
{
name = bottom;
position = "{354, 0}";
},
{
name = btm;
position = "{306, -83}";
},
{
name = center;
position = "{354, 372}";
},
{
name = top;
position = "{341, 830}";
}
);
layerId = "8BC678DE-46B6-4C98-A96E-C0ED61786D32";
paths = (
{
closed = 1;
nodes = (
"97 0 OFFCURVE",
"138 0 OFFCURVE",
"148 -1 CURVE SMOOTH",
"198 -1 OFFCURVE",
"264 -7 OFFCURVE",
"306 -8 CURVE SMOOTH",
"537 -11 OFFCURVE",
"669 149 OFFCURVE",
"669 393 CURVE SMOOTH",
"669 618 OFFCURVE",
"553 750 OFFCURVE",
"317 750 CURVE SMOOTH",
"259 750 OFFCURVE",
"199 744 OFFCURVE",
"152 744 CURVE SMOOTH",
"146 743 OFFCURVE",
"99 743 OFFCURVE",
"94 743 CURVE",
"94 0 LINE"
);
},
{
closed = 1;
nodes = (
"176 683 LINE",
"210 687 OFFCURVE",
"251 690 OFFCURVE",
"298 690 CURVE SMOOTH",
"487 690 OFFCURVE",
"584 599 OFFCURVE",
"583 381 CURVE SMOOTH",
"582 156 OFFCURVE",
"474 56 OFFCURVE",
"318 54 CURVE SMOOTH",
"275 53 OFFCURVE",
"214 57 OFFCURVE",
"176 63 CURVE"
);
}
);
width = 715;
},
{
anchors = (
{
name = bottom;
position = "{377, 0}";
},
{
name = btm;
position = "{352, -83}";
},
{
name = center;
position = "{377, 372}";
},
{
name = top;
position = "{375, 830}";
}
);
layerId = "23A20576-2241-481A-AD5B-28E85381F753";
paths = (
{
closed = 1;
nodes = (
"102 0 OFFCURVE",
"124 0 OFFCURVE",
"146 0 CURVE SMOOTH",
"203 0 OFFCURVE",
"268 -7 OFFCURVE",
"341 -8 CURVE SMOOTH",
"579 -9 OFFCURVE",
"717 137 OFFCURVE",
"717 390 CURVE SMOOTH",
"717 619 OFFCURVE",
"604 751 OFFCURVE",
"352 751 CURVE SMOOTH",
"283 751 OFFCURVE",
"186 743 OFFCURVE",
"149 743 CURVE SMOOTH",
"126 743 OFFCURVE",
"103 743 OFFCURVE",
"80 743 CURVE",
"80 0 LINE"
);
},
{
closed = 1;
nodes = (
"267 610 LINE",
"285 613 OFFCURVE",
"320 617 OFFCURVE",
"345 617 CURVE SMOOTH",
"466 617 OFFCURVE",
"524 553 OFFCURVE",
"524 374 CURVE SMOOTH",
"524 205 OFFCURVE",
"456 130 OFFCURVE",
"352 129 CURVE SMOOTH",
"319 129 OFFCURVE",
"286 131 OFFCURVE",
"267 137 CURVE"
);
}
);
width = 758;
},
{
anchors = (
{
name = bottom;
position = "{358, 0}";
},
{
name = btm;
position = "{318, -83}";
},
{
name = center;
position = "{358, 372}";
},
{
name = top;
position = "{353, 830}";
}
);
layerId = "247DB4A4-D150-4133-9396-DC38172DD635";
paths = (
{
closed = 1;
nodes = (
"104 0 OFFCURVE",
"120 0 OFFCURVE",
"136 0 CURVE SMOOTH",
"187 0 OFFCURVE",
"258 -7 OFFCURVE",
"311 -8 CURVE SMOOTH",
"536 -12 OFFCURVE",
"678 139 OFFCURVE",
"678 393 CURVE SMOOTH",
"678 619 OFFCURVE",
"564 751 OFFCURVE",
"323 751 CURVE SMOOTH",
"257 751 OFFCURVE",
"193 743 OFFCURVE",
"146 743 CURVE SMOOTH",
"127 743 OFFCURVE",
"108 743 OFFCURVE",
"88 743 CURVE",
"88 0 LINE"
);
},
{
closed = 1;
nodes = (
"206 658 LINE",
"227 662 OFFCURVE",
"261 665 OFFCURVE",
"300 665 CURVE SMOOTH",
"469 665 OFFCURVE",
"555 591 OFFCURVE",
"555 376 CURVE SMOOTH",
"555 168 OFFCURVE",
"461 82 OFFCURVE",
"328 80 CURVE SMOOTH",
"287 79 OFFCURVE",
"238 82 OFFCURVE",
"206 89 CURVE"
);
}
);
width = 720;
}
);
leftKerningGroup = H;
leftMetricsKey = H;
rightKerningGroup = D;
unicode = 0044;
},
{
color = 4;
glyphname = Eth;
lastChange = "2019-02-18 20:30:01 +0000";
layers = (
{
components = (
{
name = D;
}
);
layerId = "8BC678DE-46B6-4C98-A96E-C0ED61786D32";
paths = (
{
closed = 1;
nodes = (
"395 360 LINE",
"395 416 LINE",
"30 416 LINE",
"30 360 LINE"
);
}
);
width = 722;
},
{
components = (
{
name = D;
}
);
layerId = "23A20576-2241-481A-AD5B-28E85381F753";
paths = (
{
closed = 1;
nodes = (
"415 330 LINE",
"415 446 LINE",
"29 446 LINE",
"29 330 LINE"
);
}
);
width = 762;
},
{
components = (
{
alignment = -1;
name = D;
}
);
layerId = "247DB4A4-D150-4133-9396-DC38172DD635";
paths = (
{
closed = 1;
nodes = (
"399.022 349.689 LINE",
"399.022 426.311 LINE",
"32.356 426.311 LINE",
"32.356 349.689 LINE"
);
}
);
width = 726.11111;
}
);
leftKerningGroup = H;
rightKerningGroup = D;
unicode = 00D0;
},
{
color = 4;
glyphname = Dcroat;
lastChange = "2019-02-18 20:30:01 +0000";
layers = (
{
components = (
{
name = D;
}
);
layerId = "8BC678DE-46B6-4C98-A96E-C0ED61786D32";
paths = (
{
closed = 1;
nodes = (
"395 360 LINE",
"395 416 LINE",
"30 416 LINE",
"30 360 LINE"
);
}
);
width = 722;
},
{
components = (
{
name = D;
}
);
layerId = "23A20576-2241-481A-AD5B-28E85381F753";
paths = (
{
closed = 1;
nodes = (
"415 330 LINE",
"415 446 LINE",
"29 446 LINE",
"29 330 LINE"
);
}
);
width = 762;
},
{
components = (
{
alignment = -1;
name = D;
}
);
layerId = "247DB4A4-D150-4133-9396-DC38172DD635";
paths = (
{
closed = 1;
nodes = (
"399.022 349.689 LINE",
"399.022 426.311 LINE",
"32.356 426.311 LINE",
"32.356 349.689 LINE"
);
}
);
width = 726.11111;
}
);
leftKerningGroup = H;
rightKerningGroup = D;
unicode = 0110;
},
{
glyphname = E;
lastChange = "2019-03-31 03:56:05 +0000";
layers = (
{
anchors = (
{
name = bottom;
position = "{287, 0}";
},
{
name = btm;
position = "{320, -83}";
},
{
name = ogonek;
position = "{537, 10}";
},
{
name = top;
position = "{302, 830}";
},
{
name = topleft;
position = "{13, 743}";
}
);
layerId = "8BC678DE-46B6-4C98-A96E-C0ED61786D32";
paths = (
{
closed = 1;
nodes = (
"548 0 LINE",
"548 65 LINE",
"176 65 LINE",
"176 352 LINE",
"422 352 LINE",
"422 416 LINE",
"176 416 LINE",
"176 679 LINE",
"513 679 LINE",
"513 743 LINE",
"94 743 LINE",
"94 0 LINE"
);
}
);
width = 580;
},
{
anchors = (
{
name = bottom;
position = "{306, 0}";
},
{
name = btm;
position = "{329, -83}";
},
{
name = ogonek;
position = "{540, 10}";
},
{
name = top;
position = "{318, 830}";
},
{
name = topleft;
position = "{16, 743}";
}
);
layerId = "23A20576-2241-481A-AD5B-28E85381F753";
paths = (
{
closed = 1;
nodes = (
"579 0 LINE",
"579 142 LINE",
"265 142 LINE",
"265 312 LINE",
"485 312 LINE",
"485 447 LINE",
"265 447 LINE",
"265 604 LINE",
"550 604 LINE",
"550 743 LINE",
"80 743 LINE",
"80 0 LINE"
);
}
);
width = 616;
},
{
anchors = (
{
name = bottom;
position = "{293, 0}";
},
{
name = btm;
position = "{322, -83}";
},
{
name = ogonek;
position = "{538, 10}";
},
{
name = top;
position = "{315, 830}";
},
{
name = topleft;
position = "{14, 743}";
}
);
layerId = "247DB4A4-D150-4133-9396-DC38172DD635";
paths = (
{
closed = 1;
nodes = (
"555 0 LINE",
"555 92 LINE",
"206 92 LINE",
"206 338 LINE",
"439 338 LINE",
"439 427 LINE",
"206 427 LINE",
"206 653 LINE",
"520 653 LINE",
"520 743 LINE",
"88 743 LINE",
"88 0 LINE"
);
}
);
width = 591;
}
);
leftKerningGroup = H;
leftMetricsKey = H;
rightKerningGroup = E;
unicode = 0045;
},
{
color = 4;
glyphname = Ezh;
lastChange = "2019-03-29 21:15:18 +0000";
layers = (
{
anchors = (
{
name = bottom;
position = "{306, 0}";
},
{
name = top;
position = "{305, 830}";
}
);
background = {
components = (
{
name = three;
transform = "{1, 0, 0, 1, 10, 0}";
},
{
name = E;
}
);
};
layerId = "23A20576-2241-481A-AD5B-28E85381F753";
paths = (
{
closed = 1;
nodes = (
"433 -11 OFFCURVE",
"569 94 OFFCURVE",
"568 216 CURVE SMOOTH",
"569 334 OFFCURVE",
"478 418 OFFCURVE",
"333 418 CURVE",
"530 604 LINE",
"528 743 LINE",
"56 743 LINE",
"55 604 LINE",
"346 604 LINE",
"305 573 LINE",
"161 433 LINE",
"162 291 LINE",
"187 320 OFFCURVE",
"228 336 OFFCURVE",
"266 335 CURVE SMOOTH",
"317 334 OFFCURVE",
"364 303 OFFCURVE",
"364 234 CURVE SMOOTH",
"364 161 OFFCURVE",
"305 118 OFFCURVE",
"172 118 CURVE SMOOTH",
"150 118 OFFCURVE",
"93 123 OFFCURVE",
"55 135 CURVE",
"56 14 LINE",
"93 4 OFFCURVE",
"149 -11 OFFCURVE",
"220 -11 CURVE SMOOTH"
);
}
);
width = 604;
},
{
anchors = (
{
name = bottom;
position = "{268, 0}";
},
{
name = top;
position = "{275, 830}";
}
);
background = {
components = (
{
name = E;
transform = "{1, 0, 0, 1, -10, 0}";
},
{
name = three;
transform = "{1, 0, 0, 1, -10, 0}";
}
);
};
layerId = "8BC678DE-46B6-4C98-A96E-C0ED61786D32";
paths = (
{
closed = 1;
nodes = (
"384 -7 OFFCURVE",
"503 99 OFFCURVE",
"503 228 CURVE SMOOTH",
"503 341 OFFCURVE",
"412 432 OFFCURVE",
"257 424 CURVE",
"466 668 LINE",
"468 743 LINE",
"62 743 LINE",
"62 677 LINE",
"389 677 LINE",
"340 629 LINE",
"166 423 LINE",
"166 337 LINE",
"180 354 OFFCURVE",
"215 364 OFFCURVE",
"255 365 CURVE SMOOTH",
"328 366 OFFCURVE",
"416 331 OFFCURVE",
"416 232 CURVE SMOOTH",
"416 140 OFFCURVE",
"335 62 OFFCURVE",
"146 56 CURVE SMOOTH",
"118 55 OFFCURVE",
"88 57 OFFCURVE",
"57 62 CURVE",
"58 3 LINE",
"93 -4 OFFCURVE",
"126 -7 OFFCURVE",
"160 -7 CURVE SMOOTH"
);
}
);
width = 545;
},
{
anchors = (
{
name = bottom;
position = "{278.178, 0}";
},
{
name = top;
position = "{282.511, 830}";
}
);
background = {
components = (
{
name = three;
},
{
name = E;
}
);
};
layerId = "247DB4A4-D150-4133-9396-DC38172DD635";
paths = (
{
closed = 1;
nodes = (
"436 -10 OFFCURVE",
"535 104 OFFCURVE",
"535 235 CURVE SMOOTH",
"535 327 OFFCURVE",
"449 441 OFFCURVE",
"292 431 CURVE",
"497 658 LINE",
"499 743 LINE",
"67 743 LINE",
"67 653 LINE",
"372 653 LINE",
"304 593 LINE",
"159 428 LINE",
"161 330 LINE",
"187 346 OFFCURVE",
"224 355 OFFCURVE",
"261 355 CURVE SMOOTH",
"334 355 OFFCURVE",
"408 321 OFFCURVE",
"408 235 CURVE SMOOTH",
"408 134 OFFCURVE",
"317 74 OFFCURVE",
"144 74 CURVE SMOOTH",
"125 74 OFFCURVE",
"88 79 OFFCURVE",
"58 85 CURVE",
"58 -1 LINE",
"88 -3 OFFCURVE",
"130 -10 OFFCURVE",
"174 -10 CURVE SMOOTH"
);
}
);
width = 567;
}
);
leftKerningGroup = Ezh;
rightKerningGroup = Ezh;
unicode = 01B7;
},
{
color = 4;
glyphname = F;
lastChange = "2019-04-01 03:23:01 +0000";
layers = (
{
anchors = (
{
name = bottom;
position = "{258, 0}";
},
{
name = btm;
position = "{333, -83}";
},
{
name = top;
position = "{318, 830}";
}
);
layerId = "8BC678DE-46B6-4C98-A96E-C0ED61786D32";
paths = (
{
closed = 1;
nodes = (
"176 0 LINE",
"176 341 LINE",
"425 341 LINE",
"425 405 LINE",
"176 405 LINE",
"176 679 LINE",
"509 679 LINE",
"509 743 LINE",
"94 743 LINE",
"94 0 LINE"
);
}
);
width = 523;
},
{
anchors = (
{
name = bottom;
position = "{280, 0}";
},
{
name = btm;
position = "{320, -83}";
},
{
name = top;
position = "{324, 831}";
}
);
layerId = "23A20576-2241-481A-AD5B-28E85381F753";
paths = (
{
closed = 1;
nodes = (
"266 0 LINE",
"266 289 LINE",
"477 289 LINE",
"477 427 LINE",
"266 427 LINE",
"266 604 LINE",
"544 604 LINE",
"544 743 LINE",
"80 743 LINE",
"80 0 LINE"
);
}
);
width = 564;
},
{
anchors = (
{
name = bottom;
position = "{262, 0}";
},
{
name = btm;
position = "{328, -83}";
},
{
name = top;
position = "{324, 830}";
}
);
layerId = "247DB4A4-D150-4133-9396-DC38172DD635";
paths = (
{
closed = 1;
nodes = (
"206 0 LINE",
"206 328 LINE",
"440 328 LINE",
"440 418 LINE",
"206 418 LINE",
"206 653 LINE",
"519 653 LINE",
"519 743 LINE",
"88 743 LINE",
"88 0 LINE"
);
}
);
width = 528;
}
);
leftKerningGroup = H;
leftMetricsKey = H;
rightKerningGroup = F;
unicode = 0046;
},
{
color = 4;
glyphname = G;
lastChange = "2019-04-01 02:55:21 +0000";
layers = (
{
anchors = (
{
name = bottom;
position = "{352, 0}";
},
{
name = btm;
position = "{395, -83}";
},
{
name = top;
position = "{399, 830}";
}
);
layerId = "8BC678DE-46B6-4C98-A96E-C0ED61786D32";
paths = (
{
closed = 1;
nodes = (
"54 152 OFFCURVE",
"179 -8 OFFCURVE",
"392 -8 CURVE SMOOTH",
"542 -8 OFFCURVE",
"604 42 OFFCURVE",
"645 44 CURVE",
"645 366 LINE",
"411 366 LINE",
"411 307 LINE",
"588 301 LINE",
"565 317 LINE",
"565 88 LINE",
"537 74 OFFCURVE",
"470 56 OFFCURVE",
"391 56 CURVE SMOOTH",
"229 56 OFFCURVE",
"140 190 OFFCURVE",
"140 376 CURVE SMOOTH",
"140 579 OFFCURVE",
"254 686 OFFCURVE",
"393 686 CURVE SMOOTH",
"497 686 OFFCURVE",
"558 666 OFFCURVE",
"600 647 CURVE",
"603 721 LINE",
"545 732 OFFCURVE",
"504 751 OFFCURVE",
"398 751 CURVE SMOOTH",
"206 751 OFFCURVE",
"54 620 OFFCURVE",
"54 366 CURVE SMOOTH"
);
}
);
width = 704;
},
{
anchors = (
{
name = bottom;
position = "{368, 0}";
},
{
name = btm;
position = "{394, -83}";
},
{
name = top;
position = "{411, 831}";
}
);
layerId = "23A20576-2241-481A-AD5B-28E85381F753";
paths = (
{
closed = 1;
nodes = (
"42 131 OFFCURVE",
"184 -8 OFFCURVE",
"405 -8 CURVE SMOOTH",
"574 -8 OFFCURVE",
"622 40 OFFCURVE",
"680 42 CURVE",
"680 417 LINE",
"404 417 LINE",
"404 284 LINE",
"528 275 LINE",
"510 297 LINE",
"510 146 LINE",
"486 137 OFFCURVE",
"454 131 OFFCURVE",
"402 131 CURVE SMOOTH",
"291 131 OFFCURVE",
"231 237 OFFCURVE",
"231 381 CURVE SMOOTH",
"231 521 OFFCURVE",
"305 605 OFFCURVE",
"434 605 CURVE SMOOTH",
"533 605 OFFCURVE",
"596 586 OFFCURVE",
"635 566 CURVE",
"640 722 LINE",
"583 732 OFFCURVE",
"535 751 OFFCURVE",
"426 751 CURVE SMOOTH",
"211 751 OFFCURVE",
"42 643 OFFCURVE",
"42 368 CURVE SMOOTH"
);
}
);
width = 736;
},
{
anchors = (
{
name = bottom;
position = "{352.667, 0}";
},
{
name = btm;
position = "{394.067, -83}";
},
{
name = top;
position = "{397.022, 830.178}";
}
);
layerId = "247DB4A4-D150-4133-9396-DC38172DD635";
paths = (
{
closed = 1;
nodes = (
"48.178 150.689 OFFCURVE",
"173.889 -8 OFFCURVE",
"394.956 -8 CURVE SMOOTH",
"546.556 -8 OFFCURVE",
"604.444 42.822 OFFCURVE",
"647.8 45.644 CURVE",
"647.8 376.978 LINE",
"404.067 376.978 LINE",
"404.067 291.578 LINE",
"564.267 284.578 LINE",
"535.156 304.756 LINE",
"535.156 107.8 LINE",
"507.156 90.222 OFFCURVE",
"446.133 81.4 OFFCURVE",
"392.244 81.4 CURVE SMOOTH",
"240.222 81.4 OFFCURVE",
"169.711 212.911 OFFCURVE",
"169.711 381 CURVE SMOOTH",
"169.711 556.556 OFFCURVE",
"262.222 659.244 OFFCURVE",
"392.044 659.244 CURVE SMOOTH",
"500.867 659.244 OFFCURVE",
"553.333 641.422 OFFCURVE",
"601.156 617.6 CURVE",
"605.978 722 LINE",
"540.978 734 OFFCURVE",
"508.978 751 OFFCURVE",
"397.622 751 CURVE SMOOTH",
"202.778 751 OFFCURVE",
"48.178 624.956 OFFCURVE",
"48.178 368 CURVE SMOOTH"
);
}
);
width = 705.15556;
}
);
leftKerningGroup = O;
rightKerningGroup = G;
unicode = 0047;
},
{
color = 4;
glyphname = H;
lastChange = "2019-03-31 03:56:07 +0000";
layers = (
{
anchors = (
{
name = bottom;
position = "{370, 0}";
},
{
name = btm;
position = "{368, -83}";
},
{
name = center;
position = "{370, 372}";
},
{
name = top;
position = "{370, 830}";
},
{
name = topleft;
position = "{13, 743}";
}
);
layerId = "8BC678DE-46B6-4C98-A96E-C0ED61786D32";
paths = (
{
closed = 1;
nodes = (
"176 0 LINE",
"176 347 LINE",
"563 347 LINE",
"563 0 LINE",
"645 0 LINE",
"645 743 LINE",
"563 743 LINE",
"563 410 LINE",
"176 410 LINE",
"176 743 LINE",
"94 743 LINE",
"94 0 LINE"
);
}
);
width = 739;
},
{
anchors = (
{
name = bottom;
position = "{394, 0}";
},
{
name = btm;
position = "{395, -83}";
},
{
name = center;
position = "{394, 372}";
},
{
name = top;
position = "{394, 830}";
},
{
name = topleft;
position = "{16, 743}";
}
);
layerId = "23A20576-2241-481A-AD5B-28E85381F753";
paths = (
{
closed = 1;
nodes = (
"267 0 LINE",
"267 308 LINE",
"522 308 LINE",
"522 0 LINE",
"708 0 LINE",
"708 743 LINE",
"522 743 LINE",
"522 442 LINE",
"267 442 LINE",
"267 743 LINE",
"80 743 LINE",
"80 0 LINE"
);
}
);
width = 788;
},
{
anchors = (
{
name = bottom;
position = "{375, 0}";
},
{
name = btm;
position = "{371, -83}";
},
{
name = center;
position = "{375, 372}";
},
{
name = top;
position = "{375, 830}";
},
{
name = topleft;
position = "{14, 743}";
}
);
layerId = "247DB4A4-D150-4133-9396-DC38172DD635";
paths = (
{
closed = 1;
nodes = (
"206 0 LINE",
"206 330 LINE",
"545 330 LINE",
"545 0 LINE",
"662 0 LINE",
"662 743 LINE",
"545 743 LINE",
"545 420 LINE",
"206 420 LINE",
"206 743 LINE",
"88 743 LINE",
"88 0 LINE"
);
}
);
width = 750;
}
);
leftKerningGroup = H;
rightKerningGroup = H;
unicode = 0048;
},
{
color = 4;
glyphname = Hbar;
lastChange = "2019-02-18 20:30:01 +0000";
layers = (
{
layerId = "8BC678DE-46B6-4C98-A96E-C0ED61786D32";
paths = (
{
closed = 1;
nodes = (
"183 0 LINE",
"183 343 LINE",
"574 343 LINE",
"574 0 LINE",
"656 0 LINE",
"656 743 LINE",
"574 743 LINE",
"574 407 LINE",
"183 407 LINE",
"183 743 LINE",
"101 743 LINE",
"101 0 LINE"
);
},
{
closed = 1;
nodes = (
"761 530 LINE",
"761 583 LINE",
"5 583 LINE",
"5 530 LINE"
);
}
);
width = 757;
},
{
layerId = "23A20576-2241-481A-AD5B-28E85381F753";
paths = (
{
closed = 1;
nodes = (
"272 0 LINE",
"272 280 LINE",
"530 280 LINE",
"530 0 LINE",
"718 0 LINE",
"718 743 LINE",
"530 743 LINE",
"530 410 LINE",
"272 410 LINE",
"272 743 LINE",
"84 743 LINE",
"84 0 LINE"
);
},
{
closed = 1;
nodes = (
"790 505 LINE",
"790 613 LINE",
"14 613 LINE",
"14 505 LINE"
);
}
);
width = 802;
},
{
layerId = "247DB4A4-D150-4133-9396-DC38172DD635";
paths = (
{
closed = 1;
nodes = (
"212 0 LINE",
"212 324.378 LINE",
"556.8 324.378 LINE",
"556.8 0 LINE",
"673.689 0 LINE",
"673.689 743 LINE",
"556.8 743 LINE",
"556.8 413.711 LINE",
"212 413.711 LINE",
"212 743 LINE",
"94.467 743 LINE",
"94.467 0 LINE"
);
},
{
closed = 1;
nodes = (
"764.556 518.222 LINE",
"764.556 591.667 LINE",
"5.422 591.667 LINE",
"5.422 518.222 LINE"
);
}
);
width = 768.15556;
}
);
leftKerningGroup = H;
rightKerningGroup = H;
unicode = 0126;
},
{
color = 4;
glyphname = I;
lastChange = "2019-02-18 20:30:01 +0000";
layers = (
{
anchors = (
{
name = bottom;
position = "{150, 0}";
},
{
name = btm;
position = "{152, -83}";
},
{
name = ogonek;
position = "{250, 10}";
},
{
name = top;
position = "{150, 830}";
},
{
name = topleft;
position = "{20, 743}";
}
);
layerId = "8BC678DE-46B6-4C98-A96E-C0ED61786D32";
paths = (
{
closed = 1;
nodes = (
"191 0 LINE",
"191 743 LINE",
"108 743 LINE",
"108 0 LINE"
);
}
);
width = 299;
},
{
anchors = (
{
name = bottom;
position = "{184, 0}";
},
{
name = btm;
position = "{184, -83}";
},
{
name = ogonek;
position = "{258, 10}";
},
{
name = top;
position = "{185, 830}";
},
{
name = topleft;
position = "{20, 743}";
}
);
layerId = "23A20576-2241-481A-AD5B-28E85381F753";
paths = (
{
closed = 1;
nodes = (
"278 0 LINE",
"278 743 LINE",
"90 743 LINE",
"90 0 LINE"
);
}
);
width = 368;
},
{
anchors = (
{
name = bottom;
position = "{160.556, 0}";
},
{
name = btm;
position = "{163.2, -83}";
},
{
name = ogonek;
position = "{259.644, 10}";
},
{
name = top;
position = "{160.378, 830}";
},
{
name = topleft;
position = "{20, 743}";
}
);
layerId = "247DB4A4-D150-4133-9396-DC38172DD635";
paths = (
{
closed = 1;
nodes = (
"218.644 0 LINE",
"218.644 743 LINE",
"100.467 743 LINE",
"100.467 0 LINE"
);
}
);
width = 320.11111;
}
);
leftKerningGroup = I;
rightKerningGroup = I;
unicode = 0049;
},
{
color = 4;
glyphname = J;
lastChange = "2019-03-31 03:09:55 +0000";
layers = (
{
anchors = (
{
name = bottom;
position = "{170, 0}";
},
{
name = btm;
position = "{137, -83}";
},
{
name = top;
position = "{184, 830}";
}
);
layerId = "8BC678DE-46B6-4C98-A96E-C0ED61786D32";
paths = (
{
closed = 1;
nodes = (
"92 -150 OFFCURVE",
"196 -87 OFFCURVE",
"218 32 CURVE SMOOTH",
"229 97 OFFCURVE",
"227 176 OFFCURVE",
"227 262 CURVE SMOOTH",
"227 743 LINE",
"143 743 LINE",
"143 271 LINE SMOOTH",
"143 168 OFFCURVE",
"144 73 OFFCURVE",
"126 15 CURVE SMOOTH",
"105 -58 OFFCURVE",
"42 -102 OFFCURVE",
"-19 -119 CURVE",
"7 -162 LINE"
);
}
);
width = 339;
},
{
anchors = (
{
name = bottom;
position = "{196, 0}";
},
{
name = btm;
position = "{115, -83}";
},
{
name = top;
position = "{206, 831}";
}
);
layerId = "23A20576-2241-481A-AD5B-28E85381F753";
paths = (
{
closed = 1;
nodes = (
"107 -166 OFFCURVE",
"266 -98 OFFCURVE",
"294 46 CURVE SMOOTH",
"308 116 OFFCURVE",
"303 202 OFFCURVE",
"303 299 CURVE SMOOTH",
"303 743 LINE",
"116 743 LINE",
"116 297 LINE SMOOTH",
"116 170 OFFCURVE",
"115 106 OFFCURVE",
"100 54 CURVE SMOOTH",
"80 -19 OFFCURVE",
"31 -50 OFFCURVE",
"-17 -69 CURVE",
"23 -162 LINE"
);
}
);
width = 391;
},
{
anchors = (
{
name = bottom;
position = "{177.733, 0}";
},
{
name = btm;
position = "{131.711, -83}";
},
{
name = top;
position = "{188.8, 830.178}";
}
);
layerId = "247DB4A4-D150-4133-9396-DC38172DD635";
paths = (
{
closed = 1;
nodes = (
"98.733 -150.778 OFFCURVE",
"217.533 -86.422 OFFCURVE",
"241.067 42.356 CURVE SMOOTH",
"254.244 113.356 OFFCURVE",
"250.067 202 OFFCURVE",
"250.067 299 CURVE SMOOTH",
"250.067 743 LINE",
"131.889 743 LINE",
"131.889 297 LINE SMOOTH",
"131.889 193.533 OFFCURVE",
"131.533 94.911 OFFCURVE",
"116.067 36.444 CURVE SMOOTH",
"95.422 -40.089 OFFCURVE",
"33.667 -81.556 OFFCURVE",
"-18.156 -100.556 CURVE",
"16.556 -162 LINE"
);
}
);
width = 355.46667;
}
);
leftKerningGroup = J;
rightKerningGroup = J;
unicode = 004A;
},
{
color = 4;
glyphname = K;
lastChange = "2019-03-31 13:16:54 +0000";
layers = (
{
anchors = (
{
name = bottom;
position = "{326, 0}";
},
{
name = btm;
position = "{329, -83}";
},
{
name = top;
position = "{322, 830}";
}
);
background = {
components = (
{
name = H;
transform = "{1, 0, 0, 1, -4, 0}";
}
);
};
layerId = "8BC678DE-46B6-4C98-A96E-C0ED61786D32";
paths = (
{
closed = 1;
nodes = (
"174 0 LINE",
"174 286 LINE",
"154 215 LINE",
"300 381 LINE",
"309 392 LINE",
"604 743 LINE",
"506 743 LINE",
"174 339 LINE",
"174 743 LINE",
"94 743 LINE",
"94 0 LINE"
);
},
{
closed = 1;
nodes = (
"510 25 OFFCURVE",
"515 12 OFFCURVE",
"523 0 CURVE",
"617 0 LINE",
"614 5 OFFCURVE",
"587 49 OFFCURVE",
"584 54 CURVE",
"521 165 OFFCURVE",
"368 380 OFFCURVE",
"330 443 CURVE",
"301 409 LINE",
"272 394 LINE",
"324 310 OFFCURVE",
"437 153 OFFCURVE",
"493 55 CURVE SMOOTH"
);
}
);
width = 647;
},
{
anchors = (
{
name = bottom;
position = "{355, 0}";
},
{
name = btm;
position = "{371, -83}";
},
{
name = top;
position = "{371, 831}";
}
);
layerId = "23A20576-2241-481A-AD5B-28E85381F753";
paths = (
{
closed = 1;
nodes = (
"262 0 LINE",
"262 297 LINE",
"242 187 LINE",
"381 352 LINE",
"424 385 LINE",
"699 743 LINE",
"497 743 LINE",
"262 427 LINE",
"262 743 LINE",
"80 743 LINE",
"80 0 LINE"
);
},
{
closed = 1;
nodes = (
"488 28 OFFCURVE",
"495 13 OFFCURVE",
"503 0 CURVE",
"712 0 LINE",
"701 18 OFFCURVE",
"691 36 OFFCURVE",
"680 54 CURVE",
"604 184 OFFCURVE",
"488 385 OFFCURVE",
"440 444 CURVE",
"387 384 LINE",
"320 311 LINE",
"372 235 OFFCURVE",
"422 153 OFFCURVE",
"472 59 CURVE SMOOTH"
);
}
);
width = 713;
},
{
anchors = (
{
name = bottom;
position = "{332, 0}";
},
{
name = btm;
position = "{337, -83}";
},
{
name = top;
position = "{337, 830}";
}
);
layerId = "247DB4A4-D150-4133-9396-DC38172DD635";
paths = (
{
closed = 1;
nodes = (
"204 0 LINE",
"204 301 LINE",
"178 204 LINE",
"313 358 LINE",
"328 374 LINE",
"629 743 LINE",
"494 743 LINE",
"204 376 LINE",
"204 743 LINE",
"88 743 LINE",
"88 0 LINE"
);
},
{
closed = 1;
nodes = (
"493 25 OFFCURVE",
"496 13 OFFCURVE",
"505 0 CURVE",
"639 0 LINE",
"628 18 OFFCURVE",
"618 36 OFFCURVE",
"607 54 CURVE",
"542 169 OFFCURVE",
"390 386 OFFCURVE",
"358 443 CURVE",
"316 396 LINE",
"276 369 LINE",
"327 285 OFFCURVE",
"421 154 OFFCURVE",
"475 55 CURVE SMOOTH"
);
}
);
width = 669;
}
);
leftKerningGroup = H;
leftMetricsKey = H;
rightKerningGroup = K;
unicode = 004B;
},
{
color = 4;
glyphname = L;
lastChange = "2019-03-31 03:56:05 +0000";
layers = (
{
anchors = (
{
name = bottom;
position = "{254, 0}";
},
{
name = btm;
position = "{279, -83}";
},
{
name = center;
position = "{254, 372}";
},
{
name = top;
position = "{135, 830}";
},
{
name = topright;
position = "{494, 743}";
}
);
layerId = "8BC678DE-46B6-4C98-A96E-C0ED61786D32";
paths = (
{
closed = 1;
nodes = (
"485 0 LINE",
"487 67 LINE",
"175 67 LINE",
"173 743 LINE",
"94 743 LINE",
"94 0 LINE"
);
}
);
width = 514;
},
{
anchors = (
{
name = bottom;
position = "{270, 0}";
},
{
name = btm;
position = "{291, -83}";
},
{
name = center;
position = "{270, 372}";
},
{
name = top;
position = "{174, 830}";
},
{
name = topright;
position = "{524, 743}";
}
);
layerId = "23A20576-2241-481A-AD5B-28E85381F753";
paths = (
{
closed = 1;
nodes = (
"515 0 LINE",
"515 150 LINE",
"264 150 LINE",
"264 743 LINE",
"80 743 LINE",
"80 0 LINE"
);
}
);
width = 544;
},
{
anchors = (
{
name = bottom;
position = "{260, 0}";
},
{
name = btm;
position = "{289, -83}";
},
{
name = center;
position = "{260, 372}";
},
{
name = top;
position = "{147, 830}";
},
{
name = topright;
position = "{505, 743}";
}
);
layerId = "247DB4A4-D150-4133-9396-DC38172DD635";
paths = (
{
closed = 1;
nodes = (
"497 0 LINE",
"497 93 LINE",
"205 93 LINE",
"205 743 LINE",
"88 743 LINE",
"88 0 LINE"
);
}
);
width = 525;
}
);
leftKerningGroup = H;
leftMetricsKey = H;
rightKerningGroup = L;
unicode = 004C;
},
{
color = 4;
glyphname = Lslash;
lastChange = "2019-04-01 04:16:03 +0000";
layers = (
{
components = (
{
name = L;
}
);
layerId = "8BC678DE-46B6-4C98-A96E-C0ED61786D32";
paths = (
{
closed = 1;
nodes = (
"26 277 LINE",
"414 419 LINE",
"394 471 LINE",
"6 328 LINE"
);
}
);
width = 514;
},
{
components = (
{
name = L;
}
);
layerId = "23A20576-2241-481A-AD5B-28E85381F753";
paths = (
{
closed = 1;
nodes = (
"44 277 LINE",
"432 419 LINE",
"396 515 LINE",
"9 372 LINE"
);
}
);
width = 544;
},
{
components = (
{
alignment = -1;
name = L;
}
);
layerId = "247DB4A4-D150-4133-9396-DC38172DD635";
paths = (
{
closed = 1;
nodes = (
"36.6 277 LINE",
"423.778 419 LINE",
"396.711 489.844 LINE",
"9.533 346.844 LINE"
);
}
);
width = 525;
}
);
leftKerningGroup = H;
rightKerningGroup = L;
rightMetricsKey = L;
unicode = 0141;
},
{
color = 4;
glyphname = M;
lastChange = "2019-04-01 03:19:59 +0000";
layers = (
{
anchors = (
{
name = bottom;
position = "{470, 0}";
},
{
name = btm;
position = "{471, -83}";
},
{
name = top;
position = "{470, 800}";
}
);
layerId = "8BC678DE-46B6-4C98-A96E-C0ED61786D32";
paths = (
{
closed = 1;
nodes = (
"153 0 LINE",
"197 462 LINE",
"216 682 LINE",
"282 462 LINE",
"448 -7 LINE",
"493 -7 LINE",
"651 462 LINE",
"711 682 LINE",
"733 462 LINE",
"785 0 LINE",
"868 0 LINE",
"772 743 LINE",
"661 743 LINE",
"506 260 LINE",
"470 121 LINE",
"434 260 LINE",
"269 743 LINE",
"152 743 LINE",
"73 0 LINE"
);
}
);
width = 940;
},
{
anchors = (
{
name = bottom;
position = "{487, 0}";
},
{
name = btm;
position = "{492, -83}";
},
{
name = top;
position = "{492, 800}";
}
);
layerId = "23A20576-2241-481A-AD5B-28E85381F753";
paths = (
{
closed = 1;
nodes = (
"206 0 LINE",
"235 391 LINE",
"248 605 LINE",
"297 385 LINE",
"405 -4 LINE",
"570 -4 LINE",
"670 385 LINE",
"716 605 LINE",
"727 391 LINE",
"758 0 LINE",
"937 0 LINE",
"845 743 LINE",
"602 743 LINE",
"522 362 LINE",
"495 188 LINE",
"461 362 LINE",
"371 743 LINE",
"120 743 LINE",
"34 0 LINE"
);
}
);
width = 971;
},
{
anchors = (
{
name = bottom;
position = "{468.4, 0}";
},
{
name = btm;
position = "{470.467, -83}";
},
{
name = top;
position = "{469.756, 800}";
}
);
layerId = "247DB4A4-D150-4133-9396-DC38172DD635";
paths = (
{
closed = 1;
nodes = (
"172.244 0 LINE",
"210.822 450.622 LINE",
"225.533 655.6 LINE",
"279.711 450.622 LINE",
"433.711 -7 LINE",
"504.089 -7 LINE",
"650.556 450.622 LINE",
"701.444 655.6 LINE",
"715.267 450.622 LINE",
"759.489 0 LINE",
"876.311 0 LINE",
"787.311 743 LINE",
"629.578 743 LINE",
"505.222 325.044 LINE",
"470.467 165.8 LINE",
"431.822 325.044 LINE",
"300.756 743 LINE",
"136.022 743 LINE",
"59.489 0 LINE"
);
}
);
width = 935.8;
}
);
leftKerningGroup = M;
rightKerningGroup = M;
unicode = 004D;
},
{
color = 4;
glyphname = N;
lastChange = "2019-03-31 03:56:07 +0000";
layers = (
{
anchors = (
{
name = bottom;
position = "{373, 0}";
},
{
name = btm;
position = "{360, -83}";
},
{
name = top;
position = "{378, 830}";
}
);
layerId = "8BC678DE-46B6-4C98-A96E-C0ED61786D32";
paths = (
{
closed = 1;
nodes = (
"170 0 LINE",
"170 474 LINE",
"163 694 LINE",
"130 694 LINE",
"241 505 LINE",
"577 0 LINE",
"652 0 LINE",
"652 743 LINE",
"577 743 LINE",
"577 257 LINE",
"584 51 LINE",
"613 51 LINE",
"513 226 LINE",
"171 743 LINE",
"94 743 LINE",
"94 0 LINE"
);
}
);
width = 746;
},
{
anchors = (
{
name = bottom;
position = "{394, 0}";
},
{
name = btm;
position = "{377, -83}";
},
{
name = top;
position = "{397, 830}";
}
);
layerId = "23A20576-2241-481A-AD5B-28E85381F753";
paths = (
{
closed = 1;
nodes = (
"249 0 LINE",
"249 321 LINE",
"212 626 LINE",
"171 626 LINE",
"280 398 LINE",
"521 0 LINE",
"708 0 LINE",
"708 743 LINE",
"539 743 LINE",
"539 416 LINE",
"569 135 LINE",
"603 135 LINE",
"508 335 LINE",
"254 743 LINE",
"80 743 LINE",
"80 0 LINE"
);
}
);
width = 788;
},
{
anchors = (
{
name = bottom;
position = "{377, 0}";
},
{
name = btm;
position = "{360, -83}";
},
{
name = top;
position = "{383, 830}";
}
);
layerId = "247DB4A4-D150-4133-9396-DC38172DD635";
paths = (
{
closed = 1;
nodes = (
"195 0 LINE",
"195 447 LINE",
"183 672 LINE",
"140 672 LINE",
"255 463 LINE",
"554 0 LINE",
"666 0 LINE",
"666 743 LINE",
"557 743 LINE",
"557 285 LINE",
"570 77 LINE",
"605 77 LINE",
"506 262 LINE",
"195 743 LINE",
"88 743 LINE",
"88 0 LINE"
);
}
);
width = 754;
}
);
leftKerningGroup = H;
leftMetricsKey = H;
rightKerningGroup = H;
rightMetricsKey = H;
unicode = 004E;
},
{
glyphname = Eng;
lastChange = "2019-02-18 20:30:01 +0000";
layers = (
{
layerId = "8BC678DE-46B6-4C98-A96E-C0ED61786D32";
paths = (
{
closed = 1;
nodes = (
"181 475 LINE",
"175 691 LINE",
"140 691 LINE",
"247 508 LINE",
"581 17 LINE",
"579 -48 OFFCURVE",
"477 -130 OFFCURVE",
"380 -158 CURVE",
"401 -197 LINE",
"492 -183 OFFCURVE",
"611 -116 OFFCURVE",
"645 -4 CURVE SMOOTH",
"666 56 OFFCURVE",
"668 124 OFFCURVE",
"668 198 CURVE SMOOTH",
"668 743 LINE",
"587 743 LINE",
"587 255 LINE",
"597 51 LINE",
"625 51 LINE",
"529 222 LINE",
"177 743 LINE",
"100 743 LINE",
"101 0 LINE",
"181 0 LINE"
);
}
);
width = 771;
},
{
layerId = "23A20576-2241-481A-AD5B-28E85381F753";
paths = (
{
closed = 1;
nodes = (
"258 322 LINE",
"216 640 LINE",
"174 640 LINE",
"287 398 LINE",
"525 5 LINE",
"525 -69 OFFCURVE",
"439 -135 OFFCURVE",
"356 -159 CURVE",
"392 -229 LINE",
"542 -229 OFFCURVE",
"658 -147 OFFCURVE",
"690 -49 CURVE SMOOTH",
"711 15 OFFCURVE",
"711 63 OFFCURVE",
"711 155 CURVE SMOOTH",
"711 743 LINE",
"538 743 LINE",
"538 416 LINE",
"569 135 LINE",
"604 135 LINE",
"508 335 LINE",
"262 743 LINE",
"84 743 LINE",
"84 0 LINE",
"258 0 LINE"
);
}
);
width = 796;
},
{
layerId = "247DB4A4-D150-4133-9396-DC38172DD635";
paths = (
{
closed = 1;
nodes = (
"208.822 447.511 LINE",
"196.911 667.956 LINE",
"150.978 667.956 LINE",
"260.8 466.867 LINE",
"558.911 19.689 LINE",
"558.911 -48.311 OFFCURVE",
"455.689 -124.244 OFFCURVE",
"372.689 -148.244 CURVE",
"400.933 -201.022 LINE",
"508.911 -189.267 OFFCURVE",
"642.311 -111.089 OFFCURVE",
"670.022 18.178 CURVE SMOOTH",
"684.733 84.822 OFFCURVE",
"682.556 160.622 OFFCURVE",
"682.556 251.8 CURVE SMOOTH",
"682.556 743 LINE",
"567.2 743 LINE",
"567.2 283.556 LINE",
"581.156 77.444 LINE",
"617.844 77.444 LINE",
"521.8 258.311 LINE",
"202.533 743 LINE",
"93.467 743 LINE",
"94.467 0 LINE",
"208.822 0 LINE"
);
}
);
width = 776.2;
}
);
leftKerningGroup = H;
rightKerningGroup = H;
unicode = 014A;
},
{
color = 4;
glyphname = O;
lastChange = "2019-04-01 02:57:17 +0000";
layers = (
{
anchors = (
{
name = bottom;
position = "{380, 0}";
},
{
name = btm;
position = "{380, -83}";
},
{
name = center;
position = "{380, 372}";
},
{
name = ogonek;
position = "{485, 10}";
},
{
name = top;
position = "{391, 830}";
},
{
name = topleft;
position = "{16, 743}";
},
{
name = topright;
position = "{490, 721}";
}
);
layerId = "8BC678DE-46B6-4C98-A96E-C0ED61786D32";
paths = (
{
closed = 1;
nodes = (
"565 -4 OFFCURVE",
"704 126 OFFCURVE",
"709 373 CURVE SMOOTH",
"714 601 OFFCURVE",
"588 752 OFFCURVE",
"392 751 CURVE SMOOTH",
"204 750 OFFCURVE",
"55 623 OFFCURVE",
"50 375 CURVE SMOOTH",
"46 151 OFFCURVE",
"172 -12 OFFCURVE",
"377 -8 CURVE SMOOTH"
);
},
{
closed = 1;
nodes = (
"217 55 OFFCURVE",
"133 200 OFFCURVE",
"134 370 CURVE SMOOTH",
"135 582 OFFCURVE",
"246 687 OFFCURVE",
"389 688 CURVE SMOOTH",
"545 689 OFFCURVE",
"626 548 OFFCURVE",
"626 377 CURVE SMOOTH",
"624 169 OFFCURVE",
"526 57 OFFCURVE",
"379 56 CURVE SMOOTH"
);
}
);
width = 759;
},
{
anchors = (
{
name = bottom;
position = "{389, 0}";
},
{
name = btm;
position = "{387, -83}";
},
{
name = center;
position = "{389, 372}";
},
{
name = ogonek;
position = "{496, 10}";
},
{
name = top;
position = "{395, 830}";
},
{
name = topleft;
position = "{17, 743}";
},
{
name = topright;
position = "{511, 721}";
}
);
layerId = "23A20576-2241-481A-AD5B-28E85381F753";
paths = (
{
closed = 1;
nodes = (
"589 -4 OFFCURVE",
"729 109 OFFCURVE",
"734 373 CURVE SMOOTH",
"738 608 OFFCURVE",
"611 757 OFFCURVE",
"400 751 CURVE SMOOTH",
"194 745 OFFCURVE",
"47 639 OFFCURVE",
"42 375 CURVE SMOOTH",
"38 139 OFFCURVE",
"166 -12 OFFCURVE",
"386 -8 CURVE SMOOTH"
);
},
{
closed = 1;
nodes = (
"284 126 OFFCURVE",
"232 228 OFFCURVE",
"232 370 CURVE SMOOTH",
"232 554 OFFCURVE",
"306 613 OFFCURVE",
"397 613 CURVE SMOOTH",
"497 613 OFFCURVE",
"544 518 OFFCURVE",
"544 378 CURVE SMOOTH",
"544 197 OFFCURVE",
"485 126 OFFCURVE",
"389 126 CURVE SMOOTH"
);
}
);
width = 776;
},
{
anchors = (
{
name = bottom;
position = "{382, 0}";
},
{
name = btm;
position = "{381, -83}";
},
{
name = center;
position = "{382, 372}";
},
{
name = ogonek;
position = "{477, 10}";
},
{
name = top;
position = "{394, 830}";
},
{
name = topleft;
position = "{18, 743}";
},
{
name = topright;
position = "{512, 721}";
}
);
layerId = "247DB4A4-D150-4133-9396-DC38172DD635";
paths = (
{
closed = 1;
nodes = (
"570 -4 OFFCURVE",
"712 123 OFFCURVE",
"717 372 CURVE SMOOTH",
"722 602 OFFCURVE",
"592 752 OFFCURVE",
"394 751 CURVE SMOOTH",
"203 750 OFFCURVE",
"52 626 OFFCURVE",
"47 377 CURVE SMOOTH",
"42 151 OFFCURVE",
"172 -12 OFFCURVE",
"379 -8 CURVE SMOOTH"
);
},
{
closed = 1;
nodes = (
"239 82 OFFCURVE",
"166 217 OFFCURVE",
"166 370 CURVE SMOOTH",
"166 572 OFFCURVE",
"269 662 OFFCURVE",
"390 662 CURVE SMOOTH",
"528 662 OFFCURVE",
"598 531 OFFCURVE",
"598 377 CURVE SMOOTH",
"598 183 OFFCURVE",
"514 82 OFFCURVE",
"382 82 CURVE SMOOTH"
);
}
);
width = 764;
}
);
leftKerningGroup = O;
rightKerningGroup = O;
unicode = 004F;
},
{
color = 4;
glyphname = Oslash;
lastChange = "2019-02-18 20:30:01 +0000";
layers = (
{
anchors = (
{
name = bottom;
position = "{384, 0}";
},
{
name = top;
position = "{376, 830}";
}
);
layerId = "8BC678DE-46B6-4C98-A96E-C0ED61786D32";
paths = (
{
closed = 1;
nodes = (
"639 831 LINE",
"594 845 LINE",
"131 -82 LINE",
"176 -95 LINE"
);
},
{
closed = 1;
nodes = (
"569 -4 OFFCURVE",
"708 126 OFFCURVE",
"713 373 CURVE SMOOTH",
"718 601 OFFCURVE",
"592 752 OFFCURVE",
"396 751 CURVE SMOOTH",
"208 750 OFFCURVE",
"59 623 OFFCURVE",
"54 375 CURVE SMOOTH",
"50 151 OFFCURVE",
"176 -12 OFFCURVE",
"381 -8 CURVE SMOOTH"
);
},
{
closed = 1;
nodes = (
"221 55 OFFCURVE",
"137 200 OFFCURVE",
"138 370 CURVE SMOOTH",
"139 582 OFFCURVE",
"250 687 OFFCURVE",
"393 688 CURVE SMOOTH",
"549 689 OFFCURVE",
"630 548 OFFCURVE",
"630 377 CURVE SMOOTH",
"628 169 OFFCURVE",
"530 57 OFFCURVE",
"383 56 CURVE SMOOTH"
);
}
);
width = 768;
},
{
anchors = (
{
name = bottom;
position = "{392, 0}";
},
{
name = top;
position = "{382, 830}";
}
);
layerId = "23A20576-2241-481A-AD5B-28E85381F753";
paths = (
{
closed = 1;
nodes = (
"672 871 LINE",
"608 884 LINE",
"115 -102 LINE",
"179 -114 LINE"
);
},
{
closed = 1;
nodes = (
"592 -4 OFFCURVE",
"732 109 OFFCURVE",
"737 373 CURVE SMOOTH",
"741 608 OFFCURVE",
"614 757 OFFCURVE",
"403 751 CURVE SMOOTH",
"197 745 OFFCURVE",
"50 639 OFFCURVE",
"45 375 CURVE SMOOTH",
"41 139 OFFCURVE",
"169 -12 OFFCURVE",
"389 -8 CURVE SMOOTH"
);
},
{
closed = 1;
nodes = (
"288 128 OFFCURVE",
"237 229 OFFCURVE",
"237 370 CURVE SMOOTH",
"237 552 OFFCURVE",
"310 611 OFFCURVE",
"400 611 CURVE SMOOTH",
"499 611 OFFCURVE",
"545 517 OFFCURVE",
"545 378 CURVE SMOOTH",
"545 199 OFFCURVE",
"487 128 OFFCURVE",
"392 128 CURVE SMOOTH"
);
}
);
width = 783;
},
{
anchors = (
{
name = bottom;
position = "{384.244, 0}";
},
{
name = top;
position = "{376.244, 830}";
}
);
layerId = "247DB4A4-D150-4133-9396-DC38172DD635";
paths = (
{
closed = 1;
nodes = (
"647.844 835.089 LINE",
"589.844 852.733 LINE",
"121.111 -82.133 LINE",
"179.289 -99.6 LINE"
);
},
{
closed = 1;
nodes = (
"572.489 -4 OFFCURVE",
"714.489 122.578 OFFCURVE",
"719.489 372.178 CURVE SMOOTH",
"724.311 602 OFFCURVE",
"594.489 752.067 OFFCURVE",
"396.067 751 CURVE SMOOTH",
"204.933 749.933 OFFCURVE",
"53.822 626.422 OFFCURVE",
"48.822 376.644 CURVE SMOOTH",
"43.822 151.111 OFFCURVE",
"173.644 -12 OFFCURVE",
"381.067 -8 CURVE SMOOTH"
);
},
{
closed = 1;
nodes = (
"240.867 81.689 OFFCURVE",
"167.711 217.422 OFFCURVE",
"167.711 370 CURVE SMOOTH",
"167.711 571.689 OFFCURVE",
"270.978 661.778 OFFCURVE",
"392.067 661.778 CURVE SMOOTH",
"530.444 661.778 OFFCURVE",
"600.422 531.222 OFFCURVE",
"600.422 377 CURVE SMOOTH",
"600.422 182.778 OFFCURVE",
"515.622 81.689 OFFCURVE",
"384.244 81.689 CURVE SMOOTH"
);
}
);
width = 768.31111;
}
);
leftKerningGroup = O;
rightKerningGroup = O;
unicode = 00D8;
},
{
color = 4;
glyphname = OE;
lastChange = "2019-02-18 20:30:01 +0000";
layers = (
{
anchors = (
{
name = bottom;
position = "{502, 0}";
},
{
name = btm;
position = "{519, -83}";
},
{
name = top;
position = "{530, 830}";
}
);
layerId = "8BC678DE-46B6-4C98-A96E-C0ED61786D32";
paths = (
{
closed = 1;
nodes = (
"49 151 OFFCURVE",
"179 -12 OFFCURVE",
"384 -8 CURVE SMOOTH",
"461 -6 OFFCURVE",
"514 17 OFFCURVE",
"563 58 CURVE",
"563 138 LINE",
"532 94 OFFCURVE",
"471 55 OFFCURVE",
"387 55 CURVE SMOOTH",
"222 55 OFFCURVE",
"137 200 OFFCURVE",
"137 369 CURVE SMOOTH",
"137 591 OFFCURVE",
"266 688 OFFCURVE",
"396 688 CURVE SMOOTH",
"480 688 OFFCURVE",
"535 656 OFFCURVE",
"564 615 CURVE",
"557 704 LINE",
"512 740 OFFCURVE",
"450 752 OFFCURVE",
"398 751 CURVE SMOOTH",
"202 745 OFFCURVE",
"58 619 OFFCURVE",
"54 373 CURVE SMOOTH"
);
},
{
closed = 1;
nodes = (
"972 0 LINE",
"972 65 LINE",
"617 65 LINE",
"617 352 LINE",
"854 352 LINE",
"854 416 LINE",
"617 416 LINE",
"617 679 LINE",
"936 679 LINE",
"936 743 LINE",
"534 743 LINE",
"534 0 LINE"
);
}
);
width = 1004;
},
{
anchors = (
{
name = bottom;
position = "{527, 0}";
},
{
name = btm;
position = "{520, -83}";
},
{
name = top;
position = "{520, 830}";
}
);
layerId = "23A20576-2241-481A-AD5B-28E85381F753";
paths = (
{
closed = 1;
nodes = (
"43 149 OFFCURVE",
"165 -9 OFFCURVE",
"377 -8 CURVE SMOOTH",
"455 -7 OFFCURVE",
"510 16 OFFCURVE",
"537 44 CURVE",
"529 217 LINE",
"508 152 OFFCURVE",
"464 132 OFFCURVE",
"395 132 CURVE SMOOTH",
"296 132 OFFCURVE",
"238 213 OFFCURVE",
"238 370 CURVE SMOOTH",
"238 578 OFFCURVE",
"334 607 OFFCURVE",
"407 607 CURVE SMOOTH",
"471 607 OFFCURVE",
"509 572 OFFCURVE",
"528 529 CURVE",
"536 704 LINE",
"510 732 OFFCURVE",
"464 751 OFFCURVE",
"396 751 CURVE SMOOTH",
"205 750 OFFCURVE",
"52 632 OFFCURVE",
"47 375 CURVE SMOOTH"
);
},
{
closed = 1;
nodes = (
"1009 0 LINE",
"1009 142 LINE",
"697 142 LINE",
"697 313 LINE",
"909 313 LINE",
"909 449 LINE",
"697 449 LINE",
"697 604 LINE",
"980 604 LINE",
"980 743 LINE",
"513 743 LINE",
"513 0 LINE"
);
}
);
width = 1053;
},
{
anchors = (
{
name = bottom;
position = "{507.022, 0}";
},
{
name = btm;
position = "{517.067, -83}";
},
{
name = top;
position = "{517.067, 830}";
}
);
layerId = "247DB4A4-D150-4133-9396-DC38172DD635";
paths = (
{
closed = 1;
nodes = (
"44.533 153 OFFCURVE",
"173 -11.467 OFFCURVE",
"379.422 -8 CURVE SMOOTH",
"453.644 -6.178 OFFCURVE",
"502.133 14.756 OFFCURVE",
"546.178 48.111 CURVE",
"543.756 159.467 LINE",
"507.356 104.333 OFFCURVE",
"453.6 80.044 OFFCURVE",
"384.778 80.044 CURVE SMOOTH",
"242.111 80.044 OFFCURVE",
"167.244 213 OFFCURVE",
"167.244 370 CURVE SMOOTH",
"167.244 578 OFFCURVE",
"276.111 661.778 OFFCURVE",
"392.6 661.778 CURVE SMOOTH",
"465.133 661.778 OFFCURVE",
"512.822 636.511 OFFCURVE",
"545.867 592.467 CURVE",
"539.778 713.044 LINE",
"498.556 743.578 OFFCURVE",
"440.8 751.822 OFFCURVE",
"394.244 751 CURVE SMOOTH",
"195.311 744.889 OFFCURVE",
"54.533 621 OFFCURVE",
"49.533 375 CURVE SMOOTH"
);
},
{
closed = 1;
nodes = (
"976.156 0 LINE",
"976.156 91.756 LINE",
"626.422 91.756 LINE",
"626.422 337.978 LINE",
"857.933 337.978 LINE",
"857.933 427.844 LINE",
"626.422 427.844 LINE",
"626.422 652.778 LINE",
"941.689 652.778 LINE",
"941.689 743 LINE",
"509.244 743 LINE",
"509.244 0 LINE"
);
}
);
width = 1013.22222;
}
);
leftKerningGroup = O;
rightKerningGroup = E;
unicode = 0152;
},
{
color = 4;
glyphname = P;
lastChange = "2019-03-31 03:56:05 +0000";
layers = (
{
anchors = (
{
name = bottom;
position = "{306, 0}";
},
{
name = btm;
position = "{336, -83}";
},
{
name = top;
position = "{324, 830}";
}
);
layerId = "8BC678DE-46B6-4C98-A96E-C0ED61786D32";
paths = (
{
closed = 1;
nodes = (
"176 0 LINE",
"176 261 LINE",
"196 261 OFFCURVE",
"244 257 OFFCURVE",
"297 257 CURVE SMOOTH",
"469 258 OFFCURVE",
"576 349 OFFCURVE",
"576 510 CURVE SMOOTH",
"576 684 OFFCURVE",
"475 750 OFFCURVE",
"318 750 CURVE SMOOTH",
"253 750 OFFCURVE",
"189 743 OFFCURVE",
"134 743 CURVE SMOOTH",
"94 743 LINE",
"94 0 LINE"
);
},
{
closed = 1;
nodes = (
"176 683 LINE",
"211 688 OFFCURVE",
"256 689 OFFCURVE",
"294 690 CURVE SMOOTH",
"427 693 OFFCURVE",
"493 640 OFFCURVE",
"493 510 CURVE SMOOTH",
"493 368 OFFCURVE",
"405 320 OFFCURVE",
"292 318 CURVE SMOOTH",
"262 318 OFFCURVE",
"206 320 OFFCURVE",
"176 324 CURVE"
);
}
);
width = 618;
},
{
anchors = (
{
name = bottom;
position = "{336, 0}";
},
{
name = btm;
position = "{339, -83}";
},
{
name = top;
position = "{371, 831}";
}
);
layerId = "23A20576-2241-481A-AD5B-28E85381F753";
paths = (
{
closed = 1;
nodes = (
"267 0 LINE",
"267 215 LINE",
"283 215 OFFCURVE",
"304 214 OFFCURVE",
"343 214 CURVE SMOOTH",
"541 214 OFFCURVE",
"648 313 OFFCURVE",
"648 489 CURVE SMOOTH",
"648 682 OFFCURVE",
"541 751 OFFCURVE",
"362 751 CURVE SMOOTH",
"288 751 OFFCURVE",
"221 743 OFFCURVE",
"153 743 CURVE SMOOTH",
"80 743 LINE",
"80 0 LINE"
);
},
{
closed = 1;
nodes = (
"267 616 LINE",
"288 619 OFFCURVE",
"316 621 OFFCURVE",
"339 621 CURVE SMOOTH",
"426 624 OFFCURVE",
"466 570 OFFCURVE",
"466 490 CURVE SMOOTH",
"466 386 OFFCURVE",
"413 348 OFFCURVE",
"343 348 CURVE SMOOTH",
"312 348 OFFCURVE",
"288 350 OFFCURVE",
"267 352 CURVE"
);
}
);
width = 676;
},
{
anchors = (
{
name = bottom;
position = "{308, 0}";
},
{
name = btm;
position = "{333, -83}";
},
{
name = top;
position = "{337, 830}";
}
);
layerId = "247DB4A4-D150-4133-9396-DC38172DD635";
paths = (
{
closed = 1;
nodes = (
"206 0 LINE",
"206 251 LINE",
"224 251 OFFCURVE",
"253 250 OFFCURVE",
"300 250 CURVE SMOOTH",
"486 250 OFFCURVE",
"586 345 OFFCURVE",
"586 507 CURVE SMOOTH",
"586 679 OFFCURVE",
"487 751 OFFCURVE",
"325 751 CURVE SMOOTH",
"258 751 OFFCURVE",
"200 743 OFFCURVE",
"139 743 CURVE SMOOTH",
"88 743 LINE",
"88 0 LINE"
);
},
{
closed = 1;
nodes = (
"206 658 LINE",
"232 664 OFFCURVE",
"263 666 OFFCURVE",
"292 667 CURVE SMOOTH",
"407 671 OFFCURVE",
"470 621 OFFCURVE",
"470 507 CURVE SMOOTH",
"470 365 OFFCURVE",
"386 336 OFFCURVE",
"293 336 CURVE SMOOTH",
"266 336 OFFCURVE",
"236 337 OFFCURVE",
"206 341 CURVE"
);
}
);
width = 622;
}
);
leftKerningGroup = H;
leftMetricsKey = H;
rightKerningGroup = P;
unicode = 0050;
},
{
color = 4;
glyphname = Thorn;
lastChange = "2019-03-31 03:56:05 +0000";
layers = (
{
anchors = (
{
name = bottom;
position = "{303, 0}";
},
{
name = top;
position = "{303, 743}";
}
);
layerId = "8BC678DE-46B6-4C98-A96E-C0ED61786D32";
paths = (
{
closed = 1;
nodes = (
"467 143 OFFCURVE",
"572 225 OFFCURVE",
"572 387 CURVE SMOOTH",
"572 542 OFFCURVE",
"475 609 OFFCURVE",
"319 609 CURVE SMOOTH",
"261 609 OFFCURVE",
"189 600 OFFCURVE",
"142 599 CURVE",
"170 538 LINE",
"200 544 OFFCURVE",
"255 549 OFFCURVE",
"292 550 CURVE SMOOTH",
"423 552 OFFCURVE",
"489 500 OFFCURVE",
"489 386 CURVE SMOOTH",
"489 247 OFFCURVE",
"406 203 OFFCURVE",
"286 203 CURVE SMOOTH",
"253 203 OFFCURVE",
"203 206 OFFCURVE",
"170 210 CURVE",
"170 149 LINE",
"190 148 OFFCURVE",
"243 143 OFFCURVE",
"294 143 CURVE SMOOTH"
);
},
{
closed = 1;
nodes = (
"176 0 LINE",
"176 743 LINE",
"94 743 LINE",
"94 0 LINE"
);
}
);
width = 613;
},
{
anchors = (
{
name = bottom;
position = "{336, 0}";
},
{
name = top;
position = "{336, 743}";
}
);
layerId = "23A20576-2241-481A-AD5B-28E85381F753";
paths = (
{
closed = 1;
nodes = (
"551 115 OFFCURVE",
"647 221 OFFCURVE",
"647 393 CURVE SMOOTH",
"647 551 OFFCURVE",
"549 634 OFFCURVE",
"386 634 CURVE SMOOTH",
"339 634 OFFCURVE",
"288 629 OFFCURVE",
"249 627 CURVE",
"260 490 LINE",
"283 496 OFFCURVE",
"306 499 OFFCURVE",
"333 499 CURVE SMOOTH",
"421 501 OFFCURVE",
"464 457 OFFCURVE",
"464 386 CURVE SMOOTH",
"464 275 OFFCURVE",
"405 246 OFFCURVE",
"333 246 CURVE SMOOTH",
"311 246 OFFCURVE",
"287 246 OFFCURVE",
"261 251 CURVE",
"261 120 LINE",
"280 118 OFFCURVE",
"321 115 OFFCURVE",
"374 115 CURVE SMOOTH"
);
},
{
closed = 1;
nodes = (
"267 0 LINE",
"267 743 LINE",
"80 743 LINE",
"80 0 LINE"
);
}
);
width = 676;
},
{
anchors = (
{
name = bottom;
position = "{306, 0}";
},
{
name = top;
position = "{306, 743}";
}
);
layerId = "247DB4A4-D150-4133-9396-DC38172DD635";
paths = (
{
closed = 1;
nodes = (
"481 137 OFFCURVE",
"580 229 OFFCURVE",
"580 388 CURVE SMOOTH",
"580 544 OFFCURVE",
"487 617 OFFCURVE",
"320 617 CURVE SMOOTH",
"262 617 OFFCURVE",
"208 610 OFFCURVE",
"164 609 CURVE",
"198 521 LINE",
"223 529 OFFCURVE",
"254 531 OFFCURVE",
"282 532 CURVE SMOOTH",
"404 536 OFFCURVE",
"464 490 OFFCURVE",
"464 387 CURVE SMOOTH",
"464 248 OFFCURVE",
"379 223 OFFCURVE",
"284 223 CURVE SMOOTH",
"258 223 OFFCURVE",
"230 223 OFFCURVE",
"198 229 CURVE",
"198 141 LINE",
"217 141 OFFCURVE",
"248 137 OFFCURVE",
"296 137 CURVE SMOOTH"
);
},
{
closed = 1;
nodes = (
"206 0 LINE",
"206 743 LINE",
"88 743 LINE",
"88 0 LINE"
);
}
);
width = 619;
}
);
leftKerningGroup = H;
leftMetricsKey = H;
rightKerningGroup = D;
unicode = 00DE;
},
{
color = 4;
glyphname = Q;
lastChange = "2019-03-29 14:28:41 +0000";
layers = (
{
anchors = (
{
name = bottom;
position = "{384, 0}";
},
{
name = btm;
position = "{385, -83}";
},
{
name = top;
position = "{391, 816}";
}
);
components = (
{
name = O;
}
);
layerId = "8BC678DE-46B6-4C98-A96E-C0ED61786D32";
paths = (
{
closed = 1;
nodes = (
"647 -140 OFFCURVE",
"662 -132 OFFCURVE",
"677 -122 CURVE",
"677 -62 LINE",
"656 -70 OFFCURVE",
"636 -73 OFFCURVE",
"610 -73 CURVE SMOOTH",
"522 -73 OFFCURVE",
"493 -37 OFFCURVE",
"454 25 CURVE",
"415 25 LINE",
"378 11 LINE",
"459 -110 OFFCURVE",
"504 -140 OFFCURVE",
"611 -140 CURVE SMOOTH"
);
}
);
width = 767;
},
{
anchors = (
{
name = bottom;
position = "{392, 0}";
},
{
name = btm;
position = "{392, -83}";
},
{
name = top;
position = "{392, 830}";
}
);
components = (
{
name = O;
}
);
layerId = "23A20576-2241-481A-AD5B-28E85381F753";
paths = (
{
closed = 1;
nodes = (
"643 -173 OFFCURVE",
"676 -160 OFFCURVE",
"694 -151 CURVE",
"694 -26 LINE",
"674 -33 OFFCURVE",
"645 -40 OFFCURVE",
"617 -40 CURVE SMOOTH",
"526 -40 OFFCURVE",
"493 -32 OFFCURVE",
"476 27 CURVE",
"425 27 LINE",
"336 4 LINE",
"373 -127 OFFCURVE",
"431 -173 OFFCURVE",
"596 -173 CURVE SMOOTH"
);
}
);
width = 783;
},
{
anchors = (
{
name = bottom;
position = "{384.244, 0}";
},
{
name = btm;
position = "{384.067, -83}";
},
{
name = top;
position = "{384.067, 830}";
}
);
components = (
{
alignment = -1;
name = O;
}
);
layerId = "247DB4A4-D150-4133-9396-DC38172DD635";
paths = (
{
closed = 1;
nodes = (
"637.778 -146.667 OFFCURVE",
"658.333 -135.956 OFFCURVE",
"673.156 -125.778 CURVE",
"673.156 -42.622 LINE",
"650.156 -50.622 OFFCURVE",
"626.911 -52.333 OFFCURVE",
"601.556 -52.333 CURVE SMOOTH",
"522.644 -52.333 OFFCURVE",
"495.222 -30.889 OFFCURVE",
"459.778 33 CURVE",
"408.311 33 LINE",
"355.689 14.222 LINE",
"432.444 -115.422 OFFCURVE",
"482.067 -146.667 OFFCURVE",
"598.356 -146.667 CURVE SMOOTH"
);
}
);
width = 768.31111;
}
);
leftKerningGroup = O;
rightKerningGroup = Q;
unicode = 0051;
},
{
color = 4;
glyphname = R;
lastChange = "2019-03-31 03:56:05 +0000";
layers = (
{
anchors = (
{
name = bottom;
position = "{325, 0}";
},
{
name = btm;
position = "{329, -83}";
},
{
name = top;
position = "{306, 830}";
}
);
layerId = "8BC678DE-46B6-4C98-A96E-C0ED61786D32";
paths = (
{
closed = 1;
nodes = (
"176 324 LINE",
"274 323 OFFCURVE",
"334 322 OFFCURVE",
"382 329 CURVE SMOOTH",
"495 344 OFFCURVE",
"573 417 OFFCURVE",
"573 545 CURVE SMOOTH",
"573 696 OFFCURVE",
"469 750 OFFCURVE",
"318 750 CURVE SMOOTH",
"254 750 OFFCURVE",
"189 744 OFFCURVE",
"142 744 CURVE SMOOTH",
"137 744 OFFCURVE",
"94 743 OFFCURVE",
"94 743 CURVE",
"94 0 LINE",
"176 0 LINE"
);
},
{
closed = 1;
nodes = (
"176 681 LINE",
"206 687 OFFCURVE",
"261 689 OFFCURVE",
"305 689 CURVE SMOOTH",
"432 689 OFFCURVE",
"489 647 OFFCURVE",
"489 541 CURVE SMOOTH",
"488 433 OFFCURVE",
"419 380 OFFCURVE",
"315 379 CURVE SMOOTH",
"286 379 OFFCURVE",
"200 380 OFFCURVE",
"176 382 CURVE"
);
},
{
closed = 1;
nodes = (
"625 0 LINE",
"616 14 OFFCURVE",
"607 31 OFFCURVE",
"597 50 CURVE SMOOTH",
"544 145 OFFCURVE",
"487 319 OFFCURVE",
"404 345 CURVE",
"354 351 LINE",
"320 326 LINE",
"407 314 OFFCURVE",
"461 140 OFFCURVE",
"505 50 CURVE SMOOTH",
"518 21 OFFCURVE",
"523 10 OFFCURVE",
"531 0 CURVE"
);
}
);
width = 657;
},
{
anchors = (
{
name = bottom;
position = "{355, 0}";
},
{
name = btm;
position = "{362, -83}";
},
{
name = top;
position = "{343, 830}";
}
);
layerId = "23A20576-2241-481A-AD5B-28E85381F753";
paths = (
{
closed = 1;
nodes = (
"266 263 LINE",
"382 263 OFFCURVE",
"408 271 OFFCURVE",
"447 278 CURVE SMOOTH",
"564 296 OFFCURVE",
"645 363 OFFCURVE",
"645 515 CURVE SMOOTH",
"645 702 OFFCURVE",
"499 751 OFFCURVE",
"368 751 CURVE SMOOTH",
"262 751 OFFCURVE",
"197 743 OFFCURVE",
"144 743 CURVE SMOOTH",
"123 743 OFFCURVE",
"101 743 OFFCURVE",
"80 743 CURVE",
"80 0 LINE",
"266 0 LINE"
);
},
{
closed = 1;
nodes = (
"266 611 LINE",
"289 617 OFFCURVE",
"318 620 OFFCURVE",
"345 620 CURVE SMOOTH",
"443 620 OFFCURVE",
"466 567 OFFCURVE",
"466 512 CURVE SMOOTH",
"466 443 OFFCURVE",
"433 388 OFFCURVE",
"357 388 CURVE SMOOTH",
"333 388 OFFCURVE",
"286 389 OFFCURVE",
"266 392 CURVE"
);
},
{
closed = 1;
nodes = (
"695 0 LINE",
"685 18 OFFCURVE",
"674 36 OFFCURVE",
"664 54 CURVE SMOOTH",
"608 151 OFFCURVE",
"580 281 OFFCURVE",
"505 315 CURVE",
"387 299 LINE",
"344 265 LINE",
"406 264 OFFCURVE",
"423 142 OFFCURVE",
"463 53 CURVE SMOOTH",
"477 21 OFFCURVE",
"482 10 OFFCURVE",
"490 0 CURVE"
);
}
);
width = 714;
},
{
anchors = (
{
name = bottom;
position = "{331, 0}";
},
{
name = btm;
position = "{334, -83}";
},
{
name = top;
position = "{315, 830}";
}
);
layerId = "247DB4A4-D150-4133-9396-DC38172DD635";
paths = (
{
closed = 1;
nodes = (
"206 310 LINE",
"326 310 OFFCURVE",
"359 312 OFFCURVE",
"400 318 CURVE SMOOTH",
"515 336 OFFCURVE",
"586 405 OFFCURVE",
"586 539 CURVE SMOOTH",
"586 692 OFFCURVE",
"480 751 OFFCURVE",
"331 751 CURVE SMOOTH",
"253 751 OFFCURVE",
"187 743 OFFCURVE",
"140 743 CURVE SMOOTH",
"122 743 OFFCURVE",
"106 743 OFFCURVE",
"88 743 CURVE",
"88 0 LINE",
"206 0 LINE"
);
},
{
closed = 1;
nodes = (
"206 656 LINE",
"236 662 OFFCURVE",
"275 665 OFFCURVE",
"314 665 CURVE SMOOTH",
"429 665 OFFCURVE",
"468 620 OFFCURVE",
"468 534 CURVE SMOOTH",
"468 437 OFFCURVE",
"414 391 OFFCURVE",
"318 391 CURVE SMOOTH",
"292 391 OFFCURVE",
"227 391 OFFCURVE",
"206 394 CURVE"
);
},
{
closed = 1;
nodes = (
"638 0 LINE",
"628 18 OFFCURVE",
"618 36 OFFCURVE",
"608 55 CURVE SMOOTH",
"555 151 OFFCURVE",
"515 308 OFFCURVE",
"436 342 CURVE",
"366 348 LINE",
"321 313 LINE",
"404 301 OFFCURVE",
"438 144 OFFCURVE",
"479 55 CURVE SMOOTH",
"494 23 OFFCURVE",
"497 13 OFFCURVE",
"506 0 CURVE"
);
}
);
width = 667;
}
);
leftKerningGroup = H;
leftMetricsKey = H;
rightKerningGroup = R;
unicode = 0052;
},
{
color = 4;
glyphname = S;
lastChange = "2019-04-01 03:07:51 +0000";
layers = (
{
anchors = (
{
name = bottom;
position = "{282, 0}";
},
{
name = btm;
position = "{284, -83}";
},
{
name = top;
position = "{302, 830}";
}
);
layerId = "8BC678DE-46B6-4C98-A96E-C0ED61786D32";
paths = (
{
closed = 1;
nodes = (
"421 -8 OFFCURVE",
"521 57 OFFCURVE",
"521 188 CURVE SMOOTH",
"521 306 OFFCURVE",
"411 362 OFFCURVE",
"312 409 CURVE SMOOTH",
"207 460 OFFCURVE",
"147 495 OFFCURVE",
"147 578 CURVE SMOOTH",
"147 652 OFFCURVE",
"229 686 OFFCURVE",
"308 686 CURVE SMOOTH",
"384 686 OFFCURVE",
"431 669 OFFCURVE",
"467 646 CURVE",
"484 711 LINE",
"458 729 OFFCURVE",
"402 751 OFFCURVE",
"308 751 CURVE SMOOTH",
"195 751 OFFCURVE",
"68 704 OFFCURVE",
"68 567 CURVE SMOOTH",
"68 458 OFFCURVE",
"166 389 OFFCURVE",
"263 345 CURVE SMOOTH",
"367 297 OFFCURVE",
"440 264 OFFCURVE",
"440 179 CURVE SMOOTH",
"440 97 OFFCURVE",
"375 58 OFFCURVE",
"272 58 CURVE SMOOTH",
"202 58 OFFCURVE",
"126 80 OFFCURVE",
"86 104 CURVE",
"66 36 LINE",
"93 18 OFFCURVE",
"180 -8 OFFCURVE",
"277 -8 CURVE SMOOTH"
);
}
);
width = 571;
},
{
anchors = (
{
name = bottom;
position = "{292, 0}";
},
{
name = btm;
position = "{288, -83}";
},
{
name = top;
position = "{316, 830}";
}
);
layerId = "23A20576-2241-481A-AD5B-28E85381F753";
paths = (
{
closed = 1;
nodes = (
"465 -8 OFFCURVE",
"561 79 OFFCURVE",
"561 212 CURVE SMOOTH",
"561 329 OFFCURVE",
"485 386 OFFCURVE",
"357 443 CURVE SMOOTH",
"267 484 OFFCURVE",
"229 509 OFFCURVE",
"229 554 CURVE SMOOTH",
"229 591 OFFCURVE",
"261 616 OFFCURVE",
"331 616 CURVE SMOOTH",
"396 616 OFFCURVE",
"466 592 OFFCURVE",
"496 569 CURVE",
"525 708 LINE",
"498 724 OFFCURVE",
"427 751 OFFCURVE",
"315 751 CURVE SMOOTH",
"158 751 OFFCURVE",
"50 683 OFFCURVE",
"50 547 CURVE SMOOTH",
"50 428 OFFCURVE",
"130 362 OFFCURVE",
"224 317 CURVE SMOOTH",
"335 264 OFFCURVE",
"375 246 OFFCURVE",
"375 198 CURVE SMOOTH",
"375 154 OFFCURVE",
"345 135 OFFCURVE",
"275 135 CURVE SMOOTH",
"197 135 OFFCURVE",
"115 162 OFFCURVE",
"78 183 CURVE",
"55 38 LINE",
"84 20 OFFCURVE",
"184 -8 OFFCURVE",
"290 -8 CURVE SMOOTH"
);
}
);
width = 599;
},
{
anchors = (
{
name = bottom;
position = "{280.2, 0}";
},
{
name = btm;
position = "{276.911, -83}";
},
{
name = top;
position = "{298.089, 830}";
}
);
layerId = "247DB4A4-D150-4133-9396-DC38172DD635";
paths = (
{
closed = 1;
nodes = (
"422.689 -8 OFFCURVE",
"525.044 58.422 OFFCURVE",
"525.044 194.889 CURVE SMOOTH",
"525.044 312.6 OFFCURVE",
"418.956 372.178 OFFCURVE",
"319.4 423.489 CURVE SMOOTH",
"215.244 477.067 OFFCURVE",
"174.778 502.533 OFFCURVE",
"174.778 572.156 CURVE SMOOTH",
"174.778 632.778 OFFCURVE",
"238.311 660.489 OFFCURVE",
"311.444 660.489 CURVE SMOOTH",
"390.378 660.489 OFFCURVE",
"430.867 640.422 OFFCURVE",
"465.222 619.067 CURVE",
"487.756 711.289 LINE",
"461.756 728.289 OFFCURVE",
"402.089 751 OFFCURVE",
"311.378 751 CURVE SMOOTH",
"188 751 OFFCURVE",
"62.244 701.933 OFFCURVE",
"62.244 558.4 CURVE SMOOTH",
"62.244 448.733 OFFCURVE",
"156.778 377.8 OFFCURVE",
"247.889 333.156 CURVE SMOOTH",
"354.667 281.911 OFFCURVE",
"409.156 252.689 OFFCURVE",
"409.156 183.244 CURVE SMOOTH",
"409.156 113.689 OFFCURVE",
"359.311 85.222 OFFCURVE",
"268.267 85.222 CURVE SMOOTH",
"198.133 85.222 OFFCURVE",
"127.311 108.4 OFFCURVE",
"89.422 130.578 CURVE",
"64.956 35.178 LINE",
"91.311 18.178 OFFCURVE",
"177.8 -8 OFFCURVE",
"275.622 -8 CURVE SMOOTH"
);
}
);
width = 565;
}
);
leftKerningGroup = S;
rightKerningGroup = S;
unicode = 0053;
},
{
color = 4;
glyphname = Germandbls;
lastChange = "2019-02-18 20:30:01 +0000";
layers = (
{
anchors = (
{
name = bottom;
position = "{357, 0}";
},
{
name = top;
position = "{357, 743}";
}
);
layerId = "8BC678DE-46B6-4C98-A96E-C0ED61786D32";
paths = (
{
closed = 1;
nodes = (
"134 0 LINE",
"134 409 LINE SMOOTH",
"134 595 OFFCURVE",
"237 691 OFFCURVE",
"376 691 CURVE SMOOTH",
"438 691 OFFCURVE",
"481 675 OFFCURVE",
"508 655 CURVE",
"362 424 LINE",
"358 395 LINE",
"522 395 OFFCURVE",
"591 353 OFFCURVE",
"591 227 CURVE SMOOTH",
"591 120 OFFCURVE",
"521 52 OFFCURVE",
"431 52 CURVE SMOOTH",
"369 52 OFFCURVE",
"309 72 OFFCURVE",
"281 95 CURVE",
"251 31 LINE",
"289 8 OFFCURVE",
"336 -11 OFFCURVE",
"441 -11 CURVE SMOOTH",
"593 -11 OFFCURVE",
"669 104 OFFCURVE",
"669 227 CURVE SMOOTH {name = hr02;}",
"669 378 OFFCURVE",
"569 442 OFFCURVE",
"449 442 CURVE",
"603 672 LINE",
"604 706 LINE",
"554 706 OFFCURVE",
"507 751 OFFCURVE",
"375 751 CURVE SMOOTH",
"156 751 OFFCURVE",
"51 605 OFFCURVE",
"51 368 CURVE SMOOTH",
"51 0 LINE {name = hr01;}"
);
}
);
width = 714;
},
{
anchors = (
{
name = bottom;
position = "{373, 0}";
},
{
name = top;
position = "{373, 743}";
}
);
layerId = "23A20576-2241-481A-AD5B-28E85381F753";
paths = (
{
closed = 1;
nodes = (
"239 0 LINE",
"239 424 LINE SMOOTH",
"239 557 OFFCURVE",
"298 624 OFFCURVE",
"423 624 CURVE SMOOTH",
"464 624 OFFCURVE",
"494 617 OFFCURVE",
"513 607 CURVE",
"369 441 LINE",
"367 343 LINE",
"502 343 OFFCURVE",
"557 305 OFFCURVE",
"557 222 CURVE SMOOTH",
"557 145 OFFCURVE",
"500 116 OFFCURVE",
"451 116 CURVE SMOOTH",
"400 116 OFFCURVE",
"363 137 OFFCURVE",
"341 149 CURVE",
"297 27 LINE",
"333 9 OFFCURVE",
"382 -11 OFFCURVE",
"487 -11 CURVE SMOOTH",
"642 -11 OFFCURVE",
"750 83 OFFCURVE",
"750 237 CURVE SMOOTH",
"750 371 OFFCURVE",
"633 435 OFFCURVE",
"577 435 CURVE",
"699 554 LINE",
"699 704 LINE",
"649 704 OFFCURVE",
"553 751 OFFCURVE",
"420 751 CURVE SMOOTH",
"181 751 OFFCURVE",
"50 606 OFFCURVE",
"50 368 CURVE SMOOTH",
"50 0 LINE"
);
}
);
width = 745;
},
{
anchors = (
{
name = bottom;
position = "{366.067, 0}";
},
{
name = top;
position = "{366.067, 743}";
}
);
layerId = "247DB4A4-D150-4133-9396-DC38172DD635";
paths = (
{
closed = 1;
nodes = (
"172.422 0 LINE",
"172.422 424 LINE SMOOTH",
"172.422 587.556 OFFCURVE",
"270.089 665.133 OFFCURVE",
"395.911 665.133 CURVE SMOOTH",
"437.733 665.133 OFFCURVE",
"475.667 654.489 OFFCURVE",
"499.956 636.733 CURVE",
"374.289 427.133 LINE",
"369.644 379.667 LINE",
"526.444 379.667 OFFCURVE",
"579.8 338.2 OFFCURVE",
"579.8 225.467 CURVE SMOOTH",
"579.8 124.844 OFFCURVE",
"510.4 78.333 OFFCURVE",
"442.244 78.333 CURVE SMOOTH",
"390.422 78.333 OFFCURVE",
"332.267 98.511 OFFCURVE",
"309.444 120.267 CURVE",
"269.089 30.467 LINE",
"306.733 8 OFFCURVE",
"354.911 -11 OFFCURVE",
"459.089 -11 CURVE SMOOTH",
"614.089 -11 OFFCURVE",
"697.289 100.511 OFFCURVE",
"697.289 228.244 CURVE SMOOTH {name = hr02;}",
"697.289 376.289 OFFCURVE",
"601.622 446.222 OFFCURVE",
"503.489 446.222 CURVE",
"629.778 644.022 LINE",
"630.778 705.644 LINE",
"580.778 705.644 OFFCURVE",
"525.089 751 OFFCURVE",
"392.911 751 CURVE SMOOTH",
"163.489 751 OFFCURVE",
"50.822 605 OFFCURVE",
"50.822 368 CURVE SMOOTH",
"50.822 0 LINE {name = hr01;}"
);
}
);
width = 731.95556;
}
);
leftKerningGroup = S;
rightKerningGroup = S;
unicode = 1E9E;
},
{
color = 4;
glyphname = Schwa;
lastChange = "2019-03-31 03:55:52 +0000";
layers = (
{
anchors = (
{
name = bottom;
position = "{365, 0}";
},
{
name = btm;
position = "{357, -83}";
},
{
name = top;
position = "{353, 831}";
}
);
background = {
paths = (
{
closed = 1;
nodes = (
"678 620 OFFCURVE",
"526 751 OFFCURVE",
"334 751 CURVE SMOOTH",
"228 751 OFFCURVE",
"187 732 OFFCURVE",
"129 721 CURVE",
"132 647 LINE",
"174 666 OFFCURVE",
"235 686 OFFCURVE",
"339 686 CURVE SMOOTH",
"478 686 OFFCURVE",
"592 579 OFFCURVE",
"592 376 CURVE SMOOTH",
"592 190 OFFCURVE",
"503 56 OFFCURVE",
"341 56 CURVE SMOOTH",
"262 56 OFFCURVE",
"195 74 OFFCURVE",
"167 88 CURVE",
"167 317 LINE",
"144 301 LINE",
"321 307 LINE",
"321 366 LINE",
"87 366 LINE",
"87 44 LINE",
"128 42 OFFCURVE",
"190 -8 OFFCURVE",
"340 -8 CURVE SMOOTH",
"553 -8 OFFCURVE",
"678 152 OFFCURVE",
"678 366 CURVE SMOOTH"
);
}
);
};
layerId = "8BC678DE-46B6-4C98-A96E-C0ED61786D32";
paths = (
{
closed = 1;
nodes = (
"557 -8 OFFCURVE",
"678 140 OFFCURVE",
"678 372 CURVE SMOOTH",
"678 623 OFFCURVE",
"528 754 OFFCURVE",
"341 752 CURVE SMOOTH",
"231 751 OFFCURVE",
"142 709 OFFCURVE",
"88 652 CURVE",
"110 587 LINE",
"161 646 OFFCURVE",
"242 686 OFFCURVE",
"354 686 CURVE SMOOTH",
"489 686 OFFCURVE",
"595 579 OFFCURVE",
"595 376 CURVE SMOOTH",
"595 190 OFFCURVE",
"505 56 OFFCURVE",
"346 56 CURVE SMOOTH",
"192 56 OFFCURVE",
"126 190 OFFCURVE",
"132 313 CURVE",
"607 313 LINE",
"620 377 LINE",
"57 377 LINE",
"53 346 OFFCURVE",
"50 331 OFFCURVE",
"50 313 CURVE SMOOTH",
"50 86 OFFCURVE",
"198 -8 OFFCURVE",
"329 -8 CURVE SMOOTH"
);
}
);
width = 728;
},
{
anchors = (
{
name = bottom;
position = "{371, 0}";
},
{
name = btm;
position = "{358, -83}";
},
{
name = top;
position = "{354, 831}";
}
);
background = {
anchors = (
{
name = btm;
position = "{427, -83}";
},
{
name = top;
position = "{444, 831}";
}
);
paths = (
{
closed = 1;
nodes = (
"713 643 OFFCURVE",
"544 751 OFFCURVE",
"329 751 CURVE SMOOTH",
"220 751 OFFCURVE",
"172 732 OFFCURVE",
"115 722 CURVE",
"120 566 LINE",
"159 586 OFFCURVE",
"222 605 OFFCURVE",
"321 605 CURVE SMOOTH",
"450 605 OFFCURVE",
"524 521 OFFCURVE",
"524 381 CURVE SMOOTH",
"524 237 OFFCURVE",
"464 131 OFFCURVE",
"353 131 CURVE SMOOTH",
"301 131 OFFCURVE",
"269 137 OFFCURVE",
"245 146 CURVE",
"245 297 LINE",
"227 275 LINE",
"351 284 LINE",
"351 417 LINE",
"75 417 LINE",
"75 42 LINE",
"133 40 OFFCURVE",
"181 -8 OFFCURVE",
"350 -8 CURVE SMOOTH",
"571 -8 OFFCURVE",
"713 131 OFFCURVE",
"713 368 CURVE SMOOTH"
);
}
);
};
layerId = "23A20576-2241-481A-AD5B-28E85381F753";
paths = (
{
closed = 1;
nodes = (
"569 -8 OFFCURVE",
"697 155 OFFCURVE",
"697 372 CURVE SMOOTH",
"697 643 OFFCURVE",
"537 751 OFFCURVE",
"358 752 CURVE SMOOTH",
"226 753 OFFCURVE",
"131 707 OFFCURVE",
"84 673 CURVE",
"120 543 LINE",
"171 578 OFFCURVE",
"228 605 OFFCURVE",
"336 605 CURVE SMOOTH",
"447 605 OFFCURVE",
"518 521 OFFCURVE",
"518 381 CURVE SMOOTH",
"518 237 OFFCURVE",
"460 131 OFFCURVE",
"354 131 CURVE SMOOTH",
"257 131 OFFCURVE",
"212 203 OFFCURVE",
"218 313 CURVE",
"568 313 LINE",
"581 433 LINE",
"49 433 LINE",
"45 402 OFFCURVE",
"42 382 OFFCURVE",
"42 328 CURVE SMOOTH",
"42 87 OFFCURVE",
"192 -8 OFFCURVE",
"343 -8 CURVE SMOOTH"
);
}
);
width = 739;
},
{
anchors = (
{
name = bottom;
position = "{372, 0}";
},
{
name = btm;
position = "{359, -83}";
},
{
name = top;
position = "{355, 831}";
}
);
layerId = "247DB4A4-D150-4133-9396-DC38172DD635";
paths = (
{
closed = 1;
nodes = (
"574 -8 OFFCURVE",
"693 140 OFFCURVE",
"693 372 CURVE SMOOTH",
"693 625 OFFCURVE",
"542 753 OFFCURVE",
"360 752 CURVE SMOOTH",
"238 751 OFFCURVE",
"141 716 OFFCURVE",
"84 661 CURVE",
"111 568 LINE",
"167 625 OFFCURVE",
"249 659 OFFCURVE",
"358 659 CURVE SMOOTH",
"485 659 OFFCURVE",
"577 557 OFFCURVE",
"577 381 CURVE SMOOTH",
"577 213 OFFCURVE",
"506 82 OFFCURVE",
"354 82 CURVE SMOOTH",
"200 82 OFFCURVE",
"153 203 OFFCURVE",
"159 313 CURVE",
"612 313 LINE",
"625 406 LINE",
"54 406 LINE",
"50 375 OFFCURVE",
"47 355 OFFCURVE",
"47 301 CURVE SMOOTH",
"47 87 OFFCURVE",
"190 -8 OFFCURVE",
"341 -8 CURVE SMOOTH"
);
}
);
width = 740;
}
);
leftKerningGroup = O;
leftMetricsKey = O;
rightKerningGroup = O;
rightMetricsKey = O;
unicode = 018F;
},
{
color = 4;
glyphname = T;
lastChange = "2019-04-01 04:52:58 +0000";
layers = (
{
anchors = (
{
name = bottom;
position = "{313, 0}";
},
{
name = center;
position = "{313, 372}";
},
{
name = top;
position = "{309, 830}";
}
);
layerId = "8BC678DE-46B6-4C98-A96E-C0ED61786D32";
paths = (
{
closed = 1;
nodes = (
"354 0 LINE",
"354 679 LINE",
"597 679 LINE",
"597 743 LINE",
"30 743 LINE",
"30 679 LINE",
"270 679 LINE",
"270 0 LINE"
);
}
);
width = 625;
},
{
anchors = (
{
name = bottom;
position = "{306, 0}";
},
{
name = center;
position = "{306, 372}";
},
{
name = top;
position = "{305, 830}";
}
);
layerId = "23A20576-2241-481A-AD5B-28E85381F753";
paths = (
{
closed = 1;
nodes = (
"400 0 LINE",
"400 600 LINE",
"598 600 LINE",
"598 743 LINE",
"14 743 LINE",
"14 600 LINE",
"212 600 LINE",
"212 0 LINE"
);
}
);
width = 612;
},
{
anchors = (
{
name = bottom;
position = "{315.689, 0}";
},
{
name = center;
position = "{315.689, 372}";
},
{
name = top;
position = "{312.044, 830}";
}
);
layerId = "247DB4A4-D150-4133-9396-DC38172DD635";
paths = (
{
closed = 1;
nodes = (
"374.956 0 LINE",
"374.956 652.778 LINE",
"603.4 652.778 LINE",
"603.4 743 LINE",
"28.156 743 LINE",
"28.156 652.778 LINE",
"256.778 652.778 LINE",
"256.778 0 LINE"
);
}
);
width = 631.37778;
}
);
leftKerningGroup = T;
rightKerningGroup = T;
unicode = 0054;
},
{
glyphname = Tbar;
lastChange = "2019-02-18 20:30:01 +0000";
layers = (
{
components = (
{
name = T;
}
);
layerId = "8BC678DE-46B6-4C98-A96E-C0ED61786D32";
paths = (
{
closed = 1;
nodes = (
"500 325 LINE",
"500 380 LINE",
"124 380 LINE",
"124 325 LINE"
);
}
);
width = 625;
},
{
components = (
{
name = T;
}
);
layerId = "23A20576-2241-481A-AD5B-28E85381F753";
paths = (
{
closed = 1;
nodes = (
"539 272 LINE",
"539 389 LINE",
"86 389 LINE",
"86 272 LINE"
);
}
);
width = 612;
},
{
components = (
{
alignment = -1;
name = T;
}
);
layerId = "247DB4A4-D150-4133-9396-DC38172DD635";
paths = (
{
closed = 1;
nodes = (
"518.422 313.378 LINE",
"518.422 389 LINE",
"117.022 389 LINE",
"117.022 313.378 LINE"
);
}
);
width = 631.37778;
}
);
leftKerningGroup = T;
rightKerningGroup = T;
unicode = 0166;
},
{
color = 4;
glyphname = U;
lastChange = "2019-04-01 03:23:06 +0000";
layers = (
{
anchors = (
{
name = bottom;
position = "{360, 0}";
},
{
name = btm;
position = "{366, -83}";
},
{
name = ogonek;
position = "{648, 10}";
},
{
name = top;
position = "{365, 830}";
},
{
name = topright;
position = "{575, 743}";
}
);
layerId = "8BC678DE-46B6-4C98-A96E-C0ED61786D32";
paths = (
{
closed = 1;
nodes = (
"546 -8 OFFCURVE",
"637 101 OFFCURVE",
"637 315 CURVE SMOOTH",
"637 743 LINE",
"555 743 LINE",
"555 334 LINE SMOOTH",
"555 121 OFFCURVE",
"483 57 OFFCURVE",
"366 57 CURVE SMOOTH",
"240 57 OFFCURVE",
"166 118 OFFCURVE",
"166 334 CURVE SMOOTH",
"166 744 LINE",
"83 744 LINE",
"83 314 LINE SMOOTH",
"83 105 OFFCURVE",
"167 -8 OFFCURVE",
"363 -8 CURVE SMOOTH"
);
}
);
width = 720;
},
{
anchors = (
{
name = bottom;
position = "{376, 0}";
},
{
name = btm;
position = "{374, -83}";
},
{
name = ogonek;
position = "{678, 10}";
},
{
name = top;
position = "{376, 830}";
},
{
name = topright;
position = "{567, 743}";
}
);
layerId = "23A20576-2241-481A-AD5B-28E85381F753";
paths = (
{
closed = 1;
nodes = (
"594 -8 OFFCURVE",
"687 110 OFFCURVE",
"687 309 CURVE SMOOTH",
"687 743 LINE",
"503 743 LINE",
"503 334 LINE SMOOTH",
"503 182 OFFCURVE",
"461 139 OFFCURVE",
"377 139 CURVE SMOOTH",
"294 139 OFFCURVE",
"250 178 OFFCURVE",
"251 334 CURVE SMOOTH",
"253 743 LINE",
"68 743 LINE",
"66 312 LINE SMOOTH",
"66 120 OFFCURVE",
"150 -8 OFFCURVE",
"380 -8 CURVE SMOOTH"
);
}
);
width = 753;
},
{
anchors = (
{
name = bottom;
position = "{359.844, 0}";
},
{
name = btm;
position = "{364.956, -83}";
},
{
name = ogonek;
position = "{647.978, 10}";
},
{
name = top;
position = "{365.956, 830}";
},
{
name = topright;
position = "{571, 743}";
}
);
layerId = "247DB4A4-D150-4133-9396-DC38172DD635";
paths = (
{
closed = 1;
nodes = (
"551.911 -8 OFFCURVE",
"643.222 104.822 OFFCURVE",
"643.222 308.889 CURVE SMOOTH",
"643.222 743 LINE",
"527.222 743 LINE",
"527.222 333.578 LINE SMOOTH",
"527.222 135.689 OFFCURVE",
"466.356 83.933 OFFCURVE",
"366.778 83.933 CURVE SMOOTH",
"255.978 83.933 OFFCURVE",
"193.289 134.267 OFFCURVE",
"193.289 333.578 CURVE SMOOTH",
"194.289 743 LINE",
"77.289 743 LINE",
"77.111 310.778 LINE SMOOTH",
"76.289 110.489 OFFCURVE",
"156.044 -8 OFFCURVE",
"363.422 -8 CURVE SMOOTH"
);
}
);
width = 719.51111;
}
);
leftKerningGroup = U;
rightKerningGroup = U;
unicode = 0055;
},
{
color = 4;
glyphname = V;
lastChange = "2019-04-01 04:53:13 +0000";
layers = (
{
anchors = (
{
name = bottom;
position = "{325, 0}";
},
{
name = btm;
position = "{328, -83}";
},
{
name = top;
position = "{328, 830}";
}
);
layerId = "8BC678DE-46B6-4C98-A96E-C0ED61786D32";
paths = (
{
closed = 1;
nodes = (
"365 -8 LINE",
"635 743 LINE",
"548 743 LINE",
"368 213 LINE",
"331 94 LINE",
"293 213 LINE",
"103 743 LINE",
"15 743 LINE",
"295 -8 LINE"
);
}
);
width = 650;
},
{
anchors = (
{
name = bottom;
position = "{344, 0}";
},
{
name = btm;
position = "{345, -83}";
},
{
name = top;
position = "{345, 831}";
}
);
layerId = "23A20576-2241-481A-AD5B-28E85381F753";
paths = (
{
closed = 1;
nodes = (
"426 -2 LINE",
"694 743 LINE",
"496 743 LINE",
"385 368 LINE",
"348 223 LINE",
"311 368 LINE",
"192 743 LINE",
"-6 743 LINE",
"264 -2 LINE"
);
}
);
width = 688;
},
{
anchors = (
{
name = bottom;
position = "{332.422, 0}";
},
{
name = btm;
position = "{333.244, -83}";
},
{
name = top;
position = "{333.244, 830.178}";
}
);
layerId = "247DB4A4-D150-4133-9396-DC38172DD635";
paths = (
{
closed = 1;
nodes = (
"384.622 -5.467 LINE",
"655.978 743 LINE",
"532.911 743 LINE",
"371.311 259.711 LINE",
"336.244 140.089 LINE",
"302.178 259.711 LINE",
"132.756 743 LINE",
"8.689 743 LINE",
"286.333 -5.467 LINE"
);
}
);
width = 664.66667;
}
);
leftKerningGroup = V;
rightKerningGroup = V;
unicode = 0056;
},
{
color = 4;
glyphname = W;
lastChange = "2019-04-01 04:53:11 +0000";
layers = (
{
anchors = (
{
name = bottom;
position = "{468, 0}";
},
{
name = btm;
position = "{469, -83}";
},
{
name = top;
position = "{468, 830}";
}
);
layerId = "8BC678DE-46B6-4C98-A96E-C0ED61786D32";
paths = (
{
closed = 1;
nodes = (
"291 -8 LINE",
"452 527 LINE",
"482 679 LINE",
"457 679 LINE",
"488 527 LINE",
"647 -8 LINE",
"728 -8 LINE",
"919 743 LINE",
"835 743 LINE",
"720 251 LINE",
"683 58 LINE",
"697 58 LINE",
"648 252 LINE",
"501 743 LINE",
"440 743 LINE",
"294 252 LINE",
"251 58 LINE",
"264 58 LINE",
"224 252 LINE",
"103 743 LINE",
"18 743 LINE",
"219 -8 LINE"
);
}
);
width = 937;
},
{
anchors = (
{
name = bottom;
position = "{488, 0}";
},
{
name = btm;
position = "{482, -83}";
},
{
name = top;
position = "{482, 830}";
}
);
layerId = "23A20576-2241-481A-AD5B-28E85381F753";
paths = (
{
closed = 1;
nodes = (
"369 -5 LINE",
"463 383 LINE",
"507 705 LINE",
"459 705 LINE",
"508 383 LINE",
"603 -5 LINE",
"786 -5 LINE",
"982 743 LINE",
"803 743 LINE",
"726 328 LINE",
"694 84 LINE",
"716 84 LINE",
"676 328 LINE",
"575 743 LINE",
"406 743 LINE",
"308 328 LINE",
"271 85 LINE",
"290 85 LINE",
"258 328 LINE",
"180 743 LINE",
"-6 743 LINE",
"189 -5 LINE"
);
}
);
width = 976;
},
{
anchors = (
{
name = bottom;
position = "{471.311, 0}";
},
{
name = btm;
position = "{469.533, -83}";
},
{
name = top;
position = "{469.533, 830}";
}
);
layerId = "247DB4A4-D150-4133-9396-DC38172DD635";
paths = (
{
closed = 1;
nodes = (
"316.289 -8 LINE",
"452.889 466.2 LINE",
"488.489 668.733 LINE",
"452.711 669.556 LINE",
"489.022 466.2 LINE",
"623.444 -8 LINE",
"739.867 -8 LINE",
"932.222 743 LINE",
"814.222 743 LINE",
"708.667 268.356 LINE",
"677.133 77.333 LINE",
"696.489 77.333 LINE",
"653.667 269.178 LINE",
"516.644 743 LINE",
"426.978 743 LINE",
"292.844 269.178 LINE",
"258.6 77.511 LINE",
"275.956 77.511 LINE",
"242.6 269.178 LINE",
"129.222 743 LINE",
"9.4 743 LINE",
"212.689 -8 LINE"
);
}
);
width = 941.62222;
}
);
leftKerningGroup = W;
rightKerningGroup = W;
unicode = 0057;
},
{
color = 4;
glyphname = X;
lastChange = "2019-04-01 03:25:45 +0000";
layers = (
{
anchors = (
{
name = bottom;
position = "{325, 0}";
},
{
name = btm;
position = "{319, -83}";
},
{
name = top;
position = "{319, 830}";
}
);
layerId = "8BC678DE-46B6-4C98-A96E-C0ED61786D32";
paths = (
{
closed = 1;
nodes = (
"125 0 LINE",
"276 246 LINE",
"332 339 LINE",
"309 339 LINE",
"366 246 LINE",
"520 0 LINE",
"614 0 LINE",
"356 396 LINE",
"367 361 LINE",
"607 743 LINE",
"518 743 LINE",
"379 517 LINE",
"319 415 LINE",
"338 415 LINE",
"276 517 LINE",
"132 744 LINE",
"39 743 LINE",
"289 361 LINE",
"283 395 LINE",
"36 0 LINE"
);
}
);
width = 649;
},
{
anchors = (
{
name = bottom;
position = "{341, 0}";
},
{
name = btm;
position = "{334, -83}";
},
{
name = top;
position = "{334, 830}";
}
);
layerId = "23A20576-2241-481A-AD5B-28E85381F753";
paths = (
{
closed = 1;
nodes = (
"203 0 LINE",
"304 191 LINE",
"354 295 LINE",
"315 294 LINE",
"366 191 LINE",
"470 0 LINE",
"673 0 LINE",
"438 390 LINE",
"435 343 LINE",
"666 743 LINE",
"474 743 LINE",
"377 557 LINE",
"333 470 LINE",
"365 470 LINE",
"319 557 LINE",
"217 744 LINE",
"16 743 LINE",
"243 357 LINE",
"246 409 LINE",
"10 0 LINE"
);
}
);
width = 681;
},
{
anchors = (
{
name = bottom;
position = "{323.667, 0}";
},
{
name = btm;
position = "{315.844, -83}";
},
{
name = top;
position = "{315.844, 830}";
}
);
layerId = "247DB4A4-D150-4133-9396-DC38172DD635";
paths = (
{
closed = 1;
nodes = (
"145.111 0 LINE",
"270.8 217.044 LINE",
"333.311 323.844 LINE",
"301.489 322.844 LINE",
"365.822 217.044 LINE",
"494.689 0 LINE",
"627.222 0 LINE",
"370.244 400.756 LINE",
"383.644 354.756 LINE",
"622.222 743 LINE",
"497.689 743 LINE",
"383.289 547 LINE",
"316.378 432.511 LINE",
"341.2 432.511 LINE",
"272.933 547 LINE",
"153.178 744 LINE",
"21.822 743 LINE",
"269.978 356 LINE",
"263.511 400.889 LINE",
"20.111 0 LINE"
);
}
);
width = 647.33333;
}
);
leftKerningGroup = X;
rightKerningGroup = X;
unicode = 0058;
},
{
color = 4;
glyphname = Y;
lastChange = "2019-04-01 04:53:34 +0000";
layers = (
{
anchors = (
{
name = bottom;
position = "{305, 0}";
},
{
name = btm;
position = "{314, -83}";
},
{
name = top;
position = "{314, 830}";
},
{
name = topleft;
position = "{20, 743}";
}
);
layerId = "8BC678DE-46B6-4C98-A96E-C0ED61786D32";
paths = (
{
closed = 1;
nodes = (
"352 0 LINE",
"352 309 LINE",
"337 259 LINE",
"595 743 LINE",
"508 743 LINE",
"333 401 LINE",
"305 329 LINE",
"318 329 LINE",
"286 401 LINE",
"104 743 LINE",
"15 743 LINE",
"282 260 LINE",
"268 310 LINE",
"268 0 LINE"
);
}
);
width = 610;
},
{
anchors = (
{
name = bottom;
position = "{315, 0}";
},
{
name = btm;
position = "{321, -83}";
},
{
name = top;
position = "{321, 830}";
},
{
name = topleft;
position = "{20, 743}";
}
);
layerId = "23A20576-2241-481A-AD5B-28E85381F753";
paths = (
{
closed = 1;
nodes = (
"409 0 LINE",
"409 296 LINE",
"392 229 LINE",
"655 743 LINE",
"458 743 LINE",
"346 503 LINE",
"308 385 LINE",
"333 385 LINE",
"288 503 LINE",
"178 743 LINE",
"-26 743 LINE",
"235 230 LINE",
"219 296 LINE",
"219 0 LINE"
);
}
);
width = 629;
},
{
anchors = (
{
name = bottom;
position = "{307.933, 0}";
},
{
name = btm;
position = "{312.222, -83}";
},
{
name = top;
position = "{312.222, 830}";
},
{
name = topleft;
position = "{20, 743}";
}
);
layerId = "247DB4A4-D150-4133-9396-DC38172DD635";
paths = (
{
closed = 1;
nodes = (
"368.667 0 LINE",
"368.667 314.511 LINE",
"351.2 251.556 LINE",
"610.267 743 LINE",
"487.022 743 LINE",
"329.578 427.044 LINE",
"303.4 351.156 LINE",
"321.4 351.156 LINE",
"290.4 427.044 LINE",
"130.378 743 LINE",
"4.778 743 LINE",
"267.133 251.733 LINE",
"249.667 315.867 LINE",
"249.667 0 LINE"
);
}
);
width = 615.04444;
}
);
leftKerningGroup = Y;
rightKerningGroup = Y;
unicode = 0059;
},
{
color = 4;
glyphname = Z;
lastChange = "2019-04-01 03:27:34 +0000";
layers = (
{
anchors = (
{
name = bottom;
position = "{300, 0}";
},
{
name = btm;
position = "{301, -83}";
},
{
name = center;
position = "{300, 372}";
},
{
name = top;
position = "{315, 830}";
}
);
layerId = "8BC678DE-46B6-4C98-A96E-C0ED61786D32";
paths = (
{
closed = 1;
nodes = (
"558 0 LINE",
"558 65 LINE",
"144 65 LINE",
"186 117 LINE",
"579 712 LINE",
"561 743 LINE",
"75 743 LINE",
"75 677 LINE",
"471 677 LINE",
"429 623 LINE",
"35 32 LINE",
"52 0 LINE"
);
}
);
width = 619;
},
{
anchors = (
{
name = bottom;
position = "{309, 0}";
},
{
name = btm;
position = "{300, -83}";
},
{
name = center;
position = "{309, 372}";
},
{
name = top;
position = "{315, 830}";
}
);
layerId = "23A20576-2241-481A-AD5B-28E85381F753";
paths = (
{
closed = 1;
nodes = (
"591 0 LINE",
"591 139 LINE",
"274 139 LINE",
"310 190 LINE",
"609 704 LINE",
"589 743 LINE",
"55 743 LINE",
"55 607 LINE",
"357 607 LINE",
"325 560 LINE",
"20 41 LINE",
"40 0 LINE"
);
}
);
width = 627;
},
{
anchors = (
{
name = bottom;
position = "{298, 0}";
},
{
name = btm;
position = "{295, -83}";
},
{
name = center;
position = "{298, 372}";
},
{
name = top;
position = "{313, 830}";
}
);
layerId = "247DB4A4-D150-4133-9396-DC38172DD635";
paths = (
{
closed = 1;
nodes = (
"558 0 LINE",
"558 91 LINE",
"186 91 LINE",
"222 134 LINE",
"586 704 LINE",
"563 743 LINE",
"71 743 LINE",
"71 651 LINE",
"430 651 LINE",
"402 616 LINE",
"30 41 LINE",
"52 0 LINE"
);
}
);
width = 614;
}
);
leftKerningGroup = Z;
rightKerningGroup = Z;
unicode = 005A;
},
{
glyphname = a;
lastChange = "2019-04-01 04:52:10 +0000";
layers = (
{
anchors = (
{
name = bottom;
position = "{280, 0}";
},
{
name = btm;
position = "{281, -100}";
},
{
name = ogonek;
position = "{503, 25}";
},
{
name = top;
position = "{274, 830}";
}
);
layerId = "8BC678DE-46B6-4C98-A96E-C0ED61786D32";
paths = (
{
closed = 1;
nodes = (
"303 -8 OFFCURVE",
"367 25 OFFCURVE",
"397 53 CURVE",
"410 86 LINE",
"392 102 LINE",
"380 89 OFFCURVE",
"318 53 OFFCURVE",
"247 53 CURVE SMOOTH",
"167 53 OFFCURVE",
"134 95 OFFCURVE",
"134 153 CURVE SMOOTH",
"134 203 OFFCURVE",
"163 234 OFFCURVE",
"219 255 CURVE SMOOTH",
"266 274 OFFCURVE",
"351 281 OFFCURVE",
"391 281 CURVE",
"409 310 LINE",
"391 333 LINE",
"333 333 OFFCURVE",
"239 325 OFFCURVE",
"174 300 CURVE SMOOTH",
"96 271 OFFCURVE",
"54 220 OFFCURVE",
"54 147 CURVE SMOOTH",
"54 50 OFFCURVE",
"125 -8 OFFCURVE",
"223 -8 CURVE SMOOTH"
);
},
{
closed = 1;
nodes = (
"472 388 LINE SMOOTH",
"472 528 OFFCURVE",
"396 565 OFFCURVE",
"282 565 CURVE SMOOTH",
"192 565 OFFCURVE",
"102 522 OFFCURVE",
"83 509 CURVE",
"103 451 LINE",
"132 472 OFFCURVE",
"205 498 OFFCURVE",
"261 498 CURVE SMOOTH",
"348 498 OFFCURVE",
"391 476 OFFCURVE",
"391 391 CURVE SMOOTH",
"391 80 LINE",
"396 79 LINE",
"396 0 LINE",
"472 0 LINE"
);
}
);
width = 559;
},
{
anchors = (
{
name = bottom;
position = "{309, 0}";
},
{
name = btm;
position = "{302, -100}";
},
{
name = ogonek;
position = "{540, 25}";
},
{
name = top;
position = "{299, 830}";
}
);
layerId = "23A20576-2241-481A-AD5B-28E85381F753";
paths = (
{
closed = 1;
nodes = (
"298 -8 OFFCURVE",
"347 20 OFFCURVE",
"378 47 CURVE",
"398 90 LINE",
"369 127 LINE",
"359 116 OFFCURVE",
"328 104 OFFCURVE",
"299 104 CURVE SMOOTH",
"262 104 OFFCURVE",
"228 126 OFFCURVE",
"228 179 CURVE SMOOTH",
"228 219 OFFCURVE",
"250 232 OFFCURVE",
"271 241 CURVE SMOOTH",
"291 250 OFFCURVE",
"334 257 OFFCURVE",
"369 258 CURVE",
"395 313 LINE",
"369 345 LINE",
"299 345 OFFCURVE",
"209 340 OFFCURVE",
"142 311 CURVE SMOOTH",
"80 285 OFFCURVE",
"42 235 OFFCURVE",
"42 170 CURVE SMOOTH",
"42 66 OFFCURVE",
"113 -8 OFFCURVE",
"223 -8 CURVE SMOOTH"
);
},
{
closed = 1;
nodes = (
"549 356 LINE SMOOTH",
"549 510 OFFCURVE",
"483 566 OFFCURVE",
"308 566 CURVE SMOOTH",
"208 566 OFFCURVE",
"104 530 OFFCURVE",
"63 505 CURVE",
"100 399 LINE",
"149 422 OFFCURVE",
"227 438 OFFCURVE",
"291 438 CURVE SMOOTH",
"341 438 OFFCURVE",
"369 427 OFFCURVE",
"369 378 CURVE SMOOTH",
"369 83 LINE",
"378 83 LINE",
"378 0 LINE",
"549 0 LINE"
);
}
);
width = 617;
},
{
anchors = (
{
name = bottom;
position = "{279.556, 0}";
},
{
name = btm;
position = "{279.311, -100}";
},
{
name = ogonek;
position = "{493.844, 25}";
},
{
name = top;
position = "{272.733, 830}";
}
);
layerId = "247DB4A4-D150-4133-9396-DC38172DD635";
paths = (
{
closed = 1;
nodes = (
"283.778 -8 OFFCURVE",
"342.822 20 OFFCURVE",
"372.644 47 CURVE",
"388.822 90 LINE",
"365.822 114.489 LINE",
"355 101.489 OFFCURVE",
"300.667 76.089 OFFCURVE",
"253.511 76.089 CURVE SMOOTH",
"192.244 76.089 OFFCURVE",
"160.889 105.2 OFFCURVE",
"160.889 160.844 CURVE SMOOTH",
"160.889 203.667 OFFCURVE",
"186.711 225.067 OFFCURVE",
"220.4 240.644 CURVE SMOOTH",
"257.378 258.222 OFFCURVE",
"326.356 266.4 OFFCURVE",
"365.822 266.4 CURVE",
"390.178 307.067 LINE",
"365.822 337.6 LINE",
"301.578 337.6 OFFCURVE",
"216.156 328.489 OFFCURVE",
"151.867 302.311 CURVE SMOOTH",
"86.933 274.489 OFFCURVE",
"45.822 224.556 OFFCURVE",
"45.822 153.267 CURVE SMOOTH",
"45.822 54.022 OFFCURVE",
"117.822 -8 OFFCURVE",
"217.778 -8 CURVE SMOOTH"
);
},
{
closed = 1;
nodes = (
"481.644 383.733 LINE SMOOTH",
"481.644 532.4 OFFCURVE",
"403.244 565.356 OFFCURVE",
"277.844 565.356 CURVE SMOOTH",
"191.489 565.356 OFFCURVE",
"93.133 526.889 OFFCURVE",
"70.467 513.111 CURVE",
"97.711 430.089 LINE",
"127.622 448.622 OFFCURVE",
"203.622 470.733 OFFCURVE",
"266.911 470.733 CURVE SMOOTH",
"330.489 470.733 OFFCURVE",
"365.822 455.444 OFFCURVE",
"365.822 389.867 CURVE SMOOTH",
"365.822 83 LINE",
"372.644 83 LINE",
"372.644 0 LINE",
"481.644 0 LINE"
);
}
);
width = 559.11111;
}
);
leftKerningGroup = a;
rightKerningGroup = a;
unicode = 0061;
},
{
glyphname = ae;
lastChange = "2019-04-01 02:20:53 +0000";
layers = (
{
anchors = (
{
name = bottom;
position = "{446, 0}";
},
{
name = top;
position = "{449, 830}";
}
);
layerId = "8BC678DE-46B6-4C98-A96E-C0ED61786D32";
paths = (
{
closed = 1;
nodes = (
"703 -8 OFFCURVE",
"786 13 OFFCURVE",
"823 43 CURVE",
"807 91 LINE",
"778 72 OFFCURVE",
"704 54 OFFCURVE",
"654 54 CURVE SMOOTH",
"551 54 OFFCURVE",
"477 105 OFFCURVE",
"472 250 CURVE",
"467 433 OFFCURVE",
"540 506 OFFCURVE",
"636 506 CURVE SMOOTH",
"737 506 OFFCURVE",
"770 427 OFFCURVE",
"764 325 CURVE",
"448 325 LINE",
"441 270 LINE",
"836 270 LINE",
"841 293 OFFCURVE",
"840 320 OFFCURVE",
"840 355 CURVE",
"837 482 OFFCURVE",
"759 566 OFFCURVE",
"641 564 CURVE SMOOTH",
"481 563 OFFCURVE",
"391 443 OFFCURVE",
"391 276 CURVE SMOOTH",
"391 92 OFFCURVE",
"478 -8 OFFCURVE",
"634 -8 CURVE SMOOTH"
);
},
{
closed = 1;
nodes = (
"54 50 OFFCURVE",
"126 -8 OFFCURVE",
"225 -8 CURVE SMOOTH",
"323 -8 OFFCURVE",
"399 42 OFFCURVE",
"445 106 CURVE",
"433 131 LINE",
"416 144 LINE",
"395 106 OFFCURVE",
"322 53 OFFCURVE",
"246 53 CURVE SMOOTH",
"166 53 OFFCURVE",
"136 96 OFFCURVE",
"136 153 CURVE SMOOTH",
"136 201 OFFCURVE",
"161 233 OFFCURVE",
"219 255 CURVE SMOOTH",
"262 273 OFFCURVE",
"334 281 OFFCURVE",
"391 281 CURVE",
"409 310 LINE",
"390 333 LINE",
"326 333 OFFCURVE",
"239 326 OFFCURVE",
"174 300 CURVE SMOOTH",
"99 271 OFFCURVE",
"54 220 OFFCURVE",
"54 147 CURVE SMOOTH"
);
},
{
closed = 1;
nodes = (
"131 476 OFFCURVE",
"211 503 OFFCURVE",
"267 503 CURVE SMOOTH",
"341 503 OFFCURVE",
"390 490 OFFCURVE",
"390 391 CURVE SMOOTH",
"390 284 LINE",
"463 284 LINE",
"463 388 LINE SMOOTH",
"463 532 OFFCURVE",
"396 565 OFFCURVE",
"287 565 CURVE SMOOTH",
"198 565 OFFCURVE",
"99 522 OFFCURVE",
"79 509 CURVE",
"100 455 LINE"
);
}
);
width = 892;
},
{
anchors = (
{
name = bottom;
position = "{459, 0}";
},
{
name = top;
position = "{458, 830}";
}
);
layerId = "23A20576-2241-481A-AD5B-28E85381F753";
paths = (
{
closed = 1;
nodes = (
"740 -8 OFFCURVE",
"823 22 OFFCURVE",
"859 52 CURVE",
"832 150 LINE",
"805 136 OFFCURVE",
"737 122 OFFCURVE",
"684 122 CURVE SMOOTH",
"597 122 OFFCURVE",
"546 158 OFFCURVE",
"544 255 CURVE",
"542 404 OFFCURVE",
"577 448 OFFCURVE",
"639 448 CURVE SMOOTH",
"694 448 OFFCURVE",
"714 407 OFFCURVE",
"709 326 CURVE",
"469 326 LINE",
"459 238 LINE",
"870 238 LINE",
"873 262 OFFCURVE",
"875 298 OFFCURVE",
"875 338 CURVE",
"874 517 OFFCURVE",
"761 564 OFFCURVE",
"643 564 CURVE SMOOTH",
"467 564 OFFCURVE",
"366 443 OFFCURVE",
"366 281 CURVE SMOOTH",
"366 100 OFFCURVE",
"463 -8 OFFCURVE",
"642 -8 CURVE SMOOTH"
);
},
{
closed = 1;
nodes = (
"45 55 OFFCURVE",
"122 -8 OFFCURVE",
"226 -8 CURVE SMOOTH",
"304 -8 OFFCURVE",
"383 19 OFFCURVE",
"436 83 CURVE",
"428 125 LINE",
"392 150 LINE",
"375 123 OFFCURVE",
"334 104 OFFCURVE",
"299 104 CURVE SMOOTH",
"262 104 OFFCURVE",
"228 125 OFFCURVE",
"228 176 CURVE SMOOTH",
"228 219 OFFCURVE",
"252 232 OFFCURVE",
"273 241 CURVE SMOOTH",
"293 250 OFFCURVE",
"328 258 OFFCURVE",
"370 258 CURVE",
"393 313 LINE",
"367 345 LINE",
"301 345 OFFCURVE",
"212 338 OFFCURVE",
"148 310 CURVE SMOOTH",
"85 283 OFFCURVE",
"45 229 OFFCURVE",
"45 163 CURVE SMOOTH"
);
},
{
closed = 1;
nodes = (
"129 412 OFFCURVE",
"205 437 OFFCURVE",
"267 437 CURVE SMOOTH",
"335 437 OFFCURVE",
"367 420 OFFCURVE",
"367 375 CURVE SMOOTH",
"367 291 LINE",
"525 292 LINE",
"525 347 LINE SMOOTH",
"525 519 OFFCURVE",
"467 566 OFFCURVE",
"316 566 CURVE SMOOTH",
"186 566 OFFCURVE",
"87 517 OFFCURVE",
"66 505 CURVE",
"104 397 LINE"
);
}
);
width = 917;
},
{
anchors = (
{
name = bottom;
position = "{438.022, 0}";
},
{
name = top;
position = "{444.2, 830}";
}
);
layerId = "247DB4A4-D150-4133-9396-DC38172DD635";
paths = (
{
closed = 1;
nodes = (
"688.4 -8 OFFCURVE",
"774.044 13.067 OFFCURVE",
"810.044 43.067 CURVE",
"789.156 109.333 LINE",
"760.978 92.511 OFFCURVE",
"685.333 79.511 OFFCURVE",
"647.8 79.511 CURVE SMOOTH",
"557.333 79.511 OFFCURVE",
"487.822 117.111 OFFCURVE",
"482.356 246.067 CURVE",
"477.067 424.8 OFFCURVE",
"536.511 482.311 OFFCURVE",
"614.378 482.311 CURVE SMOOTH",
"706.4 482.311 OFFCURVE",
"724.933 406.356 OFFCURVE",
"719.933 326 CURVE",
"445.2 326 LINE",
"436.2 252.689 LINE",
"822.222 252.689 LINE",
"827.867 277.689 OFFCURVE",
"828.044 311.4 OFFCURVE",
"828.044 352.578 CURVE",
"823.578 496.489 OFFCURVE",
"731.911 565.822 OFFCURVE",
"620.2 564 CURVE SMOOTH",
"455.778 562.178 OFFCURVE",
"368.178 441.178 OFFCURVE",
"368.178 279.178 CURVE SMOOTH",
"368.178 91.778 OFFCURVE",
"457.889 -8 OFFCURVE",
"618.022 -8 CURVE SMOOTH"
);
},
{
closed = 1;
nodes = (
"46.711 50.644 OFFCURVE",
"122.956 -8 OFFCURVE",
"221.311 -8 CURVE SMOOTH",
"304.533 -8 OFFCURVE",
"380.644 21.578 OFFCURVE",
"434.711 93.756 CURVE",
"418.778 125.822 LINE",
"395.822 145.067 LINE",
"373.889 106.089 OFFCURVE",
"306.978 76.089 OFFCURVE",
"252.756 76.089 CURVE SMOOTH",
"192.311 76.089 OFFCURVE",
"163.244 105.022 OFFCURVE",
"163.244 159.956 CURVE SMOOTH",
"163.244 203.844 OFFCURVE",
"187.956 224.889 OFFCURVE",
"221.822 240.644 CURVE SMOOTH",
"258.156 258.222 OFFCURVE",
"314.778 266.4 OFFCURVE",
"368.533 266.4 CURVE",
"390.356 307.067 LINE",
"367 337.6 LINE",
"296.244 337.6 OFFCURVE",
"216.756 328.6 OFFCURVE",
"154 301.956 CURVE SMOOTH",
"91 273.956 OFFCURVE",
"46.711 222.778 OFFCURVE",
"46.711 151.133 CURVE SMOOTH"
);
},
{
closed = 1;
nodes = (
"129.778 454.133 OFFCURVE",
"209.067 478.133 OFFCURVE",
"259.489 478.133 CURVE SMOOTH",
"332.778 478.133 OFFCURVE",
"367 464.889 OFFCURVE",
"367 388.978 CURVE SMOOTH",
"367 290.178 LINE",
"470.111 290.178 LINE",
"470.111 383.733 LINE SMOOTH",
"470.111 532.4 OFFCURVE",
"404.178 565.356 OFFCURVE",
"287.911 565.356 CURVE SMOOTH",
"197.111 565.356 OFFCURVE",
"95.711 525.111 OFFCURVE",
"73.889 513.111 CURVE",
"101.956 436.667 LINE"
);
}
);
width = 875.22222;
}
);
leftKerningGroup = a;
rightKerningGroup = e;
unicode = 00E6;
},
{
glyphname = b;
lastChange = "2019-04-01 04:17:06 +0000";
layers = (
{
anchors = (
{
name = bottom;
position = "{308, 0}";
},
{
name = btm;
position = "{319, -83}";
},
{
name = top;
position = "{372, 830}";
}
);
layerId = "8BC678DE-46B6-4C98-A96E-C0ED61786D32";
paths = (
{
closed = 1;
nodes = (
"94 31 LINE",
"173 67 LINE",
"173 481 LINE",
"169 484 LINE",
"173 579 LINE",
"173 811 LINE",
"94 811 LINE"
);
},
{
closed = 1;
nodes = (
"448 -8 OFFCURVE",
"561 117 OFFCURVE",
"561 299 CURVE SMOOTH",
"561 477 OFFCURVE",
"463 564 OFFCURVE",
"341 564 CURVE SMOOTH",
"241 564 OFFCURVE",
"185 512 OFFCURVE",
"159 485 CURVE",
"172 443 LINE",
"200 468 OFFCURVE",
"257 500 OFFCURVE",
"319 500 CURVE SMOOTH",
"424 500 OFFCURVE",
"479 426 OFFCURVE",
"478 288 CURVE SMOOTH",
"477 129 OFFCURVE",
"388 52 OFFCURVE",
"290 52 CURVE SMOOTH",
"238 52 OFFCURVE",
"192 62 OFFCURVE",
"173 76 CURVE",
"94 31 LINE",
"113 18 OFFCURVE",
"199 -8 OFFCURVE",
"281 -8 CURVE SMOOTH"
);
}
);
width = 611;
},
{
anchors = (
{
name = bottom;
position = "{329, 0}";
},
{
name = btm;
position = "{380, -83}";
},
{
name = top;
position = "{426, 831}";
}
);
layerId = "23A20576-2241-481A-AD5B-28E85381F753";
paths = (
{
closed = 1;
nodes = (
"70 31 LINE",
"248 85 LINE",
"248 483 LINE",
"243 486 LINE",
"248 610 LINE",
"248 811 LINE",
"70 811 LINE"
);
},
{
closed = 1;
nodes = (
"506 -10 OFFCURVE",
"620 110 OFFCURVE",
"620 299 CURVE SMOOTH",
"620 479 OFFCURVE",
"520 564 OFFCURVE",
"401 564 CURVE SMOOTH",
"302 564 OFFCURVE",
"252 519 OFFCURVE",
"229 494 CURVE",
"248 401 LINE",
"265 414 OFFCURVE",
"301 430 OFFCURVE",
"339 430 CURVE SMOOTH",
"394 430 OFFCURVE",
"433 398 OFFCURVE",
"433 288 CURVE SMOOTH",
"433 175 OFFCURVE",
"386 111 OFFCURVE",
"324 111 CURVE SMOOTH",
"285 111 OFFCURVE",
"258 116 OFFCURVE",
"248 128 CURVE",
"70 31 LINE",
"83 20 OFFCURVE",
"210 -10 OFFCURVE",
"327 -10 CURVE SMOOTH"
);
}
);
width = 662;
},
{
anchors = (
{
name = bottom;
position = "{310, 0}";
},
{
name = btm;
position = "{326, -83}";
},
{
name = top;
position = "{375, 830}";
}
);
layerId = "247DB4A4-D150-4133-9396-DC38172DD635";
paths = (
{
closed = 1;
nodes = (
"85 31 LINE",
"200 82 LINE",
"200 483 LINE",
"196 486 LINE",
"200 584 LINE",
"200 811 LINE",
"85 811 LINE"
);
},
{
closed = 1;
nodes = (
"457 -9 OFFCURVE",
"570 118 OFFCURVE",
"570 299 CURVE SMOOTH",
"570 479 OFFCURVE",
"468 564 OFFCURVE",
"350 564 CURVE SMOOTH",
"249 564 OFFCURVE",
"205 513 OFFCURVE",
"182 489 CURVE",
"200 432 LINE",
"224 450 OFFCURVE",
"266 475 OFFCURVE",
"318 475 CURVE SMOOTH",
"403 475 OFFCURVE",
"453 417 OFFCURVE",
"452 285 CURVE SMOOTH",
"450 148 OFFCURVE",
"385 74 OFFCURVE",
"299 74 CURVE SMOOTH",
"251 74 OFFCURVE",
"218 81 OFFCURVE",
"200 94 CURVE",
"85 31 LINE",
"105 18 OFFCURVE",
"206 -9 OFFCURVE",
"287 -9 CURVE SMOOTH"
);
}
);
width = 616;
}
);
leftKerningGroup = b;
leftMetricsKey = h;
rightKerningGroup = o;
unicode = 0062;
},
{
glyphname = c;
lastChange = "2019-04-01 03:30:51 +0000";
layers = (
{
anchors = (
{
name = bottom;
position = "{247, 0}";
},
{
name = btm;
position = "{280, -83}";
},
{
name = top;
position = "{301, 830}";
}
);
layerId = "8BC678DE-46B6-4C98-A96E-C0ED61786D32";
paths = (
{
closed = 1;
nodes = (
"52 111 OFFCURVE",
"139 -8 OFFCURVE",
"292 -8 CURVE SMOOTH",
"363 -8 OFFCURVE",
"427 13 OFFCURVE",
"462 45 CURVE",
"445 92 LINE",
"421 77 OFFCURVE",
"369 54 OFFCURVE",
"305 54 CURVE SMOOTH",
"210 54 OFFCURVE",
"127 130 OFFCURVE",
"131 286 CURVE SMOOTH",
"135 432 OFFCURVE",
"219 501 OFFCURVE",
"310 501 CURVE SMOOTH",
"362 501 OFFCURVE",
"408 491 OFFCURVE",
"436 471 CURVE",
"450 536 LINE",
"430 549 OFFCURVE",
"380 564 OFFCURVE",
"314 564 CURVE SMOOTH",
"145 564 OFFCURVE",
"51 438 OFFCURVE",
"52 270 CURVE SMOOTH"
);
}
);
width = 498;
},
{
anchors = (
{
name = bottom;
position = "{248, 0}";
},
{
name = btm;
position = "{288, -83}";
},
{
name = top;
position = "{298, 831}";
}
);
layerId = "23A20576-2241-481A-AD5B-28E85381F753";
paths = (
{
closed = 1;
nodes = (
"34 112 OFFCURVE",
"119 -8 OFFCURVE",
"303 -8 CURVE SMOOTH",
"375 -8 OFFCURVE",
"448 5 OFFCURVE",
"479 37 CURVE",
"456 151 LINE",
"432 140 OFFCURVE",
"389 131 OFFCURVE",
"342 131 CURVE SMOOTH",
"272 131 OFFCURVE",
"215 171 OFFCURVE",
"217 286 CURVE SMOOTH",
"219 391 OFFCURVE",
"283 424 OFFCURVE",
"341 424 CURVE SMOOTH",
"394 424 OFFCURVE",
"428 413 OFFCURVE",
"450 401 CURVE",
"470 537 LINE",
"452 550 OFFCURVE",
"391 564 OFFCURVE",
"316 564 CURVE SMOOTH",
"121 564 OFFCURVE",
"34 436 OFFCURVE",
"34 273 CURVE SMOOTH"
);
}
);
width = 504;
},
{
anchors = (
{
name = bottom;
position = "{240, 0}";
},
{
name = btm;
position = "{273, -83}";
},
{
name = top;
position = "{294, 830}";
}
);
layerId = "247DB4A4-D150-4133-9396-DC38172DD635";
paths = (
{
closed = 1;
nodes = (
"40 113 OFFCURVE",
"128 -8 OFFCURVE",
"287 -8 CURVE SMOOTH",
"357 -8 OFFCURVE",
"424 13 OFFCURVE",
"458 45 CURVE",
"436 112 LINE",
"412 97 OFFCURVE",
"361 80 OFFCURVE",
"306 80 CURVE SMOOTH",
"218 80 OFFCURVE",
"148 154 OFFCURVE",
"152 292 CURVE SMOOTH",
"157 423 OFFCURVE",
"234 474 OFFCURVE",
"309 474 CURVE SMOOTH",
"365 474 OFFCURVE",
"403 464 OFFCURVE",
"431 445 CURVE",
"449 536 LINE",
"431 548 OFFCURVE",
"380 564 OFFCURVE",
"310 564 CURVE SMOOTH",
"130 564 OFFCURVE",
"40 437 OFFCURVE",
"40 272 CURVE SMOOTH"
);
}
);
width = 488;
}
);
leftKerningGroup = o;
rightKerningGroup = c;
unicode = 0063;
},
{
glyphname = d;
lastChange = "2019-04-01 03:31:02 +0000";
layers = (
{
anchors = (
{
name = bottom;
position = "{303, 0}";
},
{
name = btm;
position = "{299, -83}";
},
{
name = center;
position = "{303, 279}";
},
{
name = top;
position = "{184, 830}";
},
{
name = topright;
position = "{585, 557}";
}
);
layerId = "8BC678DE-46B6-4C98-A96E-C0ED61786D32";
paths = (
{
closed = 1;
nodes = (
"517 0 LINE",
"517 813 LINE",
"438 813 LINE",
"438 579 LINE",
"441 491 LINE",
"438 489 LINE",
"438 79 LINE",
"442 77 LINE",
"442 0 LINE"
);
},
{
closed = 1;
nodes = (
"373 -8 OFFCURVE",
"428 47 OFFCURVE",
"452 71 CURVE",
"439 113 LINE",
"412 90 OFFCURVE",
"357 56 OFFCURVE",
"292 56 CURVE SMOOTH",
"192 56 OFFCURVE",
"131 126 OFFCURVE",
"133 271 CURVE SMOOTH",
"135 420 OFFCURVE",
"215 505 OFFCURVE",
"321 505 CURVE SMOOTH",
"382 505 OFFCURVE",
"421 493 OFFCURVE",
"439 477 CURVE",
"469 530 LINE",
"457 542 OFFCURVE",
"401 564 OFFCURVE",
"329 564 CURVE SMOOTH",
"161 564 OFFCURVE",
"50 438 OFFCURVE",
"50 260 CURVE SMOOTH",
"50 72 OFFCURVE",
"156 -8 OFFCURVE",
"270 -8 CURVE SMOOTH"
);
}
);
width = 605;
},
{
anchors = (
{
name = bottom;
position = "{335, 0}";
},
{
name = btm;
position = "{328, -83}";
},
{
name = center;
position = "{335, 279}";
},
{
name = top;
position = "{216, 831}";
},
{
name = topright;
position = "{652, 557}";
}
);
layerId = "23A20576-2241-481A-AD5B-28E85381F753";
paths = (
{
closed = 1;
nodes = (
"594 0 LINE",
"594 812 LINE",
"416 812 LINE",
"416 610 LINE",
"420 446 LINE",
"416 442 LINE",
"416 77 LINE",
"431 66 LINE",
"431 0 LINE"
);
},
{
closed = 1;
nodes = (
"359 -8 OFFCURVE",
"412 38 OFFCURVE",
"435 63 CURVE",
"417 154 LINE",
"397 140 OFFCURVE",
"357 127 OFFCURVE",
"322 127 CURVE SMOOTH",
"265 127 OFFCURVE",
"228 164 OFFCURVE",
"229 268 CURVE SMOOTH",
"229 383 OFFCURVE",
"274 439 OFFCURVE",
"337 439 CURVE SMOOTH",
"371 439 OFFCURVE",
"402 435 OFFCURVE",
"417 423 CURVE",
"448 537 LINE",
"436 546 OFFCURVE",
"392 564 OFFCURVE",
"323 564 CURVE SMOOTH",
"153 564 OFFCURVE",
"42 448 OFFCURVE",
"42 259 CURVE SMOOTH",
"42 79 OFFCURVE",
"142 -8 OFFCURVE",
"260 -8 CURVE SMOOTH"
);
}
);
width = 672;
},
{
anchors = (
{
name = bottom;
position = "{306.089, 0}";
},
{
name = btm;
position = "{299.378, -83}";
},
{
name = center;
position = "{306.089, 279}";
},
{
name = top;
position = "{180.622, 830.178}";
},
{
name = topright;
position = "{592.178, 557}";
}
);
layerId = "247DB4A4-D150-4133-9396-DC38172DD635";
paths = (
{
closed = 1;
nodes = (
"531 0 LINE",
"531 812.822 LINE",
"415.822 812.822 LINE",
"415.822 584.022 LINE",
"420 473.911 LINE",
"415.822 470.911 LINE",
"415.822 77 LINE",
"422.244 74.111 LINE",
"422.244 0 LINE"
);
},
{
closed = 1;
nodes = (
"367.289 -8 OFFCURVE",
"411.178 43.467 OFFCURVE",
"434.822 68.289 CURVE",
"416 125.378 LINE",
"393 107.733 OFFCURVE",
"350.533 83.044 OFFCURVE",
"298.667 83.044 CURVE SMOOTH",
"212.933 83.044 OFFCURVE",
"163.178 140.778 OFFCURVE",
"165 272.178 CURVE SMOOTH",
"166 409.156 OFFCURVE",
"232.511 480.667 OFFCURVE",
"317.667 480.667 CURVE SMOOTH",
"363.178 480.667 OFFCURVE",
"396 474.556 OFFCURVE",
"416 457.267 CURVE",
"456.756 531 LINE",
"443.933 542 OFFCURVE",
"394.644 564 OFFCURVE",
"326 564 CURVE SMOOTH",
"157.644 564 OFFCURVE",
"46.111 439.244 OFFCURVE",
"46.111 258.356 CURVE SMOOTH",
"46.111 77.533 OFFCURVE",
"149.289 -8 OFFCURVE",
"266.467 -8 CURVE SMOOTH"
);
}
);
width = 612.17778;
}
);
leftKerningGroup = d;
rightKerningGroup = d;
unicode = 0064;
},
{
glyphname = eth;
lastChange = "2019-03-29 17:42:38 +0000";
layers = (
{
layerId = "8BC678DE-46B6-4C98-A96E-C0ED61786D32";
paths = (
{
closed = 1;
nodes = (
"444 -11 OFFCURVE",
"545 89 OFFCURVE",
"545 299 CURVE SMOOTH",
"545 496 OFFCURVE",
"464 660 OFFCURVE",
"323 765 CURVE SMOOTH",
"317 770 OFFCURVE",
"310 775 OFFCURVE",
"303 780 CURVE SMOOTH",
"261 809 OFFCURVE",
"200 840 OFFCURVE",
"139 859 CURVE",
"120 812 LINE",
"162 798 OFFCURVE",
"215 770 OFFCURVE",
"255 742 CURVE SMOOTH",
"261 738 OFFCURVE",
"268 733 OFFCURVE",
"273 729 CURVE SMOOTH",
"362 662 OFFCURVE",
"430 559 OFFCURVE",
"448 441 CURVE",
"477 430 LINE",
"455 508 OFFCURVE",
"386 563 OFFCURVE",
"303 564 CURVE SMOOTH",
"157 564 OFFCURVE",
"53 457 OFFCURVE",
"53 272 CURVE SMOOTH",
"53 95 OFFCURVE",
"151 -16 OFFCURVE",
"301 -13 CURVE SMOOTH"
);
},
{
closed = 1;
nodes = (
"205 43 OFFCURVE",
"134 126 OFFCURVE",
"134 275 CURVE SMOOTH",
"134 413 OFFCURVE",
"197 503 OFFCURVE",
"306 503 CURVE SMOOTH",
"390 503 OFFCURVE",
"445 463 OFFCURVE",
"459 416 CURVE",
"464 368 OFFCURVE",
"463 320 OFFCURVE",
"463 280 CURVE SMOOTH",
"463 118 OFFCURVE",
"387 43 OFFCURVE",
"304 43 CURVE SMOOTH"
);
},
{
closed = 1;
nodes = (
"290 736 LINE",
"299 749 LINE",
"320 767 OFFCURVE",
"385 842 OFFCURVE",
"385 842 CURVE",
"341 875 LINE",
"341 875 OFFCURVE",
"277 797 OFFCURVE",
"259 781 CURVE",
"249 770 LINE",
"167 680 LINE",
"210 646 LINE"
);
}
);
width = 589;
},
{
layerId = "23A20576-2241-481A-AD5B-28E85381F753";
paths = (
{
closed = 1;
nodes = (
"478 -13 OFFCURVE",
"612 87 OFFCURVE",
"612 325 CURVE SMOOTH",
"612 519 OFFCURVE",
"502 711 OFFCURVE",
"328 803 CURVE SMOOTH",
"319 808 OFFCURVE",
"294 820 OFFCURVE",
"285 825 CURVE SMOOTH",
"236 853 OFFCURVE",
"198 865 OFFCURVE",
"135 883 CURVE",
"106 790 LINE",
"148 777 OFFCURVE",
"189 754 OFFCURVE",
"223 731 CURVE SMOOTH",
"231 726 OFFCURVE",
"249 712 OFFCURVE",
"256 708 CURVE SMOOTH",
"332 657 OFFCURVE",
"391 586 OFFCURVE",
"409 499 CURVE",
"451 484 LINE",
"436 519 OFFCURVE",
"389 561 OFFCURVE",
"301 561 CURVE SMOOTH",
"135 561 OFFCURVE",
"41 436 OFFCURVE",
"41 269 CURVE SMOOTH",
"41 102 OFFCURVE",
"151 -13 OFFCURVE",
"324 -13 CURVE SMOOTH"
);
},
{
closed = 1;
nodes = (
"271 112 OFFCURVE",
"231 158 OFFCURVE",
"231 262 CURVE SMOOTH",
"231 383 OFFCURVE",
"270 445 OFFCURVE",
"331 445 CURVE SMOOTH",
"374 445 OFFCURVE",
"411 423 OFFCURVE",
"425 401 CURVE",
"427 376 OFFCURVE",
"427 316 OFFCURVE",
"427 289 CURVE SMOOTH",
"427 166 OFFCURVE",
"379 112 OFFCURVE",
"326 112 CURVE SMOOTH"
);
},
{
closed = 1;
nodes = (
"313 726 LINE",
"325 744 LINE",
"350 769 OFFCURVE",
"418 860 OFFCURVE",
"418 860 CURVE",
"336 917 LINE",
"336 917 OFFCURVE",
"264 813 OFFCURVE",
"243 791 CURVE",
"232 775 LINE",
"146 664 LINE",
"226 608 LINE"
);
}
);
width = 645;
},
{
layerId = "247DB4A4-D150-4133-9396-DC38172DD635";
paths = (
{
closed = 1;
nodes = (
"449.8 -11.178 OFFCURVE",
"552.711 91.778 OFFCURVE",
"552.711 300.733 CURVE SMOOTH",
"552.711 496.733 OFFCURVE",
"471.267 665 OFFCURVE",
"329.533 767.733 CURVE SMOOTH",
"321.356 773.556 OFFCURVE",
"308.8 781.978 OFFCURVE",
"299.978 787.8 CURVE SMOOTH",
"250.867 820.556 OFFCURVE",
"196.822 846.6 OFFCURVE",
"133.822 866.422 CURVE",
"107.822 800.978 LINE",
"153.578 785.689 OFFCURVE",
"196.867 761.578 OFFCURVE",
"236.8 732.822 CURVE SMOOTH",
"244.622 727.822 OFFCURVE",
"251.8 721.467 OFFCURVE",
"259.8 715.822 CURVE SMOOTH",
"339.978 654.844 OFFCURVE",
"402.222 565.267 OFFCURVE",
"416.867 459.533 CURVE",
"457.644 437.511 LINE",
"442.467 501.133 OFFCURVE",
"388.178 562.644 OFFCURVE",
"297.6 562.644 CURVE SMOOTH",
"145.756 563.467 OFFCURVE",
"46 451.756 OFFCURVE",
"46 269.822 CURVE SMOOTH",
"46 96.889 OFFCURVE",
"145.6 -14.822 OFFCURVE",
"300.089 -13 CURVE SMOOTH"
);
},
{
closed = 1;
nodes = (
"210.533 67.756 OFFCURVE",
"162.244 151.889 OFFCURVE",
"162.244 272.756 CURVE SMOOTH",
"162.244 394.4 OFFCURVE",
"208.711 478.022 OFFCURVE",
"303.911 478.022 CURVE SMOOTH",
"386.222 478.022 OFFCURVE",
"426.044 441.267 OFFCURVE",
"434.644 411.978 CURVE",
"438.289 363.889 OFFCURVE",
"436.822 320.111 OFFCURVE",
"436.822 272.6 CURVE SMOOTH",
"436.822 146.556 OFFCURVE",
"384.356 67.756 OFFCURVE",
"304.733 67.756 CURVE SMOOTH"
);
},
{
closed = 1;
nodes = (
"287.022 725.822 LINE",
"299.022 743 LINE",
"327.311 767.356 OFFCURVE",
"389.844 842.667 OFFCURVE",
"389.844 842.667 CURVE",
"329.822 887.556 LINE",
"329.822 887.556 OFFCURVE",
"266.933 807.356 OFFCURVE",
"243.467 786 CURVE",
"230.644 770.822 LINE",
"147.822 678.978 LINE",
"207.667 634.089 LINE"
);
}
);
width = 590.06667;
}
);
leftKerningGroup = o;
rightKerningGroup = eth;
unicode = 00F0;
},
{
glyphname = dcroat;
lastChange = "2019-02-18 20:30:01 +0000";
layers = (
{
components = (
{
name = d;
}
);
layerId = "8BC678DE-46B6-4C98-A96E-C0ED61786D32";
paths = (
{
closed = 1;
nodes = (
"593 647 LINE",
"593 700 LINE",
"292 700 LINE",
"292 647 LINE"
);
}
);
width = 605;
},
{
components = (
{
name = d;
}
);
layerId = "23A20576-2241-481A-AD5B-28E85381F753";
paths = (
{
closed = 1;
nodes = (
"659 631 LINE",
"659 729 LINE",
"310 729 LINE",
"310 631 LINE"
);
}
);
width = 674;
},
{
components = (
{
alignment = -1;
name = d;
}
);
layerId = "247DB4A4-D150-4133-9396-DC38172DD635";
paths = (
{
closed = 1;
nodes = (
"599.467 636.756 LINE",
"599.467 709.133 LINE",
"288.444 709.133 LINE",
"288.444 636.756 LINE"
);
}
);
width = 612.88889;
}
);
leftKerningGroup = d;
rightKerningGroup = d;
unicode = 0111;
},
{
glyphname = e;
lastChange = "2019-04-01 02:40:36 +0000";
layers = (
{
anchors = (
{
name = bottom;
position = "{278, 0}";
},
{
name = btm;
position = "{298, -83}";
},
{
name = ogonek;
position = "{404, 25}";
},
{
name = top;
position = "{296, 830}";
}
);
layerId = "8BC678DE-46B6-4C98-A96E-C0ED61786D32";
paths = (
{
closed = 1;
nodes = (
"364 -8 OFFCURVE",
"447 13 OFFCURVE",
"483 43 CURVE",
"466 96 LINE",
"437 77 OFFCURVE",
"367 54 OFFCURVE",
"316 54 CURVE SMOOTH",
"213 54 OFFCURVE",
"138 107 OFFCURVE",
"133 250 CURVE SMOOTH",
"128 433 OFFCURVE",
"201 506 OFFCURVE",
"297 506 CURVE SMOOTH",
"398 506 OFFCURVE",
"431 427 OFFCURVE",
"425 325 CURVE",
"109 325 LINE",
"102 270 LINE",
"498 270 LINE",
"502 293 OFFCURVE",
"502 320 OFFCURVE",
"502 355 CURVE SMOOTH",
"499 482 OFFCURVE",
"420 566 OFFCURVE",
"302 564 CURVE SMOOTH",
"142 563 OFFCURVE",
"53 443 OFFCURVE",
"53 276 CURVE SMOOTH",
"53 98 OFFCURVE",
"139 -8 OFFCURVE",
"295 -8 CURVE SMOOTH"
);
}
);
width = 555;
},
{
anchors = (
{
name = bottom;
position = "{298, 0}";
},
{
name = btm;
position = "{318, -83}";
},
{
name = ogonek;
position = "{402, 25}";
},
{
name = top;
position = "{319, 831}";
}
);
layerId = "23A20576-2241-481A-AD5B-28E85381F753";
paths = (
{
closed = 1;
nodes = (
"418 -8 OFFCURVE",
"502 22 OFFCURVE",
"539 52 CURVE",
"511 148 LINE",
"484 134 OFFCURVE",
"415 120 OFFCURVE",
"361 120 CURVE SMOOTH",
"274 120 OFFCURVE",
"223 158 OFFCURVE",
"221 255 CURVE SMOOTH",
"219 404 OFFCURVE",
"254 448 OFFCURVE",
"317 448 CURVE SMOOTH",
"372 448 OFFCURVE",
"392 407 OFFCURVE",
"387 326 CURVE",
"145 326 LINE",
"135 236 LINE",
"549 236 LINE",
"552 260 OFFCURVE",
"555 298 OFFCURVE",
"555 338 CURVE SMOOTH",
"553 517 OFFCURVE",
"439 564 OFFCURVE",
"321 564 CURVE SMOOTH",
"144 564 OFFCURVE",
"42 443 OFFCURVE",
"42 281 CURVE SMOOTH",
"42 100 OFFCURVE",
"139 -8 OFFCURVE",
"319 -8 CURVE SMOOTH"
);
}
);
width = 596;
},
{
anchors = (
{
name = bottom;
position = "{279, 0}";
},
{
name = btm;
position = "{300, -83}";
},
{
name = ogonek;
position = "{404, 25}";
},
{
name = top;
position = "{297, 830}";
}
);
layerId = "247DB4A4-D150-4133-9396-DC38172DD635";
paths = (
{
closed = 1;
nodes = (
"369 -8 OFFCURVE",
"453 13 OFFCURVE",
"490 43 CURVE",
"468 109 LINE",
"441 93 OFFCURVE",
"367 79 OFFCURVE",
"329 79 CURVE SMOOTH",
"239 79 OFFCURVE",
"169 120 OFFCURVE",
"163 246 CURVE SMOOTH",
"157 425 OFFCURVE",
"217 482 OFFCURVE",
"295 482 CURVE SMOOTH",
"388 482 OFFCURVE",
"406 406 OFFCURVE",
"401 326 CURVE",
"126 326 LINE",
"116 253 LINE",
"504 253 LINE",
"509 278 OFFCURVE",
"509 311 OFFCURVE",
"509 353 CURVE SMOOTH",
"505 496 OFFCURVE",
"413 566 OFFCURVE",
"301 564 CURVE SMOOTH",
"137 562 OFFCURVE",
"49 441 OFFCURVE",
"49 279 CURVE SMOOTH",
"49 99 OFFCURVE",
"139 -8 OFFCURVE",
"299 -8 CURVE SMOOTH"
);
}
);
width = 558;
}
);
leftKerningGroup = o;
rightKerningGroup = e;
unicode = 0065;
},
{
glyphname = schwa;
lastChange = "2019-03-29 19:30:37 +0000";
layers = (
{
anchors = (
{
name = bottom;
position = "{256.566, -273.078}";
},
{
name = btm;
position = "{258, -83}";
},
{
name = top;
position = "{259, 831}";
}
);
layerId = "8BC678DE-46B6-4C98-A96E-C0ED61786D32";
paths = (
{
closed = 1;
nodes = (
"189 565 OFFCURVE",
"106 544 OFFCURVE",
"70 514 CURVE",
"85 466 LINE",
"114 485 OFFCURVE",
"186 503 OFFCURVE",
"237 503 CURVE SMOOTH",
"340 503 OFFCURVE",
"415 450 OFFCURVE",
"420 307 CURVE SMOOTH",
"425 124 OFFCURVE",
"352 51 OFFCURVE",
"256 51 CURVE SMOOTH",
"155 51 OFFCURVE",
"122 130 OFFCURVE",
"128 232 CURVE",
"444 232 LINE",
"451 287 LINE",
"55 287 LINE",
"51 264 OFFCURVE",
"51 237 OFFCURVE",
"51 202 CURVE SMOOTH",
"54 75 OFFCURVE",
"133 -9 OFFCURVE",
"251 -7 CURVE SMOOTH",
"411 -6 OFFCURVE",
"500 114 OFFCURVE",
"500 281 CURVE SMOOTH",
"500 459 OFFCURVE",
"414 565 OFFCURVE",
"258 565 CURVE SMOOTH"
);
}
);
width = 551;
},
{
anchors = (
{
name = bottom;
position = "{277.152, -273.566}";
},
{
name = btm;
position = "{279, -83}";
},
{
name = top;
position = "{280, 831}";
}
);
layerId = "23A20576-2241-481A-AD5B-28E85381F753";
paths = (
{
closed = 1;
nodes = (
"178 565 OFFCURVE",
"94 535 OFFCURVE",
"57 505 CURVE",
"85 409 LINE",
"112 423 OFFCURVE",
"181 437 OFFCURVE",
"235 437 CURVE SMOOTH",
"322 437 OFFCURVE",
"373 399 OFFCURVE",
"375 302 CURVE SMOOTH",
"377 153 OFFCURVE",
"342 109 OFFCURVE",
"279 109 CURVE SMOOTH",
"224 109 OFFCURVE",
"204 150 OFFCURVE",
"209 231 CURVE",
"451 231 LINE",
"461 321 LINE",
"47 321 LINE",
"44 297 OFFCURVE",
"41 259 OFFCURVE",
"41 219 CURVE SMOOTH",
"43 40 OFFCURVE",
"157 -7 OFFCURVE",
"275 -7 CURVE SMOOTH",
"452 -7 OFFCURVE",
"554 114 OFFCURVE",
"554 276 CURVE SMOOTH",
"554 457 OFFCURVE",
"457 565 OFFCURVE",
"277 565 CURVE SMOOTH"
);
}
);
width = 596;
},
{
anchors = (
{
name = bottom;
position = "{259.151, -273.165}";
},
{
name = btm;
position = "{257.2, -83}";
},
{
name = top;
position = "{258.2, 831}";
}
);
layerId = "247DB4A4-D150-4133-9396-DC38172DD635";
paths = (
{
closed = 1;
nodes = (
"186.644 565 OFFCURVE",
"102.822 543.933 OFFCURVE",
"65.822 513.933 CURVE",
"87.533 447.667 LINE",
"115.067 464.489 OFFCURVE",
"189.067 478.311 OFFCURVE",
"226.422 478.311 CURVE SMOOTH",
"317.067 478.311 OFFCURVE",
"387.222 436.6 OFFCURVE",
"392.689 310.933 CURVE SMOOTH",
"398.978 132.2 OFFCURVE",
"338.711 74.689 OFFCURVE",
"260.667 74.689 CURVE SMOOTH",
"168 74.689 OFFCURVE",
"150.289 150.644 OFFCURVE",
"155.289 231 CURVE",
"429.844 231 LINE",
"439.844 304.311 LINE",
"52.178 304.311 LINE",
"47.356 279.311 OFFCURVE",
"47 245.6 OFFCURVE",
"47 204.422 CURVE SMOOTH",
"50.644 60.511 OFFCURVE",
"143.133 -8.822 OFFCURVE",
"254.844 -7 CURVE SMOOTH",
"419.267 -5.178 OFFCURVE",
"507.044 115.822 OFFCURVE",
"507.044 277.822 CURVE SMOOTH",
"507.044 457.822 OFFCURVE",
"417.333 565 OFFCURVE",
"257.2 565 CURVE SMOOTH"
);
}
);
width = 553.86667;
}
);
leftKerningGroup = schwa;
rightKerningGroup = schwa;
unicode = 0259;
},
{
glyphname = ezh;
lastChange = "2019-03-30 17:38:23 +0000";
layers = (
{
anchors = (
{
name = bottom;
position = "{242, 0}";
},
{
name = top;
position = "{216, 831}";
}
);
layerId = "23A20576-2241-481A-AD5B-28E85381F753";
paths = (
{
closed = 1;
nodes = (
"365 -150 OFFCURVE",
"455 -32 OFFCURVE",
"455 91 CURVE SMOOTH",
"455 176 OFFCURVE",
"397 256 OFFCURVE",
"281 266 CURVE",
"472 490 LINE",
"434 557 LINE",
"35 557 LINE",
"35 426 LINE",
"267 426 LINE",
"208 368 LINE",
"94 248 LINE",
"167 163 LINE",
"227 178 OFFCURVE",
"295 146 OFFCURVE",
"295 89 CURVE SMOOTH",
"295 33 OFFCURVE",
"263 -13 OFFCURVE",
"117 -13 CURVE SMOOTH",
"94 -13 OFFCURVE",
"69 -12 OFFCURVE",
"44 -3 CURVE",
"43 -143 LINE",
"73 -145 OFFCURVE",
"103 -150 OFFCURVE",
"134 -150 CURVE SMOOTH"
);
}
);
width = 502;
},
{
anchors = (
{
name = bottom;
position = "{237, 0}";
},
{
name = top;
position = "{226, 831}";
}
);
layerId = "8BC678DE-46B6-4C98-A96E-C0ED61786D32";
paths = (
{
closed = 1;
nodes = (
"346 -147 OFFCURVE",
"437 -48 OFFCURVE",
"437 85 CURVE SMOOTH",
"437 189 OFFCURVE",
"344 259 OFFCURVE",
"225 262 CURVE",
"428 516 LINE",
"405 557 LINE",
"55 557 LINE",
"55 489 LINE",
"328 489 LINE",
"289 452 LINE",
"132 252 LINE",
"180 215 LINE",
"274 216 OFFCURVE",
"355 171 OFFCURVE",
"355 74 CURVE SMOOTH",
"355 -25 OFFCURVE",
"290 -89 OFFCURVE",
"154 -89 CURVE SMOOTH",
"121 -89 OFFCURVE",
"84 -89 OFFCURVE",
"55 -84 CURVE",
"56 -143 LINE",
"89 -144 OFFCURVE",
"133 -147 OFFCURVE",
"168 -147 CURVE SMOOTH"
);
}
);
width = 482;
},
{
anchors = (
{
name = bottom;
position = "{238, 0}";
},
{
name = top;
position = "{227, 831}";
}
);
layerId = "247DB4A4-D150-4133-9396-DC38172DD635";
paths = (
{
closed = 1;
nodes = (
"326 -147 OFFCURVE",
"429 -49 OFFCURVE",
"429 82 CURVE SMOOTH",
"429 182 OFFCURVE",
"338 244 OFFCURVE",
"233 256 CURVE",
"427 500 LINE",
"390 557 LINE",
"48 557 LINE",
"48 470 LINE",
"289 470 LINE",
"239 418 LINE",
"99 240 LINE",
"162 184 LINE",
"245 184 OFFCURVE",
"313 160 OFFCURVE",
"313 71 CURVE SMOOTH",
"313 -8 OFFCURVE",
"243 -67 OFFCURVE",
"132 -64 CURVE SMOOTH",
"99 -63 OFFCURVE",
"77 -60 OFFCURVE",
"48 -55 CURVE",
"49 -143 LINE",
"82 -144 OFFCURVE",
"115 -147 OFFCURVE",
"150 -147 CURVE SMOOTH"
);
}
);
width = 473;
}
);
leftKerningGroup = ezh;
rightKerningGroup = ezh;
unicode = 0292;
},
{
glyphname = f;
lastChange = "2019-04-01 17:29:26 +0000";
layers = (
{
anchors = (
{
name = bottom;
position = "{196, 0}";
},
{
name = btm;
position = "{188, -83}";
},
{
name = top;
position = "{159, 1015}";
}
);
layerId = "8BC678DE-46B6-4C98-A96E-C0ED61786D32";
paths = (
{
closed = 1;
nodes = (
"214 0 LINE",
"214 495 LINE",
"362 495 LINE",
"362 557 LINE",
"214 557 LINE",
"214 619 LINE SMOOTH",
"214 709 OFFCURVE",
"254 756 OFFCURVE",
"313 756 CURVE SMOOTH",
"352 756 OFFCURVE",
"373 752 OFFCURVE",
"391 746 CURVE",
"391 811 LINE",
"380 815 OFFCURVE",
"354 821 OFFCURVE",
"324 821 CURVE SMOOTH",
"235 821 OFFCURVE",
"133 767 OFFCURVE",
"133 602 CURVE SMOOTH",
"133 557 LINE",
"37 540 LINE",
"37 495 LINE",
"133 495 LINE",
"133 0 LINE"
);
}
);
width = 391;
},
{
anchors = (
{
name = bottom;
position = "{215, 0}";
},
{
name = btm;
position = "{205, -83}";
},
{
name = top;
position = "{152, 1032}";
}
);
layerId = "23A20576-2241-481A-AD5B-28E85381F753";
paths = (
{
closed = 1;
nodes = (
"290 0 LINE",
"290 438 LINE",
"411 438 LINE",
"411 557 LINE",
"290 557 LINE",
"290 607 LINE SMOOTH",
"290 672 OFFCURVE",
"318 699 OFFCURVE",
"360 699 CURVE SMOOTH",
"395 699 OFFCURVE",
"419 693 OFFCURVE",
"432 687 CURVE",
"432 811 LINE",
"419 814 OFFCURVE",
"381 822 OFFCURVE",
"324 822 CURVE SMOOTH",
"222 822 OFFCURVE",
"108 774 OFFCURVE",
"108 614 CURVE SMOOTH",
"108 557 LINE",
"39 543 LINE",
"39 438 LINE",
"108 438 LINE",
"108 0 LINE"
);
}
);
width = 430;
},
{
anchors = (
{
name = bottom;
position = "{200.133, 0}";
},
{
name = btm;
position = "{189.844, -83}";
},
{
name = top;
position = "{142, 1018}";
}
);
layerId = "247DB4A4-D150-4133-9396-DC38172DD635";
paths = (
{
closed = 1;
nodes = (
"235.933 0 LINE",
"235.933 471.556 LINE",
"371.689 471.556 LINE",
"371.689 557 LINE",
"235.933 557 LINE",
"235.933 626.156 LINE SMOOTH",
"235.933 696.622 OFFCURVE",
"268.756 731.267 OFFCURVE",
"314.756 731.267 CURVE SMOOTH",
"357.689 731.267 OFFCURVE",
"378.222 728.089 OFFCURVE",
"397.333 721.911 CURVE",
"397.333 811 LINE",
"386.978 814.178 OFFCURVE",
"355.311 821.178 OFFCURVE",
"323.178 821.178 CURVE SMOOTH",
"232.111 821.178 OFFCURVE",
"120.111 771.356 OFFCURVE",
"120.111 605.889 CURVE SMOOTH",
"120.111 557 LINE",
"37.533 535.889 LINE",
"37.533 471.556 LINE",
"120.111 471.556 LINE",
"120.111 0 LINE"
);
}
);
width = 400.08889;
}
);
leftKerningGroup = f;
rightKerningGroup = f;
unicode = 0066;
},
{
glyphname = g;
lastChange = "2019-04-01 04:53:46 +0000";
layers = (
{
anchors = (
{
name = bottom;
position = "{299, -273}";
},
{
name = top;
position = "{278, 830}";
}
);
layerId = "8BC678DE-46B6-4C98-A96E-C0ED61786D32";
paths = (
{
closed = 1;
nodes = (
"433 -252 OFFCURVE",
"553 -184 OFFCURVE",
"553 -74 CURVE SMOOTH",
"553 -4 OFFCURVE",
"521 64 OFFCURVE",
"362 64 CURVE SMOOTH",
"241 64 LINE SMOOTH",
"182 64 OFFCURVE",
"161 79 OFFCURVE",
"161 126 CURVE SMOOTH",
"161 160 OFFCURVE",
"196 193 OFFCURVE",
"218 203 CURVE",
"166 218 LINE",
"124 189 OFFCURVE",
"87 145 OFFCURVE",
"87 106 CURVE SMOOTH",
"87 70 OFFCURVE",
"95 32 OFFCURVE",
"144 16 CURVE SMOOTH",
"150 14 OFFCURVE",
"156 9 OFFCURVE",
"162 8 CURVE SMOOTH",
"184 4 OFFCURVE",
"214 0 OFFCURVE",
"253 0 CURVE SMOOTH",
"328 0 LINE SMOOTH",
"438 0 OFFCURVE",
"475 -27 OFFCURVE",
"475 -91 CURVE SMOOTH",
"475 -163 OFFCURVE",
"383 -196 OFFCURVE",
"287 -196 CURVE SMOOTH",
"181 -196 OFFCURVE",
"131 -163 OFFCURVE",
"131 -85 CURVE SMOOTH",
"131 -27 OFFCURVE",
"171 3 OFFCURVE",
"195 20 CURVE",
"140 28 LINE",
"105 13 OFFCURVE",
"51 -32 OFFCURVE",
"51 -95 CURVE SMOOTH",
"51 -206 OFFCURVE",
"143 -252 OFFCURVE",
"284 -252 CURVE SMOOTH"
);
},
{
closed = 1;
nodes = (
"404 186 OFFCURVE",
"502 254 OFFCURVE",
"502 380 CURVE SMOOTH",
"502 508 OFFCURVE",
"401 567 OFFCURVE",
"285 564 CURVE SMOOTH",
"166 562 OFFCURVE",
"69 502 OFFCURVE",
"69 370 CURVE SMOOTH",
"69 258 OFFCURVE",
"162 186 OFFCURVE",
"282 186 CURVE SMOOTH"
);
},
{
closed = 1;
nodes = (
"196 240 OFFCURVE",
"150 298 OFFCURVE",
"150 374 CURVE SMOOTH",
"150 478 OFFCURVE",
"217 508 OFFCURVE",
"289 509 CURVE SMOOTH",
"371 509 OFFCURVE",
"421 466 OFFCURVE",
"421 377 CURVE SMOOTH",
"421 278 OFFCURVE",
"364 240 OFFCURVE",
"283 240 CURVE SMOOTH"
);
},
{
closed = 1;
nodes = (
"575 490 LINE",
"575 555 LINE",
"529 555 LINE SMOOTH",
"479 555 OFFCURVE",
"424 537 OFFCURVE",
"409 522 CURVE",
"438 490 LINE"
);
}
);
width = 598;
},
{
anchors = (
{
name = bottom;
position = "{328, -273}";
},
{
name = top;
position = "{303, 830}";
}
);
layerId = "23A20576-2241-481A-AD5B-28E85381F753";
paths = (
{
closed = 1;
nodes = (
"473 -253 OFFCURVE",
"625 -183 OFFCURVE",
"625 -35 CURVE SMOOTH",
"625 44 OFFCURVE",
"574 114 OFFCURVE",
"401 114 CURVE SMOOTH",
"300 114 LINE SMOOTH",
"247 114 OFFCURVE",
"229 123 OFFCURVE",
"229 150 CURVE SMOOTH",
"229 168 OFFCURVE",
"239 191 OFFCURVE",
"268 202 CURVE",
"171 216 LINE",
"91 188 OFFCURVE",
"79 137 OFFCURVE",
"78 98 CURVE SMOOTH",
"77 53 OFFCURVE",
"102 34 OFFCURVE",
"152 24 CURVE SMOOTH",
"170 21 OFFCURVE",
"166 19 OFFCURVE",
"183 15 CURVE SMOOTH",
"198 12 OFFCURVE",
"207 5 OFFCURVE",
"224 5 CURVE SMOOTH",
"345 5 LINE SMOOTH",
"436 5 OFFCURVE",
"451 -29 OFFCURVE",
"451 -72 CURVE SMOOTH",
"451 -131 OFFCURVE",
"397 -154 OFFCURVE",
"324 -154 CURVE SMOOTH",
"230 -154 OFFCURVE",
"209 -101 OFFCURVE",
"209 -51 CURVE SMOOTH",
"209 -5 OFFCURVE",
"237 19 OFFCURVE",
"251 30 CURVE",
"154 36 LINE",
"77 16 OFFCURVE",
"37 -26 OFFCURVE",
"37 -83 CURVE SMOOTH",
"37 -186 OFFCURVE",
"117 -250 OFFCURVE",
"314 -252 CURVE SMOOTH"
);
},
{
closed = 1;
nodes = (
"474 187 OFFCURVE",
"554 255 OFFCURVE",
"554 376 CURVE SMOOTH",
"554 495 OFFCURVE",
"460 564 OFFCURVE",
"303 564 CURVE SMOOTH",
"149 564 OFFCURVE",
"56 494 OFFCURVE",
"56 373 CURVE SMOOTH",
"56 252 OFFCURVE",
"154 187 OFFCURVE",
"303 187 CURVE SMOOTH"
);
},
{
closed = 1;
nodes = (
"247 281 OFFCURVE",
"229 323 OFFCURVE",
"229 375 CURVE SMOOTH",
"229 441 OFFCURVE",
"254 461 OFFCURVE",
"306 461 CURVE SMOOTH",
"362 461 OFFCURVE",
"390 432 OFFCURVE",
"390 374 CURVE SMOOTH",
"390 298 OFFCURVE",
"355 281 OFFCURVE",
"304 281 CURVE SMOOTH"
);
},
{
closed = 1;
nodes = (
"648 432 LINE",
"648 557 LINE",
"576 557 LINE SMOOTH",
"519 557 OFFCURVE",
"479 525 OFFCURVE",
"467 508 CURVE",
"485 432 LINE"
);
}
);
width = 660;
},
{
anchors = (
{
name = bottom;
position = "{300.911, -273}";
},
{
name = top;
position = "{282.333, 830.178}";
}
);
layerId = "247DB4A4-D150-4133-9396-DC38172DD635";
paths = (
{
closed = 1;
nodes = (
"434 -252 OFFCURVE",
"559 -183 OFFCURVE",
"559 -67 CURVE SMOOTH",
"559 10 OFFCURVE",
"525 90 OFFCURVE",
"353 90 CURVE SMOOTH",
"253 90 LINE SMOOTH",
"207 90 OFFCURVE",
"189 101 OFFCURVE",
"189 142 CURVE SMOOTH",
"189 168 OFFCURVE",
"212.4 193.311 OFFCURVE",
"236.578 202.956 CURVE",
"165.2 221.067 LINE",
"115.044 192.244 OFFCURVE",
"82 148 OFFCURVE",
"82 109 CURVE SMOOTH",
"82 75 OFFCURVE",
"95 37 OFFCURVE",
"145 18 CURVE SMOOTH",
"153 15 OFFCURVE",
"160 9 OFFCURVE",
"168 7 CURVE SMOOTH",
"191 1 OFFCURVE",
"220 0 OFFCURVE",
"258 0 CURVE SMOOTH",
"313 0 LINE SMOOTH",
"425 0 OFFCURVE",
"449 -33 OFFCURVE",
"449 -92 CURVE SMOOTH",
"449 -148 OFFCURVE",
"375 -176 OFFCURVE",
"289 -176 CURVE SMOOTH",
"196 -176 OFFCURVE",
"160 -138 OFFCURVE",
"160 -72 CURVE SMOOTH",
"160 -14 OFFCURVE",
"195 3 OFFCURVE",
"216 22 CURVE",
"142 33 LINE",
"100 16 OFFCURVE",
"47 -26 OFFCURVE",
"47 -88 CURVE SMOOTH",
"47 -199 OFFCURVE",
"138 -252 OFFCURVE",
"285 -252 CURVE SMOOTH"
);
},
{
closed = 1;
nodes = (
"413.889 190.133 OFFCURVE",
"509.822 256.422 OFFCURVE",
"509.822 378.889 CURVE SMOOTH",
"509.822 508.711 OFFCURVE",
"407.711 566.822 OFFCURVE",
"283.733 564 CURVE SMOOTH",
"155.822 562.178 OFFCURVE",
"60.822 503.067 OFFCURVE",
"60.822 373.067 CURVE SMOOTH",
"60.822 264.489 OFFCURVE",
"155.889 190.133 OFFCURVE",
"281.733 190.133 CURVE SMOOTH"
);
},
{
closed = 1;
nodes = (
"206.933 265.044 OFFCURVE",
"174.111 316.311 OFFCURVE",
"174.111 377.533 CURVE SMOOTH",
"174.111 466.622 OFFCURVE",
"227.978 488.089 OFFCURVE",
"289.911 488.089 CURVE SMOOTH",
"361.956 488.089 OFFCURVE",
"397.067 448.689 OFFCURVE",
"397.067 375.533 CURVE SMOOTH",
"397.067 290.089 OFFCURVE",
"352.889 265.044 OFFCURVE",
"284.556 265.044 CURVE SMOOTH"
);
},
{
closed = 1;
nodes = (
"588.711 469.844 LINE",
"588.711 560.289 LINE",
"532.467 560.289 LINE SMOOTH",
"480.4 560.289 OFFCURVE",
"431.422 534.867 OFFCURVE",
"416.956 516.4 CURVE",
"448.4 469.844 LINE"
);
}
);
width = 601.64444;
}
);
leftKerningGroup = g;
rightKerningGroup = g;
unicode = 0067;
},
{
glyphname = h;
lastChange = "2019-04-01 02:43:11 +0000";
layers = (
{
anchors = (
{
name = bottom;
position = "{320, 0}";
},
{
name = btm;
position = "{328, -83}";
},
{
name = center;
position = "{320, 492}";
},
{
name = top;
position = "{135, 869}";
}
);
layerId = "8BC678DE-46B6-4C98-A96E-C0ED61786D32";
paths = (
{
closed = 1;
nodes = (
"176 0 LINE",
"176 429 LINE",
"220 463 OFFCURVE",
"288 495 OFFCURVE",
"343 497 CURVE SMOOTH",
"438 500 OFFCURVE",
"467 457 OFFCURVE",
"467 336 CURVE SMOOTH",
"467 0 LINE",
"548 0 LINE",
"548 331 LINE SMOOTH",
"549 504 OFFCURVE",
"499 567 OFFCURVE",
"376 565 CURVE SMOOTH",
"293 563 OFFCURVE",
"207 518 OFFCURVE",
"167 485 CURVE",
"171 479 LINE",
"176 565 LINE",
"176 813 LINE",
"94 813 LINE",
"94 0 LINE"
);
}
);
width = 640;
},
{
anchors = (
{
name = bottom;
position = "{329, 0}";
},
{
name = btm;
position = "{330, -83}";
},
{
name = center;
position = "{329, 492}";
},
{
name = top;
position = "{159, 869}";
}
);
layerId = "23A20576-2241-481A-AD5B-28E85381F753";
paths = (
{
closed = 1;
nodes = (
"251 0 LINE",
"251 387 LINE",
"278 414 OFFCURVE",
"317 423 OFFCURVE",
"340 423 CURVE SMOOTH",
"388 424 OFFCURVE",
"411 403 OFFCURVE",
"411 318 CURVE SMOOTH",
"411 0 LINE",
"593 0 LINE",
"593 349 LINE SMOOTH",
"593 498 OFFCURVE",
"537 568 OFFCURVE",
"416 565 CURVE SMOOTH",
"341 564 OFFCURVE",
"271 525 OFFCURVE",
"236 493 CURVE",
"241 478 LINE",
"251 603 LINE",
"251 812 LINE",
"70 812 LINE",
"70 0 LINE"
);
}
);
width = 657;
},
{
anchors = (
{
name = bottom;
position = "{317.667, 0}";
},
{
name = btm;
position = "{328.356, -83}";
},
{
name = center;
position = "{317.667, 492}";
},
{
name = top;
position = "{143.378, 869}";
}
);
layerId = "247DB4A4-D150-4133-9396-DC38172DD635";
paths = (
{
closed = 1;
nodes = (
"200.289 0 LINE",
"200.289 418.844 LINE",
"243.333 451.311 OFFCURVE",
"297.911 467.422 OFFCURVE",
"333.311 468.244 CURVE SMOOTH",
"414.4 471.889 OFFCURVE",
"437.044 432.489 OFFCURVE",
"437.044 341.489 CURVE SMOOTH",
"437.044 0 LINE",
"552.222 0 LINE",
"552.222 340.422 LINE SMOOTH",
"552.222 503.244 OFFCURVE",
"500.089 568.356 OFFCURVE",
"378.733 565.178 CURVE SMOOTH",
"307.333 563.178 OFFCURVE",
"229.222 528.644 OFFCURVE",
"188.933 496.467 CURVE",
"194.578 483.289 LINE",
"200.289 584.022 LINE",
"200.289 812.822 LINE",
"85.289 812.822 LINE",
"85.289 0 LINE"
);
}
);
width = 634;
}
);
leftKerningGroup = h;
rightKerningGroup = n;
rightMetricsKey = n;
unicode = 0068;
},
{
glyphname = hbar;
lastChange = "2019-02-18 20:30:01 +0000";
layers = (
{
components = (
{
name = h;
}
);
layerId = "8BC678DE-46B6-4C98-A96E-C0ED61786D32";
paths = (
{
closed = 1;
nodes = (
"308 639 LINE",
"308 688 LINE",
"21 688 LINE",
"21 639 LINE"
);
}
);
width = 639;
},
{
components = (
{
name = h;
}
);
layerId = "23A20576-2241-481A-AD5B-28E85381F753";
paths = (
{
closed = 1;
nodes = (
"363 633 LINE",
"363 732 LINE",
"15 732 LINE",
"15 633 LINE"
);
}
);
width = 674;
},
{
components = (
{
alignment = -1;
name = h;
}
);
layerId = "247DB4A4-D150-4133-9396-DC38172DD635";
paths = (
{
closed = 1;
nodes = (
"313.4 627.711 LINE",
"313.4 695.978 LINE",
"18 695.978 LINE",
"18 627.711 LINE"
);
}
);
width = 634.51111;
}
);
leftKerningGroup = h;
rightKerningGroup = n;
unicode = 0127;
},
{
glyphname = idotless;
lastChange = "2019-04-01 02:26:40 +0000";
layers = (
{
anchors = (
{
name = bottom;
position = "{139, 0}";
},
{
name = btm;
position = "{138, -83}";
},
{
name = ogonek;
position = "{215, 25}";
},
{
name = top;
position = "{138, 830}";
}
);
layerId = "8BC678DE-46B6-4C98-A96E-C0ED61786D32";
paths = (
{
closed = 1;
nodes = (
"179 0 LINE",
"179 556 LINE",
"98 556 LINE",
"98 0 LINE"
);
}
);
width = 277;
},
{
anchors = (
{
name = bottom;
position = "{165, 0}";
},
{
name = btm;
position = "{164, -83}";
},
{
name = ogonek;
position = "{236, 25}";
},
{
name = top;
position = "{164, 830}";
}
);
layerId = "23A20576-2241-481A-AD5B-28E85381F753";
paths = (
{
closed = 1;
nodes = (
"255 0 LINE",
"255 557 LINE",
"74 557 LINE",
"74 0 LINE"
);
}
);
width = 329;
},
{
anchors = (
{
name = bottom;
position = "{147, 0}";
},
{
name = btm;
position = "{148, -83}";
},
{
name = ogonek;
position = "{221, 25}";
},
{
name = top;
position = "{147, 830}";
}
);
layerId = "247DB4A4-D150-4133-9396-DC38172DD635";
paths = (
{
closed = 1;
nodes = (
"205 0 LINE",
"205 556 LINE",
"90 556 LINE",
"90 0 LINE"
);
}
);
width = 295;
}
);
leftKerningGroup = i;
rightKerningGroup = i;
unicode = 0131;
},
{
glyphname = jdotless;
lastChange = "2019-03-31 01:30:59 +0000";
layers = (
{
anchors = (
{
name = bottom;
position = "{137, -273}";
},
{
name = top;
position = "{148, 830}";
}
);
layerId = "8BC678DE-46B6-4C98-A96E-C0ED61786D32";
paths = (
{
closed = 1;
nodes = (
"-39 -245 OFFCURVE",
"1 -248 OFFCURVE",
"19 -248 CURVE SMOOTH",
"129 -248 OFFCURVE",
"184 -170 OFFCURVE",
"184 11 CURVE SMOOTH",
"184 556 LINE",
"103 556 LINE",
"103 -20 LINE SMOOTH",
"103 -139 OFFCURVE",
"76 -190 OFFCURVE",
"10 -190 CURVE SMOOTH",
"-9 -190 OFFCURVE",
"-36 -185 OFFCURVE",
"-46 -181 CURVE",
"-46 -241 LINE"
);
}
);
width = 274;
},
{
anchors = (
{
name = bottom;
position = "{166, -273}";
},
{
name = top;
position = "{171, 831}";
}
);
background = {
components = (
{
name = idotless;
}
);
};
layerId = "23A20576-2241-481A-AD5B-28E85381F753";
paths = (
{
closed = 1;
nodes = (
"-36 -240 OFFCURVE",
"12 -248 OFFCURVE",
"45 -248 CURVE SMOOTH",
"177 -248 OFFCURVE",
"259 -178 OFFCURVE",
"259 40 CURVE SMOOTH",
"259 557 LINE",
"82 557 LINE",
"82 1 LINE SMOOTH",
"82 -101 OFFCURVE",
"59 -131 OFFCURVE",
"15 -131 CURVE SMOOTH",
"-10 -131 OFFCURVE",
"-43 -125 OFFCURVE",
"-51 -121 CURVE",
"-51 -235 LINE"
);
}
);
width = 331;
},
{
anchors = (
{
name = bottom;
position = "{143.022, -273}";
},
{
name = top;
position = "{151.956, 830.178}";
}
);
layerId = "247DB4A4-D150-4133-9396-DC38172DD635";
paths = (
{
closed = 1;
nodes = (
"-32.422 -245.111 OFFCURVE",
"14.356 -248 OFFCURVE",
"30.067 -248 CURVE SMOOTH",
"143.733 -248 OFFCURVE",
"208.222 -172.756 OFFCURVE",
"208.222 21.911 CURVE SMOOTH",
"208.222 556.178 LINE",
"92.4 556.178 LINE",
"92.4 -18.911 LINE SMOOTH",
"92.4 -119.222 OFFCURVE",
"74.867 -167.733 OFFCURVE",
"16.689 -167.733 CURVE SMOOTH",
"-0.133 -167.733 OFFCURVE",
"-30.489 -162.556 OFFCURVE",
"-41.133 -157.733 CURVE",
"-41.133 -240.111 LINE"
);
}
);
width = 286.04444;
}
);
leftKerningGroup = j;
rightKerningGroup = i;
unicode = 0237;
},
{
glyphname = k;
lastChange = "2019-04-01 04:17:23 +0000";
layers = (
{
anchors = (
{
name = bottom;
position = "{287, 0}";
},
{
name = btm;
position = "{299, -83}";
},
{
name = top;
position = "{330, 830}";
}
);
layerId = "8BC678DE-46B6-4C98-A96E-C0ED61786D32";
paths = (
{
closed = 1;
nodes = (
"435 556 LINE",
"147 262 LINE",
"169 248 LINE",
"172 346 LINE",
"172 811 LINE",
"94 811 LINE",
"94 273 LINE",
"94 0 LINE",
"172 0 LINE",
"172 109 LINE",
"170 208 LINE",
"161 187 LINE",
"532 556 LINE"
);
},
{
closed = 1;
nodes = (
"462 0 LINE",
"556 0 LINE",
"309 346 LINE",
"253 294 LINE"
);
}
);
width = 571;
},
{
anchors = (
{
name = bottom;
position = "{306, 0}";
},
{
name = btm;
position = "{320, -83}";
},
{
name = top;
position = "{408, 830}";
}
);
layerId = "23A20576-2241-481A-AD5B-28E85381F753";
paths = (
{
closed = 1;
nodes = (
"411 557 LINE",
"219 324 LINE",
"240 299 LINE",
"248 504 LINE",
"248 811 LINE",
"70 811 LINE",
"70 331 LINE",
"70 0 LINE",
"248 0 LINE",
"248 92 LINE",
"246 189 LINE",
"241 152 LINE",
"617 557 LINE"
);
},
{
closed = 1;
nodes = (
"429 0 LINE",
"630 0 LINE",
"409 358 LINE",
"291 233 LINE"
);
}
);
width = 620;
},
{
anchors = (
{
name = bottom;
position = "{290, 0}";
},
{
name = btm;
position = "{304, -83}";
},
{
name = top;
position = "{337, 830}";
}
);
layerId = "247DB4A4-D150-4133-9396-DC38172DD635";
paths = (
{
closed = 1;
nodes = (
"414 557 LINE",
"166 284 LINE",
"193 265 LINE",
"197 387 LINE",
"197 811 LINE",
"85 811 LINE",
"85 331 LINE",
"85 0 LINE",
"197 0 LINE",
"197 108 LINE",
"195 204 LINE",
"185 177 LINE",
"549 557 LINE"
);
},
{
closed = 1;
nodes = (
"442 0 LINE",
"573 0 LINE",
"333 349 LINE",
"255 274 LINE"
);
}
);
width = 577;
}
);
leftKerningGroup = h;
leftMetricsKey = h;
rightKerningGroup = k;
unicode = 006B;
},
{
glyphname = kgreenlandic;
lastChange = "2019-02-18 20:30:01 +0000";
layers = (
{
anchors = (
{
name = bottom;
position = "{286, 0}";
},
{
name = top;
position = "{286, 557}";
}
);
layerId = "8BC678DE-46B6-4C98-A96E-C0ED61786D32";
paths = (
{
closed = 1;
nodes = (
"447 556 LINE",
"154 240 LINE",
"175 227 LINE",
"178 313 LINE",
"178 557 LINE",
"96 557 LINE",
"97 0 LINE",
"179 0 LINE",
"179 98 LINE",
"176 187 LINE",
"167 166 LINE",
"541 556 LINE"
);
},
{
closed = 1;
nodes = (
"466 0 LINE",
"560 0 LINE",
"316 332 LINE",
"261 281 LINE"
);
}
);
width = 572;
},
{
anchors = (
{
name = bottom;
position = "{313, 0}";
},
{
name = top;
position = "{313, 557}";
}
);
layerId = "23A20576-2241-481A-AD5B-28E85381F753";
paths = (
{
closed = 1;
nodes = (
"422 557 LINE",
"234 301 LINE",
"255 290 LINE",
"261 405 LINE",
"261 557 LINE",
"80 557 LINE",
"80 0 LINE",
"261 0 LINE",
"261 79 LINE",
"261 161 LINE",
"253 124 LINE",
"623 557 LINE"
);
},
{
closed = 1;
nodes = (
"432 0 LINE",
"637 0 LINE",
"418 350 LINE",
"299 218 LINE"
);
}
);
width = 626;
},
{
anchors = (
{
name = bottom;
position = "{289.022, 0}";
},
{
name = top;
position = "{289.022, 557}";
}
);
layerId = "247DB4A4-D150-4133-9396-DC38172DD635";
paths = (
{
closed = 1;
nodes = (
"428.644 557 LINE",
"173.644 253.267 LINE",
"199.111 235.978 LINE",
"203.289 332.311 LINE",
"203.289 557 LINE",
"87.467 557 LINE",
"89.111 0 LINE",
"204.111 0 LINE",
"204.111 90.333 LINE",
"201.467 175.156 LINE",
"191.822 147.911 LINE",
"559.356 557 LINE"
);
},
{
closed = 1;
nodes = (
"446.578 0 LINE",
"577.822 0 LINE",
"341.778 331.133 LINE",
"262.978 256.556 LINE"
);
}
);
width = 577.22222;
}
);
leftKerningGroup = h;
rightKerningGroup = k;
unicode = 0138;
},
{
glyphname = l;
lastChange = "2019-04-01 02:28:27 +0000";
layers = (
{
anchors = (
{
name = bottom;
position = "{136, 0}";
},
{
name = btm;
position = "{129, -83}";
},
{
name = center;
position = "{136, 492}";
},
{
name = top;
position = "{137, 871}";
},
{
name = topright;
position = "{261, 983}";
}
);
layerId = "8BC678DE-46B6-4C98-A96E-C0ED61786D32";
paths = (
{
closed = 1;
nodes = (
"177 0 LINE",
"177 813 LINE",
"95 813 LINE",
"95 0 LINE"
);
}
);
width = 272;
},
{
anchors = (
{
name = bottom;
position = "{158, 0}";
},
{
name = btm;
position = "{154, -83}";
},
{
name = center;
position = "{158, 492}";
},
{
name = top;
position = "{157, 904}";
},
{
name = topright;
position = "{306, 983}";
}
);
layerId = "23A20576-2241-481A-AD5B-28E85381F753";
paths = (
{
closed = 1;
nodes = (
"248 0 LINE",
"248 812 LINE",
"67 812 LINE",
"67 0 LINE"
);
}
);
width = 315;
},
{
anchors = (
{
name = bottom;
position = "{148, 0}";
},
{
name = btm;
position = "{140, -83}";
},
{
name = center;
position = "{148, 492}";
},
{
name = top;
position = "{149, 880}";
},
{
name = topright;
position = "{278, 983}";
}
);
layerId = "247DB4A4-D150-4133-9396-DC38172DD635";
paths = (
{
closed = 1;
nodes = (
"206 0 LINE",
"206 813 LINE",
"90 813 LINE",
"90 0 LINE"
);
}
);
width = 296;
}
);
leftKerningGroup = l;
rightKerningGroup = l;
unicode = 006C;
},
{
glyphname = lslash;
lastChange = "2019-03-31 05:12:58 +0000";
layers = (
{
components = (
{
name = l;
transform = "{1, 0, 0, 1, 18, 0}";
}
);
layerId = "8BC678DE-46B6-4C98-A96E-C0ED61786D32";
paths = (
{
closed = 1;
nodes = (
"298 500 LINE",
"298 561 LINE",
"25 452 LINE",
"25 396 LINE"
);
}
);
width = 323;
},
{
components = (
{
name = l;
transform = "{1, 0, 0, 1, 14, 0}";
}
);
layerId = "23A20576-2241-481A-AD5B-28E85381F753";
paths = (
{
closed = 1;
nodes = (
"360 449 LINE",
"360 564 LINE",
"25 437 LINE",
"25 327 LINE"
);
}
);
width = 385;
},
{
components = (
{
alignment = -1;
name = l;
transform = "{1, 0, 0, 1, 11, 0}";
}
);
layerId = "247DB4A4-D150-4133-9396-DC38172DD635";
paths = (
{
closed = 1;
nodes = (
"309 480 LINE",
"309 563 LINE",
"25 449 LINE",
"25 372 LINE"
);
}
);
width = 334;
}
);
leftKerningGroup = lslash;
rightKerningGroup = lslash;
unicode = 0142;
},
{
glyphname = m;
lastChange = "2019-04-01 02:43:11 +0000";
layers = (
{
anchors = (
{
name = bottom;
position = "{485, 0}";
},
{
name = btm;
position = "{490, -83}";
},
{
name = top;
position = "{492, 830}";
}
);
layerId = "8BC678DE-46B6-4C98-A96E-C0ED61786D32";
paths = (
{
closed = 1;
nodes = (
"178 0 LINE",
"178 429 LINE",
"222 465 OFFCURVE",
"292 494 OFFCURVE",
"341 496 CURVE SMOOTH",
"433 500 OFFCURVE",
"451 451 OFFCURVE",
"451 340 CURVE SMOOTH",
"451 0 LINE",
"532 0 LINE",
"532 346 LINE SMOOTH",
"532 517 OFFCURVE",
"486 567 OFFCURVE",
"374 565 CURVE SMOOTH",
"297 563 OFFCURVE",
"210 518 OFFCURVE",
"169 485 CURVE",
"169 556 LINE",
"96 556 LINE",
"96 0 LINE"
);
},
{
closed = 1;
nodes = (
"566 465 OFFCURVE",
"630 496 OFFCURVE",
"683 497 CURVE SMOOTH",
"781 500 OFFCURVE",
"796 443 OFFCURVE",
"796 339 CURVE SMOOTH",
"796 0 LINE",
"877 0 LINE",
"877 343 LINE SMOOTH",
"877 509 OFFCURVE",
"832 566 OFFCURVE",
"714 565 CURVE SMOOTH",
"631 564 OFFCURVE",
"547 519 OFFCURVE",
"506 486 CURVE",
"524 436 LINE"
);
}
);
width = 969;
},
{
anchors = (
{
name = bottom;
position = "{497, 0}";
},
{
name = btm;
position = "{497, -83}";
},
{
name = top;
position = "{497, 830}";
}
);
layerId = "23A20576-2241-481A-AD5B-28E85381F753";
paths = (
{
closed = 1;
nodes = (
"252 0 LINE",
"252 387 LINE",
"277 411 OFFCURVE",
"316 423 OFFCURVE",
"342 423 CURVE SMOOTH",
"394 424 OFFCURVE",
"411 399 OFFCURVE",
"411 318 CURVE SMOOTH",
"411 0 LINE",
"591 0 LINE",
"591 352 LINE SMOOTH",
"591 512 OFFCURVE",
"534 568 OFFCURVE",
"423 565 CURVE SMOOTH",
"350 564 OFFCURVE",
"279 528 OFFCURVE",
"241 497 CURVE",
"237 557 LINE",
"72 557 LINE",
"72 0 LINE"
);
},
{
closed = 1;
nodes = (
"602 400 OFFCURVE",
"638 423 OFFCURVE",
"676 423 CURVE SMOOTH",
"729 424 OFFCURVE",
"746 400 OFFCURVE",
"746 319 CURVE SMOOTH",
"746 0 LINE",
"927 0 LINE",
"927 351 LINE SMOOTH",
"927 514 OFFCURVE",
"860 566 OFFCURVE",
"748 565 CURVE SMOOTH",
"655 566 OFFCURVE",
"580 518 OFFCURVE",
"554 494 CURVE",
"584 383 LINE"
);
}
);
width = 991;
},
{
anchors = (
{
name = bottom;
position = "{485.2, 0}";
},
{
name = btm;
position = "{491.133, -83}";
},
{
name = top;
position = "{488.489, 830}";
}
);
layerId = "247DB4A4-D150-4133-9396-DC38172DD635";
paths = (
{
closed = 1;
nodes = (
"200.822 0 LINE",
"200.822 418.844 LINE",
"243.867 451.311 OFFCURVE",
"298.622 467.422 OFFCURVE",
"333.2 468.422 CURVE SMOOTH",
"414.289 471.889 OFFCURVE",
"431.289 432.489 OFFCURVE",
"431.289 341.489 CURVE SMOOTH",
"431.289 0 LINE",
"546.289 0 LINE",
"546.289 348.289 LINE SMOOTH",
"546.289 511.289 OFFCURVE",
"499.511 568.356 OFFCURVE",
"379.867 565.178 CURVE SMOOTH",
"307.756 563.178 OFFCURVE",
"231.111 525 OFFCURVE",
"189.822 497 CURVE",
"189.289 556.178 LINE",
"85.822 556.178 LINE",
"85.822 0 LINE"
);
},
{
closed = 1;
nodes = (
"580.8 448.244 OFFCURVE",
"634.844 467.422 OFFCURVE",
"673.844 468.422 CURVE SMOOTH",
"756.289 471.889 OFFCURVE",
"771.289 432.667 OFFCURVE",
"771.289 341.667 CURVE SMOOTH",
"771.289 0 LINE",
"887.111 0 LINE",
"887.111 349.178 LINE SMOOTH",
"887.111 512.178 OFFCURVE",
"835.911 567 OFFCURVE",
"716.8 565.178 CURVE SMOOTH",
"638.2 563.533 OFFCURVE",
"554.911 523.933 OFFCURVE",
"515.867 491.356 CURVE",
"540.467 418.667 LINE"
);
}
);
width = 969.4;
}
);
leftKerningGroup = n;
leftMetricsKey = n;
rightKerningGroup = n;
rightMetricsKey = n;
unicode = 006D;
},
{
glyphname = n;
lastChange = "2019-04-01 02:43:11 +0000";
layers = (
{
anchors = (
{
name = bottom;
position = "{317, 0}";
},
{
name = btm;
position = "{319, -83}";
},
{
name = top;
position = "{323, 830}";
}
);
layerId = "8BC678DE-46B6-4C98-A96E-C0ED61786D32";
paths = (
{
closed = 1;
nodes = (
"178 0 LINE",
"178 429 LINE",
"220 462 OFFCURVE",
"288 496 OFFCURVE",
"340 497 CURVE SMOOTH",
"436 501 OFFCURVE",
"459 455 OFFCURVE",
"459 345 CURVE SMOOTH",
"459 0 LINE",
"541 0 LINE",
"541 344 LINE SMOOTH",
"541 508 OFFCURVE",
"495 567 OFFCURVE",
"374 565 CURVE SMOOTH",
"293 563 OFFCURVE",
"209 515 OFFCURVE",
"169 485 CURVE",
"169 556 LINE",
"96 556 LINE",
"96 0 LINE"
);
}
);
width = 633;
},
{
anchors = (
{
name = bottom;
position = "{330, 0}";
},
{
name = btm;
position = "{322, -83}";
},
{
name = top;
position = "{337, 830}";
}
);
layerId = "23A20576-2241-481A-AD5B-28E85381F753";
paths = (
{
closed = 1;
nodes = (
"252 0 LINE",
"252 387 LINE",
"277 411 OFFCURVE",
"315 423 OFFCURVE",
"341 423 CURVE SMOOTH",
"394 425 OFFCURVE",
"412 399 OFFCURVE",
"412 318 CURVE SMOOTH",
"412 0 LINE",
"593 0 LINE",
"593 351 LINE SMOOTH",
"593 511 OFFCURVE",
"536 567 OFFCURVE",
"423 565 CURVE SMOOTH",
"348 564 OFFCURVE",
"276 527 OFFCURVE",
"241 492 CURVE",
"237 557 LINE",
"72 557 LINE",
"72 0 LINE"
);
}
);
width = 657;
},
{
anchors = (
{
name = bottom;
position = "{316.022, 0}";
},
{
name = btm;
position = "{321.133, -83}";
},
{
name = top;
position = "{320.733, 830}";
}
);
layerId = "247DB4A4-D150-4133-9396-DC38172DD635";
paths = (
{
closed = 1;
nodes = (
"200.822 0 LINE",
"200.822 418.844 LINE",
"243.867 451.311 OFFCURVE",
"297.444 468.244 OFFCURVE",
"333.022 469.244 CURVE SMOOTH",
"415.933 473.533 OFFCURVE",
"433.111 434.311 OFFCURVE",
"433.111 341.489 CURVE SMOOTH",
"433.111 0 LINE",
"548.933 0 LINE",
"548.933 347.356 LINE SMOOTH",
"548.933 510.356 OFFCURVE",
"501.156 568.356 OFFCURVE",
"381.511 565.178 CURVE SMOOTH",
"309.4 563.178 OFFCURVE",
"231.111 525 OFFCURVE",
"189.822 497 CURVE",
"189.289 556.178 LINE",
"85.822 556.178 LINE",
"85.822 0 LINE"
);
}
);
width = 631.22222;
}
);
leftKerningGroup = n;
rightKerningGroup = n;
unicode = 006E;
},
{
glyphname = eng;
lastChange = "2019-02-18 20:30:01 +0000";
layers = (
{
layerId = "8BC678DE-46B6-4C98-A96E-C0ED61786D32";
paths = (
{
closed = 1;
nodes = (
"176 0 LINE",
"176 429 LINE",
"219 462 OFFCURVE",
"292 495 OFFCURVE",
"345 497 CURVE SMOOTH",
"430 500 OFFCURVE",
"460 464 OFFCURVE",
"460 344 CURVE SMOOTH",
"460 -18 LINE SMOOTH",
"460 -144 OFFCURVE",
"436 -189 OFFCURVE",
"370 -190 CURVE SMOOTH",
"355 -190 OFFCURVE",
"327 -188 OFFCURVE",
"317 -184 CURVE",
"317 -241 LINE",
"325 -244 OFFCURVE",
"368 -248 OFFCURVE",
"386 -248 CURVE SMOOTH",
"491 -248 OFFCURVE",
"541 -158 OFFCURVE",
"541 -7 CURVE SMOOTH",
"541 346 LINE SMOOTH",
"541 510 OFFCURVE",
"497 567 OFFCURVE",
"377 565 CURVE",
"294 563 OFFCURVE",
"208 515 OFFCURVE",
"167 485 CURVE",
"167 556 LINE",
"94 556 LINE",
"94 0 LINE"
);
}
);
width = 632;
},
{
layerId = "23A20576-2241-481A-AD5B-28E85381F753";
paths = (
{
closed = 1;
nodes = (
"263 0 LINE",
"263 384 LINE",
"290 411 OFFCURVE",
"332 422 OFFCURVE",
"354 422 CURVE SMOOTH",
"404 423 OFFCURVE",
"418 398 OFFCURVE",
"418 317 CURVE SMOOTH",
"418 -13 LINE SMOOTH",
"418 -115 OFFCURVE",
"401 -133 OFFCURVE",
"358 -133 CURVE SMOOTH",
"341 -133 OFFCURVE",
"314 -129 OFFCURVE",
"304 -125 CURVE",
"304 -238 LINE",
"328 -244 OFFCURVE",
"364 -248 OFFCURVE",
"415 -248 CURVE SMOOTH",
"529 -248 OFFCURVE",
"602 -170 OFFCURVE",
"602 -9 CURVE SMOOTH",
"602 351 LINE SMOOTH",
"601 514 OFFCURVE",
"542 568 OFFCURVE",
"426 565 CURVE",
"357 564 OFFCURVE",
"287 526 OFFCURVE",
"251 497 CURVE",
"247 556 LINE",
"80 556 LINE",
"80 0 LINE"
);
}
);
width = 675;
},
{
layerId = "247DB4A4-D150-4133-9396-DC38172DD635";
paths = (
{
closed = 1;
nodes = (
"200.822 0 LINE",
"200.822 419.2 LINE",
"243.867 451.667 OFFCURVE",
"301.089 468.133 OFFCURVE",
"335.667 469.133 CURVE SMOOTH",
"415.933 472.778 OFFCURVE",
"433.111 433.378 OFFCURVE",
"433.111 342.378 CURVE SMOOTH",
"433.111 -22 LINE SMOOTH",
"433.111 -137.289 OFFCURVE",
"419.044 -168.089 OFFCURVE",
"364.356 -168.089 CURVE SMOOTH",
"353.178 -168.089 OFFCURVE",
"322.178 -166.089 OFFCURVE",
"312.178 -163.089 CURVE",
"312.178 -241 LINE",
"322.133 -245 OFFCURVE",
"369.6 -248 OFFCURVE",
"391.089 -248 CURVE SMOOTH",
"491.844 -248 OFFCURVE",
"548.933 -166.733 OFFCURVE",
"548.933 -9.244 CURVE SMOOTH",
"548.933 349.178 LINE SMOOTH",
"548.111 512.178 OFFCURVE",
"501.156 568.356 OFFCURVE",
"381.511 565.178 CURVE",
"309.4 563.178 OFFCURVE",
"230.289 525 OFFCURVE",
"189.822 497 CURVE",
"188.467 556 LINE",
"85.822 556 LINE",
"85.822 0 LINE"
);
}
);
width = 631.22222;
}
);
leftKerningGroup = n;
rightKerningGroup = n;
unicode = 014B;
},
{
glyphname = o;
lastChange = "2019-04-01 02:34:52 +0000";
layers = (
{
anchors = (
{
name = bottom;
position = "{299, 0}";
},
{
name = btm;
position = "{297, -83}";
},
{
name = center;
position = "{299, 279}";
},
{
name = ogonek;
position = "{340, 0}";
},
{
name = top;
position = "{300, 830}";
},
{
name = topright;
position = "{416, 527}";
}
);
layerId = "8BC678DE-46B6-4C98-A96E-C0ED61786D32";
paths = (
{
closed = 1;
nodes = (
"438 -8 OFFCURVE",
"543 93 OFFCURVE",
"546 271 CURVE SMOOTH",
"548 428 OFFCURVE",
"478 564 OFFCURVE",
"304 564 CURVE SMOOTH",
"163 564 OFFCURVE",
"54 466 OFFCURVE",
"51 289 CURVE SMOOTH",
"49 131 OFFCURVE",
"117 -8 OFFCURVE",
"294 -8 CURVE SMOOTH"
);
},
{
closed = 1;
nodes = (
"183 52 OFFCURVE",
"134 161 OFFCURVE",
"134 288 CURVE SMOOTH",
"135 427 OFFCURVE",
"198 507 OFFCURVE",
"303 505 CURVE SMOOTH",
"414 504 OFFCURVE",
"464 402 OFFCURVE",
"463 274 CURVE SMOOTH",
"463 135 OFFCURVE",
"402 49 OFFCURVE",
"296 50 CURVE SMOOTH"
);
}
);
width = 597;
},
{
anchors = (
{
name = bottom;
position = "{313, 0}";
},
{
name = btm;
position = "{304, -83}";
},
{
name = center;
position = "{313, 279}";
},
{
name = ogonek;
position = "{368, 0}";
},
{
name = top;
position = "{316, 830}";
},
{
name = topright;
position = "{438, 527}";
}
);
layerId = "23A20576-2241-481A-AD5B-28E85381F753";
paths = (
{
closed = 1;
nodes = (
"475 -8 OFFCURVE",
"593 88 OFFCURVE",
"595 267 CURVE SMOOTH",
"598 427 OFFCURVE",
"524 564 OFFCURVE",
"318 564 CURVE SMOOTH",
"151 564 OFFCURVE",
"33 468 OFFCURVE",
"30 290 CURVE SMOOTH",
"28 130 OFFCURVE",
"102 -8 OFFCURVE",
"308 -8 CURVE SMOOTH"
);
},
{
closed = 1;
nodes = (
"241 117 OFFCURVE",
"218 192 OFFCURVE",
"218 284 CURVE SMOOTH",
"218 385 OFFCURVE",
"242 439 OFFCURVE",
"315 439 CURVE SMOOTH",
"385 439 OFFCURVE",
"407 365 OFFCURVE",
"407 275 CURVE SMOOTH",
"407 169 OFFCURVE",
"383 117 OFFCURVE",
"312 117 CURVE SMOOTH"
);
}
);
width = 625;
},
{
anchors = (
{
name = bottom;
position = "{299.556, 0}";
},
{
name = btm;
position = "{296.556, -83}";
},
{
name = center;
position = "{299.556, 279}";
},
{
name = ogonek;
position = "{349, 0}";
},
{
name = top;
position = "{304.378, 830}";
},
{
name = topright;
position = "{416, 527}";
}
);
layerId = "247DB4A4-D150-4133-9396-DC38172DD635";
paths = (
{
closed = 1;
nodes = (
"441.044 -8 OFFCURVE",
"549.467 88 OFFCURVE",
"552.467 267 CURVE SMOOTH",
"554.467 425 OFFCURVE",
"485.933 564 OFFCURVE",
"304.556 564 CURVE SMOOTH",
"158.889 564 OFFCURVE",
"48.822 469 OFFCURVE",
"46.644 290 CURVE SMOOTH",
"44.644 131 OFFCURVE",
"113.356 -8 OFFCURVE",
"294.556 -8 CURVE SMOOTH"
);
},
{
closed = 1;
nodes = (
"205.4 75.511 OFFCURVE",
"164.356 172.556 OFFCURVE",
"164.356 288.467 CURVE SMOOTH",
"164.356 412.911 OFFCURVE",
"210.689 483.311 OFFCURVE",
"301.556 481.489 CURVE SMOOTH",
"394.711 480.489 OFFCURVE",
"435.578 387.089 OFFCURVE",
"435.578 271.533 CURVE SMOOTH",
"435.578 146.378 OFFCURVE",
"389.244 71.867 OFFCURVE",
"297.556 73.689 CURVE SMOOTH"
);
}
);
width = 599.11111;
}
);
leftKerningGroup = o;
rightKerningGroup = o;
unicode = 006F;
},
{
glyphname = oslash;
lastChange = "2019-02-18 20:30:01 +0000";
layers = (
{
anchors = (
{
name = top;
position = "{322, 830}";
}
);
layerId = "8BC678DE-46B6-4C98-A96E-C0ED61786D32";
paths = (
{
closed = 1;
nodes = (
"199 -95 LINE",
"446 639 LINE",
"399 652 LINE",
"152 -82 LINE"
);
},
{
closed = 1;
nodes = (
"438 -8 OFFCURVE",
"545 93 OFFCURVE",
"548 271 CURVE SMOOTH",
"549 428 OFFCURVE",
"479 564 OFFCURVE",
"305 564 CURVE SMOOTH",
"162 564 OFFCURVE",
"53 466 OFFCURVE",
"50 289 CURVE",
"48 131 OFFCURVE",
"117 -8 OFFCURVE",
"294 -8 CURVE SMOOTH"
);
},
{
closed = 1;
nodes = (
"182 52 OFFCURVE",
"133 161 OFFCURVE",
"133 288 CURVE SMOOTH",
"134 427 OFFCURVE",
"197 507 OFFCURVE",
"303 505 CURVE",
"415 504 OFFCURVE",
"465 402 OFFCURVE",
"465 274 CURVE SMOOTH",
"464 135 OFFCURVE",
"403 49 OFFCURVE",
"296 50 CURVE SMOOTH"
);
}
);
width = 598;
},
{
anchors = (
{
name = top;
position = "{322, 830}";
}
);
layerId = "23A20576-2241-481A-AD5B-28E85381F753";
paths = (
{
closed = 1;
nodes = (
"217 -114 LINE",
"499 662 LINE",
"434 676 LINE",
"153 -102 LINE"
);
},
{
closed = 1;
nodes = (
"487 -8 OFFCURVE",
"605 88 OFFCURVE",
"607 267 CURVE SMOOTH",
"610 427 OFFCURVE",
"536 564 OFFCURVE",
"330 564 CURVE SMOOTH",
"163 564 OFFCURVE",
"45 468 OFFCURVE",
"42 290 CURVE",
"40 130 OFFCURVE",
"114 -8 OFFCURVE",
"320 -8 CURVE SMOOTH"
);
},
{
closed = 1;
nodes = (
"253 117 OFFCURVE",
"224 192 OFFCURVE",
"224 284 CURVE SMOOTH",
"224 385 OFFCURVE",
"254 439 OFFCURVE",
"327 439 CURVE",
"397 439 OFFCURVE",
"426 365 OFFCURVE",
"426 275 CURVE SMOOTH",
"426 169 OFFCURVE",
"395 117 OFFCURVE",
"324 117 CURVE SMOOTH"
);
}
);
width = 652;
},
{
anchors = (
{
name = top;
position = "{322, 830}";
}
);
layerId = "247DB4A4-D150-4133-9396-DC38172DD635";
paths = (
{
closed = 1;
nodes = (
"203.956 -99.6 LINE",
"457.333 640.489 LINE",
"396.333 657.133 LINE",
"142.956 -82.133 LINE"
);
},
{
closed = 1;
nodes = (
"441.4 -8 OFFCURVE",
"549.822 88 OFFCURVE",
"552.822 267 CURVE SMOOTH",
"554.822 425 OFFCURVE",
"486.289 564 OFFCURVE",
"304.911 564 CURVE SMOOTH",
"159.244 564 OFFCURVE",
"49.178 469 OFFCURVE",
"47 290 CURVE",
"45 131 OFFCURVE",
"113.711 -8 OFFCURVE",
"294.911 -8 CURVE SMOOTH"
);
},
{
closed = 1;
nodes = (
"205.756 75.511 OFFCURVE",
"164.711 172.556 OFFCURVE",
"164.711 288.467 CURVE SMOOTH",
"164.711 412.911 OFFCURVE",
"211.044 483.311 OFFCURVE",
"301.911 481.489 CURVE",
"395.067 480.489 OFFCURVE",
"435.933 387.089 OFFCURVE",
"435.933 271.533 CURVE SMOOTH",
"435.933 146.378 OFFCURVE",
"389.6 71.867 OFFCURVE",
"297.911 73.689 CURVE SMOOTH"
);
}
);
width = 599.82222;
}
);
leftKerningGroup = o;
rightKerningGroup = o;
unicode = 00F8;
},
{
glyphname = oe;
lastChange = "2019-02-18 20:30:01 +0000";
layers = (
{
anchors = (
{
name = bottom;
position = "{483, 0}";
},
{
name = btm;
position = "{494, -83}";
},
{
name = top;
position = "{494, 830}";
}
);
layerId = "8BC678DE-46B6-4C98-A96E-C0ED61786D32";
paths = (
{
closed = 1;
nodes = (
"777 -8 OFFCURVE",
"860 13 OFFCURVE",
"897 43 CURVE",
"881 91 LINE",
"852 72 OFFCURVE",
"779 54 OFFCURVE",
"729 54 CURVE SMOOTH",
"626 54 OFFCURVE",
"551 107 OFFCURVE",
"546 250 CURVE",
"542 433 OFFCURVE",
"614 506 OFFCURVE",
"710 506 CURVE SMOOTH",
"811 506 OFFCURVE",
"844 427 OFFCURVE",
"838 325 CURVE",
"523 325 LINE",
"516 270 LINE",
"911 270 LINE",
"915 293 OFFCURVE",
"915 320 OFFCURVE",
"915 355 CURVE SMOOTH",
"912 482 OFFCURVE",
"833 566 OFFCURVE",
"715 564 CURVE SMOOTH",
"556 563 OFFCURVE",
"466 443 OFFCURVE",
"466 276 CURVE SMOOTH",
"466 98 OFFCURVE",
"552 -8 OFFCURVE",
"708 -8 CURVE SMOOTH"
);
},
{
closed = 1;
nodes = (
"183 52 OFFCURVE",
"134 161 OFFCURVE",
"134 288 CURVE SMOOTH",
"135 427 OFFCURVE",
"199 507 OFFCURVE",
"304 505 CURVE",
"415 504 OFFCURVE",
"467 402 OFFCURVE",
"466 274 CURVE SMOOTH",
"466 135 OFFCURVE",
"403 49 OFFCURVE",
"296 50 CURVE SMOOTH"
);
},
{
closed = 1;
nodes = (
"438 -8 OFFCURVE",
"543 93 OFFCURVE",
"546 271 CURVE SMOOTH",
"547 428 OFFCURVE",
"479 564 OFFCURVE",
"306 564 CURVE SMOOTH",
"164 564 OFFCURVE",
"54 466 OFFCURVE",
"51 289 CURVE SMOOTH",
"49 131 OFFCURVE",
"117 -8 OFFCURVE",
"294 -8 CURVE SMOOTH"
);
}
);
width = 966;
},
{
anchors = (
{
name = bottom;
position = "{487, 0}";
},
{
name = btm;
position = "{521, -83}";
},
{
name = top;
position = "{521, 830}";
}
);
layerId = "23A20576-2241-481A-AD5B-28E85381F753";
paths = (
{
closed = 1;
nodes = (
"797 -8 OFFCURVE",
"879 22 OFFCURVE",
"916 52 CURVE",
"889 150 LINE",
"862 136 OFFCURVE",
"793 122 OFFCURVE",
"741 122 CURVE SMOOTH",
"653 122 OFFCURVE",
"603 158 OFFCURVE",
"601 255 CURVE",
"600 404 OFFCURVE",
"634 448 OFFCURVE",
"696 448 CURVE SMOOTH",
"751 448 OFFCURVE",
"771 407 OFFCURVE",
"766 326 CURVE",
"525 326 LINE",
"516 238 LINE",
"927 238 LINE",
"930 262 OFFCURVE",
"932 298 OFFCURVE",
"932 338 CURVE SMOOTH",
"932 517 OFFCURVE",
"818 564 OFFCURVE",
"700 564 CURVE SMOOTH",
"524 564 OFFCURVE",
"426 443 OFFCURVE",
"426 281 CURVE SMOOTH",
"426 100 OFFCURVE",
"520 -8 OFFCURVE",
"698 -8 CURVE SMOOTH"
);
},
{
closed = 1;
nodes = (
"253 117 OFFCURVE",
"231 192 OFFCURVE",
"231 284 CURVE SMOOTH",
"231 385 OFFCURVE",
"253 439 OFFCURVE",
"326 439 CURVE",
"396 439 OFFCURVE",
"417 365 OFFCURVE",
"417 275 CURVE SMOOTH",
"417 169 OFFCURVE",
"395 117 OFFCURVE",
"323 117 CURVE SMOOTH"
);
},
{
closed = 1;
nodes = (
"486 -8 OFFCURVE",
"599 88 OFFCURVE",
"601 267 CURVE SMOOTH",
"604 427 OFFCURVE",
"535 564 OFFCURVE",
"330 564 CURVE SMOOTH",
"162 564 OFFCURVE",
"44 468 OFFCURVE",
"42 290 CURVE SMOOTH",
"40 130 OFFCURVE",
"113 -8 OFFCURVE",
"319 -8 CURVE SMOOTH"
);
}
);
width = 973;
},
{
anchors = (
{
name = bottom;
position = "{470.778, 0}";
},
{
name = btm;
position = "{494.733, -83}";
},
{
name = top;
position = "{494.733, 830}";
}
);
layerId = "247DB4A4-D150-4133-9396-DC38172DD635";
paths = (
{
closed = 1;
nodes = (
"753.911 -8 OFFCURVE",
"838.733 13.067 OFFCURVE",
"875.733 43.067 CURVE",
"854.844 109.333 LINE",
"826.489 92.511 OFFCURVE",
"750.844 79.511 OFFCURVE",
"712.667 79.511 CURVE SMOOTH",
"622.844 79.511 OFFCURVE",
"553.511 120.4 OFFCURVE",
"548.044 246.067 CURVE",
"542.578 424.8 OFFCURVE",
"602.022 482.311 OFFCURVE",
"680.067 482.311 CURVE SMOOTH",
"771.911 482.311 OFFCURVE",
"790.444 406.356 OFFCURVE",
"785.444 326 CURVE",
"511.711 326 LINE",
"501.711 252.689 LINE",
"888.556 252.689 LINE",
"893.378 277.689 OFFCURVE",
"893.733 311.4 OFFCURVE",
"893.733 352.578 CURVE SMOOTH",
"890.444 496.489 OFFCURVE",
"797.6 565.822 OFFCURVE",
"685.711 564 CURVE SMOOTH",
"521.467 562.178 OFFCURVE",
"435.222 441.178 OFFCURVE",
"435.222 279.178 CURVE SMOOTH",
"435.222 99.178 OFFCURVE",
"523.4 -8 OFFCURVE",
"683.533 -8 CURVE SMOOTH"
);
},
{
closed = 1;
nodes = (
"205.222 75.511 OFFCURVE",
"164.711 172.556 OFFCURVE",
"164.711 288.467 CURVE SMOOTH",
"164.711 412.911 OFFCURVE",
"211.333 483.311 OFFCURVE",
"301.378 481.489 CURVE SMOOTH",
"394.533 480.489 OFFCURVE",
"435.044 387.089 OFFCURVE",
"435.044 271.533 CURVE SMOOTH",
"435.044 146.378 OFFCURVE",
"388.244 71.867 OFFCURVE",
"295.733 73.689 CURVE SMOOTH"
);
},
{
closed = 1;
nodes = (
"438.4 -8 OFFCURVE",
"544.867 88 OFFCURVE",
"547.867 267 CURVE SMOOTH",
"549.044 425 OFFCURVE",
"484.933 564 OFFCURVE",
"304.378 564 CURVE",
"158.711 564 OFFCURVE",
"49.822 469 OFFCURVE",
"47 290 CURVE SMOOTH",
"44.822 131 OFFCURVE",
"112.356 -8 OFFCURVE",
"293.556 -8 CURVE SMOOTH"
);
}
);
width = 941.55556;
}
);
leftKerningGroup = o;
rightKerningGroup = e;
unicode = 0153;
},
{
glyphname = p;
lastChange = "2019-03-29 17:41:57 +0000";
layers = (
{
anchors = (
{
name = bottom;
position = "{305, 0}";
},
{
name = btm;
position = "{308, -83}";
},
{
name = top;
position = "{340, 830}";
}
);
layerId = "8BC678DE-46B6-4C98-A96E-C0ED61786D32";
paths = (
{
closed = 1;
nodes = (
"172 -247 LINE",
"172 -68 LINE",
"171 24 LINE",
"172 35 LINE",
"172 476 LINE",
"165 486 LINE",
"165 557 LINE",
"91 557 LINE",
"91 -247 LINE"
);
},
{
closed = 1;
nodes = (
"448 -8 OFFCURVE",
"559 119 OFFCURVE",
"559 296 CURVE SMOOTH",
"559 485 OFFCURVE",
"453 564 OFFCURVE",
"339 564 CURVE SMOOTH",
"236 564 OFFCURVE",
"183 510 OFFCURVE",
"159 485 CURVE",
"172 443 LINE",
"199 467 OFFCURVE",
"252 500 OFFCURVE",
"317 500 CURVE SMOOTH",
"417 500 OFFCURVE",
"477 430 OFFCURVE",
"476 285 CURVE SMOOTH",
"474 137 OFFCURVE",
"394 52 OFFCURVE",
"287 52 CURVE SMOOTH",
"227 52 OFFCURVE",
"190 64 OFFCURVE",
"172 80 CURVE",
"142 26 LINE",
"154 15 OFFCURVE",
"208 -8 OFFCURVE",
"280 -8 CURVE SMOOTH"
);
}
);
width = 609;
},
{
anchors = (
{
name = bottom;
position = "{338, 0}";
},
{
name = btm;
position = "{383, -83}";
},
{
name = top;
position = "{405, 830}";
}
);
layerId = "23A20576-2241-481A-AD5B-28E85381F753";
paths = (
{
closed = 1;
nodes = (
"259 -247 LINE",
"259 -68 LINE",
"257 21 LINE",
"259 72 LINE",
"259 477 LINE",
"249 489 LINE",
"249 557 LINE",
"78 557 LINE",
"78 -247 LINE"
);
},
{
closed = 1;
nodes = (
"520 -8 OFFCURVE",
"634 110 OFFCURVE",
"634 299 CURVE SMOOTH",
"634 479 OFFCURVE",
"531 564 OFFCURVE",
"412 564 CURVE SMOOTH",
"313 564 OFFCURVE",
"263 519 OFFCURVE",
"240 494 CURVE",
"259 401 LINE",
"278 416 OFFCURVE",
"315 430 OFFCURVE",
"351 430 CURVE SMOOTH",
"408 430 OFFCURVE",
"444 395 OFFCURVE",
"444 288 CURVE SMOOTH",
"443 175 OFFCURVE",
"399 114 OFFCURVE",
"335 114 CURVE SMOOTH",
"302 114 OFFCURVE",
"273 120 OFFCURVE",
"259 134 CURVE",
"228 20 LINE",
"240 11 OFFCURVE",
"283 -8 OFFCURVE",
"349 -8 CURVE SMOOTH"
);
}
);
width = 676;
},
{
anchors = (
{
name = bottom;
position = "{306.089, 0}";
},
{
name = btm;
position = "{317.533, -83}";
},
{
name = top;
position = "{349.467, 830}";
}
);
layerId = "247DB4A4-D150-4133-9396-DC38172DD635";
paths = (
{
closed = 1;
nodes = (
"196.178 -247 LINE",
"196.178 -68 LINE",
"195 22.933 LINE",
"196.178 45.844 LINE",
"196.178 477 LINE",
"186.178 489 LINE",
"186.178 557 LINE",
"81.178 557 LINE",
"81.178 -247 LINE"
);
},
{
closed = 1;
nodes = (
"455.356 -8 OFFCURVE",
"566.067 118.111 OFFCURVE",
"566.067 299 CURVE SMOOTH",
"566.067 479 OFFCURVE",
"463.711 564 OFFCURVE",
"345.711 564 CURVE SMOOTH",
"244.889 564 OFFCURVE",
"201.178 512.711 OFFCURVE",
"178.178 488.533 CURVE",
"196.178 431.622 LINE",
"220 449.8 OFFCURVE",
"261.644 474.844 OFFCURVE",
"313.511 474.844 CURVE SMOOTH",
"399.244 474.844 OFFCURVE",
"449 417.289 OFFCURVE",
"448 284.533 CURVE SMOOTH",
"446.178 148.911 OFFCURVE",
"380.667 75.156 OFFCURVE",
"294.511 75.156 CURVE SMOOTH",
"249.178 75.156 OFFCURVE",
"217 81.8 OFFCURVE",
"196.178 99.8 CURVE",
"156.244 26 LINE",
"169.067 15 OFFCURVE",
"217.533 -8 OFFCURVE",
"286.356 -8 CURVE SMOOTH"
);
}
);
width = 612.17778;
}
);
leftKerningGroup = n;
rightKerningGroup = b;
rightMetricsKey = b;
unicode = 0070;
},
{
glyphname = thorn;
lastChange = "2019-04-01 04:17:13 +0000";
layers = (
{
anchors = (
{
name = bottom;
position = "{308, 0}";
},
{
name = top;
position = "{308, 557}";
}
);
components = (
{
name = b;
transform = "{1, 0, 0, 1, 4, 0}";
}
);
layerId = "8BC678DE-46B6-4C98-A96E-C0ED61786D32";
paths = (
{
closed = 1;
nodes = (
"94 -248 LINE",
"173 -248 LINE",
"173 -74 LINE",
"170 14 LINE",
"94 31 LINE"
);
}
);
width = 615;
},
{
anchors = (
{
name = bottom;
position = "{337, 0}";
},
{
name = top;
position = "{337, 557}";
}
);
components = (
{
name = b;
}
);
layerId = "23A20576-2241-481A-AD5B-28E85381F753";
paths = (
{
closed = 1;
nodes = (
"78 -248 LINE",
"260 -248 LINE",
"260 -83 LINE",
"258 5 LINE",
"78 31 LINE"
);
}
);
width = 662;
},
{
anchors = (
{
name = bottom;
position = "{310, 0}";
},
{
name = top;
position = "{310, 557}";
}
);
components = (
{
alignment = -1;
name = b;
transform = "{1, 0, 0, 1, 4, 0}";
}
);
layerId = "247DB4A4-D150-4133-9396-DC38172DD635";
paths = (
{
closed = 1;
nodes = (
"85 -248 LINE",
"201 -248 LINE",
"201 -83 LINE",
"195 9 LINE",
"85 31 LINE"
);
}
);
width = 620;
}
);
leftKerningGroup = b;
leftMetricsKey = h;
rightKerningGroup = b;
rightMetricsKey = b;
unicode = 00FE;
},
{
glyphname = q;
lastChange = "2019-04-01 02:42:10 +0000";
layers = (
{
anchors = (
{
name = bottom;
position = "{302, 0}";
},
{
name = btm;
position = "{296, -83}";
},
{
name = top;
position = "{284, 830}";
}
);
layerId = "8BC678DE-46B6-4C98-A96E-C0ED61786D32";
paths = (
{
closed = 1;
nodes = (
"436 -247 LINE",
"518 -247 LINE",
"518 559 LINE",
"427 540 LINE",
"444 500 LINE",
"436 489 LINE",
"436 94 LINE",
"438 59 LINE",
"436 -68 LINE"
);
},
{
closed = 1;
nodes = (
"373 -8 OFFCURVE",
"426 47 OFFCURVE",
"451 71 CURVE",
"438 113 LINE",
"411 90 OFFCURVE",
"357 56 OFFCURVE",
"292 56 CURVE SMOOTH",
"192 56 OFFCURVE",
"131 126 OFFCURVE",
"133 271 CURVE SMOOTH",
"135 420 OFFCURVE",
"215 505 OFFCURVE",
"321 505 CURVE SMOOTH",
"382 505 OFFCURVE",
"419 493 OFFCURVE",
"437 477 CURVE",
"473 530 LINE",
"461 542 OFFCURVE",
"401 564 OFFCURVE",
"329 564 CURVE SMOOTH",
"161 564 OFFCURVE",
"50 438 OFFCURVE",
"50 260 CURVE SMOOTH",
"50 72 OFFCURVE",
"156 -8 OFFCURVE",
"270 -8 CURVE SMOOTH"
);
}
);
width = 604;
},
{
anchors = (
{
name = bottom;
position = "{338, 0}";
},
{
name = btm;
position = "{289, -83}";
},
{
name = top;
position = "{292, 831}";
}
);
layerId = "23A20576-2241-481A-AD5B-28E85381F753";
paths = (
{
closed = 1;
nodes = (
"417 -247 LINE",
"597 -247 LINE",
"597 557 LINE",
"441 536 LINE",
"428 489 LINE",
"417 477 LINE",
"417 96 LINE",
"419 53 LINE",
"417 -68 LINE"
);
},
{
closed = 1;
nodes = (
"362 -8 OFFCURVE",
"413 38 OFFCURVE",
"436 63 CURVE",
"417 154 LINE",
"398 140 OFFCURVE",
"360 127 OFFCURVE",
"325 127 CURVE SMOOTH",
"268 127 OFFCURVE",
"231 164 OFFCURVE",
"232 268 CURVE SMOOTH",
"232 383 OFFCURVE",
"277 439 OFFCURVE",
"340 439 CURVE SMOOTH",
"374 439 OFFCURVE",
"402 435 OFFCURVE",
"417 423 CURVE",
"484 531 LINE",
"454 547 OFFCURVE",
"393 564 OFFCURVE",
"326 564 CURVE SMOOTH",
"156 564 OFFCURVE",
"42 448 OFFCURVE",
"42 259 CURVE SMOOTH",
"42 79 OFFCURVE",
"145 -8 OFFCURVE",
"263 -8 CURVE SMOOTH"
);
}
);
width = 675;
},
{
anchors = (
{
name = bottom;
position = "{306.089, 0}";
},
{
name = btm;
position = "{291.644, -83}";
},
{
name = top;
position = "{277.778, 830.178}";
}
);
layerId = "247DB4A4-D150-4133-9396-DC38172DD635";
paths = (
{
closed = 1;
nodes = (
"416.822 -247 LINE",
"531.822 -247 LINE",
"531.822 557 LINE",
"431.067 537.822 LINE",
"427.822 489 LINE",
"416.822 477 LINE",
"416.822 98 LINE",
"419 53 LINE",
"416.822 -68 LINE"
);
},
{
closed = 1;
nodes = (
"367.289 -8 OFFCURVE",
"412 43.467 OFFCURVE",
"434.822 68.289 CURVE",
"416.822 125.378 LINE",
"393.822 107.733 OFFCURVE",
"350.533 83.044 OFFCURVE",
"298.667 83.044 CURVE SMOOTH",
"212.933 83.044 OFFCURVE",
"163.178 140.778 OFFCURVE",
"165 272.178 CURVE SMOOTH",
"166 409.156 OFFCURVE",
"232.511 480.667 OFFCURVE",
"317.667 480.667 CURVE SMOOTH",
"363.178 480.667 OFFCURVE",
"396 474.556 OFFCURVE",
"416.822 457.267 CURVE",
"467.6 531 LINE",
"455.6 542 OFFCURVE",
"394.644 564 OFFCURVE",
"326 564 CURVE SMOOTH",
"157.644 564 OFFCURVE",
"46.111 439.244 OFFCURVE",
"46.111 258.356 CURVE SMOOTH",
"46.111 77.533 OFFCURVE",
"149.289 -8 OFFCURVE",
"266.467 -8 CURVE SMOOTH"
);
}
);
width = 612.17778;
}
);
leftKerningGroup = d;
leftMetricsKey = d;
rightKerningGroup = q;
unicode = 0071;
},
{
glyphname = r;
lastChange = "2019-04-01 02:42:35 +0000";
layers = (
{
anchors = (
{
name = bottom;
position = "{127, 0}";
},
{
name = btm;
position = "{132, -83}";
},
{
name = top;
position = "{235, 830}";
}
);
layerId = "8BC678DE-46B6-4C98-A96E-C0ED61786D32";
paths = (
{
closed = 1;
nodes = (
"189 451 OFFCURVE",
"247 493 OFFCURVE",
"315 493 CURVE SMOOTH",
"356 493 OFFCURVE",
"373 486 OFFCURVE",
"383 481 CURVE",
"383 558 LINE",
"373 562 OFFCURVE",
"355 564 OFFCURVE",
"330 564 CURVE SMOOTH",
"253 564 OFFCURVE",
"174 505 OFFCURVE",
"157 477 CURVE",
"163 423 LINE"
);
},
{
closed = 1;
nodes = (
"168 0 LINE",
"168 442 LINE",
"161 477 LINE",
"156 556 LINE",
"86 556 LINE",
"86 0 LINE"
);
}
);
width = 399;
},
{
anchors = (
{
name = bottom;
position = "{159, 0}";
},
{
name = btm;
position = "{159, -83}";
},
{
name = top;
position = "{261, 831}";
}
);
layerId = "23A20576-2241-481A-AD5B-28E85381F753";
paths = (
{
closed = 1;
nodes = (
"256 351 OFFCURVE",
"295 394 OFFCURVE",
"375 394 CURVE SMOOTH",
"409 394 OFFCURVE",
"426 386 OFFCURVE",
"435 380 CURVE",
"435 559 LINE",
"428 563 OFFCURVE",
"410 565 OFFCURVE",
"394 565 CURVE SMOOTH",
"316 565 OFFCURVE",
"251 520 OFFCURVE",
"231 459 CURVE",
"238 328 LINE"
);
},
{
closed = 1;
nodes = (
"249 0 LINE",
"249 443 LINE",
"235 458 LINE",
"226 557 LINE",
"68 557 LINE",
"68 0 LINE"
);
}
);
width = 465;
},
{
anchors = (
{
name = bottom;
position = "{134, 0}";
},
{
name = btm;
position = "{132, -83}";
},
{
name = top;
position = "{239, 830}";
}
);
layerId = "247DB4A4-D150-4133-9396-DC38172DD635";
paths = (
{
closed = 1;
nodes = (
"208 432 OFFCURVE",
"252 463 OFFCURVE",
"314 463 CURVE SMOOTH",
"359 463 OFFCURVE",
"376 455 OFFCURVE",
"386 450 CURVE",
"386 558 LINE",
"377 563 OFFCURVE",
"358 565 OFFCURVE",
"333 565 CURVE SMOOTH",
"265 565 OFFCURVE",
"193 516 OFFCURVE",
"178 485 CURVE",
"185 409 LINE"
);
},
{
closed = 1;
nodes = (
"191 0 LINE",
"191 443 LINE",
"182 485 LINE",
"174 556 LINE",
"76 556 LINE",
"76 0 LINE"
);
}
);
width = 403;
}
);
leftKerningGroup = n;
rightKerningGroup = r;
unicode = 0072;
},
{
glyphname = s;
lastChange = "2019-04-01 02:35:58 +0000";
layers = (
{
anchors = (
{
name = bottom;
position = "{234, 0}";
},
{
name = btm;
position = "{239, -83}";
},
{
name = top;
position = "{242, 830}";
}
);
layerId = "8BC678DE-46B6-4C98-A96E-C0ED61786D32";
paths = (
{
closed = 1;
nodes = (
"86 11 OFFCURVE",
"160 -8 OFFCURVE",
"231 -8 CURVE SMOOTH",
"349 -8 OFFCURVE",
"425 47 OFFCURVE",
"425 145 CURVE SMOOTH",
"425 241 OFFCURVE",
"329 282 OFFCURVE",
"242 319 CURVE SMOOTH",
"183 344 OFFCURVE",
"133 370 OFFCURVE",
"134 428 CURVE SMOOTH",
"135 472 OFFCURVE",
"176 504 OFFCURVE",
"256 504 CURVE SMOOTH",
"310 504 OFFCURVE",
"363 488 OFFCURVE",
"382 474 CURVE",
"396 536 LINE",
"376 547 OFFCURVE",
"318 565 OFFCURVE",
"253 564 CURVE SMOOTH",
"148 564 OFFCURVE",
"60 520 OFFCURVE",
"58 424 CURVE SMOOTH",
"57 333 OFFCURVE",
"131 285 OFFCURVE",
"236 243 CURVE SMOOTH",
"283 224 OFFCURVE",
"349 198 OFFCURVE",
"349 139 CURVE SMOOTH",
"349 82 OFFCURVE",
"298 53 OFFCURVE",
"227 53 CURVE SMOOTH",
"160 54 OFFCURVE",
"88 79 OFFCURVE",
"67 94 CURVE",
"54 32 LINE"
);
}
);
width = 474;
},
{
anchors = (
{
name = bottom;
position = "{256, 0}";
},
{
name = btm;
position = "{262, -83}";
},
{
name = top;
position = "{265, 830}";
}
);
layerId = "23A20576-2241-481A-AD5B-28E85381F753";
paths = (
{
closed = 1;
nodes = (
"74 18 OFFCURVE",
"158 -8 OFFCURVE",
"250 -8 CURVE SMOOTH",
"392 -8 OFFCURVE",
"485 53 OFFCURVE",
"485 169 CURVE SMOOTH",
"485 257 OFFCURVE",
"434 300 OFFCURVE",
"302 348 CURVE SMOOTH",
"243 370 OFFCURVE",
"217 378 OFFCURVE",
"217 408 CURVE SMOOTH",
"217 433 OFFCURVE",
"240 446 OFFCURVE",
"302 446 CURVE SMOOTH",
"356 446 OFFCURVE",
"416 421 OFFCURVE",
"436 403 CURVE",
"452 530 LINE",
"427 544 OFFCURVE",
"364 564 OFFCURVE",
"273 564 CURVE SMOOTH",
"146 564 OFFCURVE",
"42 510 OFFCURVE",
"42 402 CURVE SMOOTH",
"41 317 OFFCURVE",
"83 262 OFFCURVE",
"205 218 CURVE SMOOTH",
"261 198 OFFCURVE",
"306 182 OFFCURVE",
"306 153 CURVE SMOOTH",
"306 125 OFFCURVE",
"283 112 OFFCURVE",
"225 113 CURVE SMOOTH",
"152 113 OFFCURVE",
"77 148 OFFCURVE",
"61 162 CURVE",
"43 37 LINE"
);
}
);
width = 515;
},
{
anchors = (
{
name = bottom;
position = "{239, 0}";
},
{
name = btm;
position = "{242, -83}";
},
{
name = top;
position = "{245, 830}";
}
);
layerId = "247DB4A4-D150-4133-9396-DC38172DD635";
paths = (
{
closed = 1;
nodes = (
"79 13 OFFCURVE",
"155 -8 OFFCURVE",
"232 -8 CURVE SMOOTH",
"356 -8 OFFCURVE",
"432 47 OFFCURVE",
"432 151 CURVE SMOOTH",
"432 243 OFFCURVE",
"352 283 OFFCURVE",
"249 333 CURVE SMOOTH",
"201 356 OFFCURVE",
"161 374 OFFCURVE",
"162 423 CURVE SMOOTH",
"163 458 OFFCURVE",
"198 479 OFFCURVE",
"266 479 CURVE SMOOTH",
"317 479 OFFCURVE",
"369 463 OFFCURVE",
"387 448 CURVE",
"404 535 LINE",
"387 545 OFFCURVE",
"330 564 OFFCURVE",
"260 564 CURVE SMOOTH",
"147 564 OFFCURVE",
"57 516 OFFCURVE",
"55 417 CURVE SMOOTH",
"54 326 OFFCURVE",
"117 279 OFFCURVE",
"207 238 CURVE SMOOTH",
"274 208 OFFCURVE",
"323 185 OFFCURVE",
"323 142 CURVE SMOOTH",
"323 101 OFFCURVE",
"289 77 OFFCURVE",
"225 78 CURVE SMOOTH",
"154 79 OFFCURVE",
"83 107 OFFCURVE",
"68 118 CURVE",
"52 33 LINE"
);
}
);
width = 480;
}
);
leftKerningGroup = s;
rightKerningGroup = s;
unicode = 0073;
},
{
glyphname = germandbls;
lastChange = "2019-04-01 04:54:13 +0000";
layers = (
{
anchors = (
{
name = bottom;
position = "{311, 0}";
},
{
name = top;
position = "{311, 557}";
}
);
layerId = "8BC678DE-46B6-4C98-A96E-C0ED61786D32";
paths = (
{
closed = 1;
nodes = (
"172 0 LINE",
"172 476 LINE SMOOTH",
"172 649 OFFCURVE",
"243 713 OFFCURVE",
"336 713 CURVE SMOOTH",
"396 713 OFFCURVE",
"447 690 OFFCURVE",
"447 628 CURVE SMOOTH",
"447 531 OFFCURVE",
"342 506 OFFCURVE",
"342 417 CURVE SMOOTH",
"342 276 OFFCURVE",
"516 264 OFFCURVE",
"517 143 CURVE SMOOTH",
"517 78 OFFCURVE",
"464 50 OFFCURVE",
"410 50 CURVE SMOOTH",
"351 50 OFFCURVE",
"313 63 OFFCURVE",
"294 73 CURVE",
"294 8 LINE",
"313 0 OFFCURVE",
"358 -8 OFFCURVE",
"407 -8 CURVE SMOOTH",
"497 -8 OFFCURVE",
"599 35 OFFCURVE",
"599 152 CURVE SMOOTH",
"599 314 OFFCURVE",
"418 327 OFFCURVE",
"418 427 CURVE SMOOTH",
"418 496 OFFCURVE",
"528 523 OFFCURVE",
"528 639 CURVE SMOOTH",
"528 729 OFFCURVE",
"441 771 OFFCURVE",
"350 771 CURVE SMOOTH",
"209 771 OFFCURVE",
"93 685 OFFCURVE",
"93 481 CURVE SMOOTH",
"93 0 LINE"
);
},
{
closed = 1;
nodes = (
"99 495 LINE",
"119 521 LINE",
"106 560 LINE",
"21 543 LINE",
"21 495 LINE"
);
}
);
width = 625;
},
{
anchors = (
{
name = bottom;
position = "{345, 0}";
},
{
name = top;
position = "{345, 557}";
}
);
layerId = "23A20576-2241-481A-AD5B-28E85381F753";
paths = (
{
closed = 1;
nodes = (
"269 0 LINE",
"269 465 LINE SMOOTH",
"269 609 OFFCURVE",
"312 657 OFFCURVE",
"380 657 CURVE SMOOTH",
"425 657 OFFCURVE",
"450 632 OFFCURVE",
"450 595 CURVE SMOOTH",
"450 511 OFFCURVE",
"356 502 OFFCURVE",
"356 411 CURVE SMOOTH",
"356 296 OFFCURVE",
"482 268 OFFCURVE",
"482 177 CURVE SMOOTH",
"482 125 OFFCURVE",
"440 112 OFFCURVE",
"407 112 CURVE SMOOTH",
"376 112 OFFCURVE",
"346 125 OFFCURVE",
"336 130 CURVE",
"336 10 LINE",
"351 1 OFFCURVE",
"401 -8 OFFCURVE",
"453 -8 CURVE SMOOTH",
"562 -8 OFFCURVE",
"670 30 OFFCURVE",
"670 181 CURVE SMOOTH",
"670 338 OFFCURVE",
"515 380 OFFCURVE",
"515 440 CURVE SMOOTH",
"515 499 OFFCURVE",
"628 502 OFFCURVE",
"628 621 CURVE SMOOTH",
"628 706 OFFCURVE",
"548 771 OFFCURVE",
"405 771 CURVE SMOOTH",
"230 771 OFFCURVE",
"86 690 OFFCURVE",
"86 480 CURVE SMOOTH",
"86 0 LINE"
);
},
{
closed = 1;
nodes = (
"87 438 LINE",
"112 505 LINE",
"98 563 LINE",
"20 547 LINE",
"20 438 LINE"
);
}
);
width = 690;
},
{
anchors = (
{
name = bottom;
position = "{322, 0}";
},
{
name = top;
position = "{322, 557}";
}
);
layerId = "247DB4A4-D150-4133-9396-DC38172DD635";
paths = (
{
closed = 1;
nodes = (
"208 0 LINE",
"208 463 LINE SMOOTH",
"208 638 OFFCURVE",
"265 691 OFFCURVE",
"346 691 CURVE SMOOTH",
"406 691 OFFCURVE",
"439 666 OFFCURVE",
"439 618 CURVE SMOOTH",
"439 533 OFFCURVE",
"338 506 OFFCURVE",
"338 415 CURVE SMOOTH",
"338 264 OFFCURVE",
"501 251 OFFCURVE",
"502 144 CURVE SMOOTH",
"502 89 OFFCURVE",
"459 72 OFFCURVE",
"421 72 CURVE SMOOTH",
"364 72 OFFCURVE",
"326 88 OFFCURVE",
"309 97 CURVE",
"309 8 LINE",
"328 0 OFFCURVE",
"372 -8 OFFCURVE",
"423 -8 CURVE SMOOTH",
"519 -8 OFFCURVE",
"619 33 OFFCURVE",
"619 155 CURVE SMOOTH",
"619 318 OFFCURVE",
"443 333 OFFCURVE",
"443 429 CURVE SMOOTH",
"443 495 OFFCURVE",
"555 524 OFFCURVE",
"555 633 CURVE SMOOTH",
"555 722 OFFCURVE",
"472 771 OFFCURVE",
"364 771 CURVE SMOOTH",
"213 771 OFFCURVE",
"93 683 OFFCURVE",
"93 473 CURVE SMOOTH",
"93 0 LINE"
);
},
{
closed = 1;
nodes = (
"97 472 LINE",
"124 509 LINE",
"108 560 LINE",
"25 540 LINE",
"25 472 LINE"
);
}
);
width = 641;
}
);
leftKerningGroup = f;
rightKerningGroup = o;
unicode = 00DF;
},
{
glyphname = t;
lastChange = "2019-04-01 04:54:31 +0000";
layers = (
{
anchors = (
{
name = bottom;
position = "{206, 0}";
},
{
name = btm;
position = "{239, -83}";
},
{
name = center;
position = "{206, 279}";
},
{
name = top;
position = "{170, 913}";
},
{
name = topright;
position = "{393, 557}";
}
);
layerId = "8BC678DE-46B6-4C98-A96E-C0ED61786D32";
paths = (
{
closed = 1;
nodes = (
"293 -8 OFFCURVE",
"361 15 OFFCURVE",
"389 38 CURVE",
"375 85 LINE",
"356 73 OFFCURVE",
"304 58 OFFCURVE",
"270 58 CURVE SMOOTH",
"215 58 OFFCURVE",
"196 67 OFFCURVE",
"196 178 CURVE SMOOTH",
"196 495 LINE",
"369 495 LINE",
"369 557 LINE",
"196 557 LINE",
"196 684 LINE",
"147 684 LINE",
"137 651 OFFCURVE",
"129 592 OFFCURVE",
"123 575 CURVE SMOOTH",
"114 552 OFFCURVE",
"74 550 OFFCURVE",
"38 540 CURVE",
"38 495 LINE",
"115 495 LINE",
"115 132 LINE SMOOTH",
"115 13 OFFCURVE",
"174 -8 OFFCURVE",
"242 -8 CURVE SMOOTH"
);
}
);
width = 419;
},
{
anchors = (
{
name = bottom;
position = "{222, 0}";
},
{
name = btm;
position = "{244, -83}";
},
{
name = center;
position = "{222, 279}";
},
{
name = top;
position = "{212, 913}";
},
{
name = topright;
position = "{428, 557}";
}
);
layerId = "23A20576-2241-481A-AD5B-28E85381F753";
paths = (
{
closed = 1;
nodes = (
"332 -8 OFFCURVE",
"410 23 OFFCURVE",
"436 49 CURVE",
"415 149 LINE",
"398 138 OFFCURVE",
"358 127 OFFCURVE",
"333 127 CURVE SMOOTH",
"284 127 OFFCURVE",
"269 136 OFFCURVE",
"269 240 CURVE SMOOTH",
"269 438 LINE",
"413 438 LINE",
"413 557 LINE",
"269 557 LINE",
"269 684 LINE",
"159 684 LINE",
"146 653 OFFCURVE",
"131 613 OFFCURVE",
"120 590 CURVE SMOOTH",
"105 559 OFFCURVE",
"73 548 OFFCURVE",
"24 534 CURVE",
"24 438 LINE",
"88 438 LINE",
"88 173 LINE SMOOTH",
"88 52 OFFCURVE",
"131 -8 OFFCURVE",
"251 -8 CURVE SMOOTH"
);
}
);
width = 460;
},
{
anchors = (
{
name = bottom;
position = "{209, 0}";
},
{
name = btm;
position = "{240, -83}";
},
{
name = center;
position = "{209, 279}";
},
{
name = top;
position = "{187, 913}";
},
{
name = topright;
position = "{399, 557}";
}
);
layerId = "247DB4A4-D150-4133-9396-DC38172DD635";
paths = (
{
closed = 1;
nodes = (
"301 -8 OFFCURVE",
"367 16 OFFCURVE",
"397 39 CURVE",
"378 105 LINE",
"360 94 OFFCURVE",
"313 83 OFFCURVE",
"285 83 CURVE SMOOTH",
"233 83 OFFCURVE",
"223 92 OFFCURVE",
"223 200 CURVE SMOOTH",
"223 472 LINE",
"379 472 LINE",
"379 557 LINE",
"223 557 LINE",
"223 684 LINE",
"154 684 LINE",
"140 640 OFFCURVE",
"129 605 OFFCURVE",
"121 583 CURVE SMOOTH",
"109 551 OFFCURVE",
"85 548 OFFCURVE",
"36 534 CURVE",
"36 472 LINE",
"108 472 LINE",
"108 139 LINE SMOOTH",
"108 22 OFFCURVE",
"162 -8 OFFCURVE",
"241 -8 CURVE SMOOTH"
);
}
);
width = 423;
}
);
leftKerningGroup = t;
rightKerningGroup = t;
unicode = 0074;
},
{
glyphname = tbar;
lastChange = "2019-02-18 20:30:01 +0000";
layers = (
{
components = (
{
name = t;
}
);
layerId = "8BC678DE-46B6-4C98-A96E-C0ED61786D32";
paths = (
{
closed = 1;
nodes = (
"371 301 LINE",
"371 362 LINE",
"39 362 LINE",
"39 301 LINE"
);
}
);
width = 415;
},
{
components = (
{
name = t;
}
);
layerId = "23A20576-2241-481A-AD5B-28E85381F753";
paths = (
{
closed = 1;
nodes = (
"418 240 LINE",
"418 360 LINE",
"29 360 LINE",
"29 240 LINE"
);
}
);
width = 452;
},
{
components = (
{
alignment = -1;
name = t;
}
);
layerId = "247DB4A4-D150-4133-9396-DC38172DD635";
paths = (
{
closed = 1;
nodes = (
"381.222 284.6 LINE",
"381.222 369.044 LINE",
"40 369.044 LINE",
"40 284.6 LINE"
);
}
);
width = 420.51111;
}
);
leftKerningGroup = t;
rightKerningGroup = t;
unicode = 0167;
},
{
glyphname = u;
lastChange = "2019-04-01 02:41:38 +0000";
layers = (
{
anchors = (
{
name = bottom;
position = "{293, 0}";
},
{
name = btm;
position = "{284, -83}";
},
{
name = ogonek;
position = "{537, 10}";
},
{
name = top;
position = "{302, 830}";
},
{
name = topright;
position = "{471, 557}";
}
);
layerId = "8BC678DE-46B6-4C98-A96E-C0ED61786D32";
paths = (
{
closed = 1;
nodes = (
"306 -8 OFFCURVE",
"384 21 OFFCURVE",
"436 58 CURVE",
"435 72 LINE",
"435 27 LINE SMOOTH",
"435 -2 OFFCURVE",
"450 -6 OFFCURVE",
"476 -6 CURVE SMOOTH",
"508 -6 LINE",
"508 557 LINE",
"426 557 LINE",
"426 112 LINE",
"395 88 OFFCURVE",
"329 60 OFFCURVE",
"273 60 CURVE SMOOTH",
"186 60 OFFCURVE",
"158 87 OFFCURVE",
"158 227 CURVE SMOOTH",
"158 557 LINE",
"77 557 LINE",
"77 230 LINE SMOOTH",
"77 89 OFFCURVE",
"97 -8 OFFCURVE",
"240 -8 CURVE SMOOTH"
);
}
);
width = 598;
},
{
anchors = (
{
name = bottom;
position = "{323, 0}";
},
{
name = btm;
position = "{314, -83}";
},
{
name = ogonek;
position = "{589, 10}";
},
{
name = top;
position = "{325, 830}";
},
{
name = topright;
position = "{504, 557}";
}
);
layerId = "23A20576-2241-481A-AD5B-28E85381F753";
paths = (
{
closed = 1;
nodes = (
"303 -8 OFFCURVE",
"376 15 OFFCURVE",
"415 47 CURVE",
"411 56 LINE",
"411 21 LINE SMOOTH",
"411 -3 OFFCURVE",
"422 -8 OFFCURVE",
"445 -8 CURVE SMOOTH",
"576 -8 LINE",
"576 557 LINE",
"395 557 LINE",
"395 148 LINE",
"382 137 OFFCURVE",
"349 122 OFFCURVE",
"316 122 CURVE SMOOTH",
"266 122 OFFCURVE",
"242 141 OFFCURVE",
"242 225 CURVE SMOOTH",
"242 557 LINE",
"62 557 LINE",
"62 229 LINE SMOOTH",
"62 92 OFFCURVE",
"86 -8 OFFCURVE",
"249 -8 CURVE SMOOTH"
);
}
);
width = 648;
},
{
anchors = (
{
name = bottom;
position = "{299, 0}";
},
{
name = btm;
position = "{288, -83}";
},
{
name = ogonek;
position = "{546, 10}";
},
{
name = top;
position = "{302, 830}";
},
{
name = topright;
position = "{498, 557}";
}
);
layerId = "247DB4A4-D150-4133-9396-DC38172DD635";
paths = (
{
closed = 1;
nodes = (
"302 -8 OFFCURVE",
"376 20 OFFCURVE",
"421 50 CURVE",
"419 72 LINE",
"419 33 LINE SMOOTH",
"419 -4 OFFCURVE",
"438 -8 OFFCURVE",
"469 -8 CURVE SMOOTH",
"522 -8 LINE",
"522 557 LINE",
"407 557 LINE",
"407 124 LINE",
"383 108 OFFCURVE",
"328 86 OFFCURVE",
"287 86 CURVE SMOOTH",
"217 86 OFFCURVE",
"188 100 OFFCURVE",
"188 232 CURVE SMOOTH",
"188 557 LINE",
"73 557 LINE",
"73 231 LINE SMOOTH",
"73 88 OFFCURVE",
"97 -8 OFFCURVE",
"242 -8 CURVE SMOOTH"
);
}
);
width = 608;
}
);
leftKerningGroup = u;
rightKerningGroup = u;
unicode = 0075;
},
{
glyphname = v;
lastChange = "2019-04-01 04:54:46 +0000";
layers = (
{
anchors = (
{
name = bottom;
position = "{272, 0}";
},
{
name = top;
position = "{272, 557}";
}
);
layerId = "8BC678DE-46B6-4C98-A96E-C0ED61786D32";
paths = (
{
closed = 1;
nodes = (
"310 -9 LINE",
"526 557 LINE",
"439 557 LINE",
"317 211 LINE",
"265 38 LINE",
"289 38 LINE",
"232 211 LINE",
"106 557 LINE",
"18 557 LINE",
"241 -9 LINE"
);
}
);
width = 544;
},
{
anchors = (
{
name = bottom;
position = "{293, 0}";
},
{
name = top;
position = "{293, 557}";
}
);
layerId = "23A20576-2241-481A-AD5B-28E85381F753";
paths = (
{
closed = 1;
nodes = (
"380 -8 LINE",
"589 557 LINE",
"399 557 LINE",
"330 314 LINE",
"282 104 LINE",
"314 104 LINE",
"262 314 LINE",
"190 557 LINE",
"-3 557 LINE",
"207 -8 LINE"
);
}
);
width = 586;
},
{
anchors = (
{
name = bottom;
position = "{275.378, 0}";
},
{
name = top;
position = "{275.378, 557}";
}
);
layerId = "247DB4A4-D150-4133-9396-DC38172DD635";
paths = (
{
closed = 1;
nodes = (
"327.289 -8 LINE",
"540.933 557 LINE",
"418.578 557 LINE",
"316.311 247.644 LINE",
"264.844 60.689 LINE",
"295.022 60.689 LINE",
"239.089 247.644 LINE",
"133.533 557 LINE",
"8.822 557 LINE",
"228.222 -8 LINE"
);
}
);
width = 549.93333;
}
);
leftKerningGroup = v;
rightKerningGroup = v;
unicode = 0076;
},
{
glyphname = w;
lastChange = "2019-04-01 04:54:55 +0000";
layers = (
{
anchors = (
{
name = bottom;
position = "{399, 0}";
},
{
name = btm;
position = "{402, -81}";
},
{
name = top;
position = "{402, 834}";
}
);
layerId = "8BC678DE-46B6-4C98-A96E-C0ED61786D32";
paths = (
{
closed = 1;
nodes = (
"271 -9 LINE",
"385 400 LINE",
"410 515 LINE",
"392 515 LINE",
"415 400 LINE",
"531 -9 LINE",
"606 -9 LINE",
"779 557 LINE",
"700 557 LINE",
"592 172 LINE",
"560 39 LINE",
"582 39 LINE",
"550 174 LINE",
"441 557 LINE",
"361 557 LINE",
"253 174 LINE",
"223 37 LINE",
"246 37 LINE",
"212 174 LINE",
"101 557 LINE",
"19 557 LINE",
"194 -9 LINE"
);
}
);
width = 798;
},
{
anchors = (
{
name = bottom;
position = "{433, 0}";
},
{
name = btm;
position = "{435, -83}";
},
{
name = top;
position = "{435, 831}";
}
);
layerId = "23A20576-2241-481A-AD5B-28E85381F753";
paths = (
{
closed = 1;
nodes = (
"330 -8 LINE",
"408 266 LINE",
"445 444 LINE",
"415 444 LINE",
"451 266 LINE",
"532 -8 LINE",
"690 -8 LINE",
"866 557 LINE",
"698 557 LINE",
"645 332 LINE",
"598 101 LINE",
"634 101 LINE",
"584 332 LINE",
"518 557 LINE",
"356 557 LINE",
"290 332 LINE",
"236 100 LINE",
"274 100 LINE",
"226 332 LINE",
"175 557 LINE",
"-1 557 LINE",
"166 -8 LINE"
);
}
);
width = 865;
},
{
anchors = (
{
name = bottom;
position = "{404.333, 0}";
},
{
name = btm;
position = "{406.511, -80.356}";
},
{
name = top;
position = "{406.511, 834.644}";
}
);
layerId = "247DB4A4-D150-4133-9396-DC38172DD635";
paths = (
{
closed = 1;
nodes = (
"288.756 -8 LINE",
"384.8 344.089 LINE",
"417.689 494.133 LINE",
"393.622 494.133 LINE",
"423.867 344.089 LINE",
"521.911 -8 LINE",
"627.311 -8 LINE",
"798.022 557 LINE",
"685.556 557 LINE",
"602.467 230.911 LINE",
"563.111 56.311 LINE",
"591.822 56.311 LINE",
"553.289 234.556 LINE",
"463.244 557 LINE",
"350.022 557 LINE",
"259.333 233.556 LINE",
"221.378 54.311 LINE",
"252.267 54.311 LINE",
"211.911 234.556 LINE",
"125.644 557 LINE",
"9.822 557 LINE",
"179.822 -8 LINE"
);
}
);
width = 807.84444;
}
);
leftKerningGroup = w;
rightKerningGroup = w;
unicode = 0077;
},
{
glyphname = x;
lastChange = "2019-04-01 02:03:03 +0000";
layers = (
{
anchors = (
{
name = bottom;
position = "{262, 0}";
},
{
name = btm;
position = "{269, -83}";
},
{
name = top;
position = "{269, 830}";
}
);
layerId = "8BC678DE-46B6-4C98-A96E-C0ED61786D32";
paths = (
{
closed = 1;
nodes = (
"113 0 LINE",
"241 195 LINE",
"274 257 LINE",
"241 258 LINE",
"278 199 LINE",
"413 0 LINE",
"507 0 LINE",
"296 297 LINE",
"296 269 LINE",
"505 557 LINE",
"414 557 LINE",
"281 365 LINE",
"251 307 LINE",
"279 307 LINE",
"245 362 LINE",
"112 557 LINE",
"20 557 LINE",
"228 268 LINE",
"227 294 LINE",
"20 0 LINE"
);
}
);
width = 527;
},
{
anchors = (
{
name = bottom;
position = "{297, 0}";
},
{
name = btm;
position = "{303, -83}";
},
{
name = top;
position = "{303, 830}";
}
);
layerId = "23A20576-2241-481A-AD5B-28E85381F753";
paths = (
{
closed = 1;
nodes = (
"204 0 LINE",
"283 142 LINE",
"315 207 LINE",
"272 207 LINE",
"309 142 LINE",
"397 0 LINE",
"595 0 LINE",
"384 305 LINE",
"384 265 LINE",
"591 557 LINE",
"396 557 LINE",
"322 430 LINE",
"285 358 LINE",
"324 358 LINE",
"281 430 LINE",
"201 557 LINE",
"5 557 LINE",
"209 261 LINE",
"205 294 LINE",
"4 0 LINE"
);
}
);
width = 599;
},
{
anchors = (
{
name = bottom;
position = "{269, 0}";
},
{
name = btm;
position = "{276, -83}";
},
{
name = top;
position = "{276, 830}";
}
);
layerId = "247DB4A4-D150-4133-9396-DC38172DD635";
paths = (
{
closed = 1;
nodes = (
"143 0 LINE",
"252 179 LINE",
"285 246 LINE",
"242 246 LINE",
"283 180 LINE",
"401 0 LINE",
"534 0 LINE",
"319 303 LINE",
"319 266 LINE",
"530 557 LINE",
"400 557 LINE",
"283 380 LINE",
"254 322 LINE",
"292 322 LINE",
"258 379 LINE",
"141 557 LINE",
"10 557 LINE",
"220 265 LINE",
"219 298 LINE",
"11 0 LINE"
);
}
);
width = 544;
}
);
leftKerningGroup = x;
rightKerningGroup = x;
unicode = 0078;
},
{
glyphname = y;
lastChange = "2019-04-01 04:55:06 +0000";
layers = (
{
anchors = (
{
name = bottom;
position = "{445, 0}";
},
{
name = top;
position = "{296, 830}";
}
);
layerId = "8BC678DE-46B6-4C98-A96E-C0ED61786D32";
paths = (
{
closed = 1;
nodes = (
"76 -245 OFFCURVE",
"110 -248 OFFCURVE",
"125 -248 CURVE SMOOTH",
"140 -248 OFFCURVE",
"161 -245 OFFCURVE",
"175 -241 CURVE SMOOTH",
"248 -221 OFFCURVE",
"298 -147 OFFCURVE",
"342 -14 CURVE SMOOTH",
"533 557 LINE",
"445 557 LINE",
"329 175 LINE",
"286 27 LINE",
"310 27 LINE",
"260 175 LINE",
"126 557 LINE",
"39 557 LINE",
"248 0 LINE",
"282 0 LINE",
"275 11 LINE",
"239 -142 OFFCURVE",
"177 -180 OFFCURVE",
"119 -180 CURVE SMOOTH",
"105 -180 OFFCURVE",
"81 -177 OFFCURVE",
"71 -174 CURVE",
"71 -241 LINE"
);
}
);
width = 541;
},
{
anchors = (
{
name = bottom;
position = "{523, 0}";
},
{
name = top;
position = "{303, 830}";
}
);
layerId = "23A20576-2241-481A-AD5B-28E85381F753";
paths = (
{
closed = 1;
nodes = (
"65 -242 OFFCURVE",
"127 -248 OFFCURVE",
"142 -248 CURVE SMOOTH",
"171 -248 OFFCURVE",
"213 -242 OFFCURVE",
"238 -232 CURVE SMOOTH",
"309 -206 OFFCURVE",
"375 -146 OFFCURVE",
"416 -13 CURVE SMOOTH",
"591 557 LINE",
"401 557 LINE",
"339 264 LINE",
"299 81 LINE",
"313 81 LINE",
"269 264 LINE",
"189 557 LINE",
"-2 557 LINE",
"190 0 LINE",
"269 0 LINE",
"262 14 LINE",
"239 -102 OFFCURVE",
"172 -109 OFFCURVE",
"120 -109 CURVE SMOOTH",
"103 -109 OFFCURVE",
"70 -103 OFFCURVE",
"59 -99 CURVE",
"59 -238 LINE"
);
}
);
width = 590;
},
{
anchors = (
{
name = bottom;
position = "{462, 0}";
},
{
name = top;
position = "{296, 830}";
}
);
layerId = "247DB4A4-D150-4133-9396-DC38172DD635";
paths = (
{
closed = 1;
nodes = (
"75 -244 OFFCURVE",
"112 -248 OFFCURVE",
"127 -248 CURVE SMOOTH",
"142 -248 OFFCURVE",
"169 -244 OFFCURVE",
"183 -239 CURVE SMOOTH",
"255 -219 OFFCURVE",
"317 -151 OFFCURVE",
"361 -17 CURVE SMOOTH",
"546 557 LINE",
"422 557 LINE",
"323 196 LINE",
"282 40 LINE",
"312 40 LINE",
"265 196 LINE",
"149 557 LINE",
"25 557 LINE",
"224 0 LINE",
"272 0 LINE",
"265 14 LINE",
"236 -130 OFFCURVE",
"160 -153 OFFCURVE",
"118 -153 CURVE SMOOTH",
"107 -153 OFFCURVE",
"80 -150 OFFCURVE",
"69 -146 CURVE",
"69 -240 LINE"
);
}
);
width = 551;
}
);
leftKerningGroup = y;
rightKerningGroup = y;
unicode = 0079;
},
{
glyphname = z;
lastChange = "2019-04-01 03:28:22 +0000";
layers = (
{
anchors = (
{
name = bottom;
position = "{257, 0}";
},
{
name = btm;
position = "{257, -83}";
},
{
name = center;
position = "{257, 279}";
},
{
name = top;
position = "{263, 830}";
}
);
layerId = "8BC678DE-46B6-4C98-A96E-C0ED61786D32";
paths = (
{
closed = 1;
nodes = (
"470 0 LINE",
"470 60 LINE",
"150 60 LINE",
"185 107 LINE",
"475 521 LINE",
"461 557 LINE",
"64 557 LINE",
"64 494 LINE",
"365 494 LINE",
"331 446 LINE",
"40 32 LINE",
"57 0 LINE"
);
}
);
width = 518;
},
{
anchors = (
{
name = bottom;
position = "{263, 0}";
},
{
name = btm;
position = "{264, -83}";
},
{
name = center;
position = "{263, 279}";
},
{
name = top;
position = "{276, 830}";
}
);
layerId = "23A20576-2241-481A-AD5B-28E85381F753";
paths = (
{
closed = 1;
nodes = (
"499 0 LINE",
"499 127 LINE",
"259 127 LINE",
"291 172 LINE",
"517 510 LINE",
"499 557 LINE",
"59 557 LINE",
"58 434 LINE",
"277 434 LINE",
"248 389 LINE",
"17 41 LINE",
"38 0 LINE"
);
}
);
width = 534;
},
{
anchors = (
{
name = bottom;
position = "{252, 0}";
},
{
name = btm;
position = "{252, -83}";
},
{
name = center;
position = "{252, 279}";
},
{
name = top;
position = "{255, 830}";
}
);
layerId = "247DB4A4-D150-4133-9396-DC38172DD635";
paths = (
{
closed = 1;
nodes = (
"469 0 LINE",
"469 83 LINE",
"187 83 LINE",
"216 124 LINE",
"479 510 LINE",
"462 557 LINE",
"60 557 LINE",
"60 471 LINE",
"324 471 LINE",
"295 430 LINE",
"30 40 LINE",
"51 0 LINE"
);
}
);
width = 513;
}
);
leftKerningGroup = z;
rightKerningGroup = z;
unicode = 007A;
},
{
color = 9;
glyphname = a.sc;
lastChange = "2019-04-01 04:42:21 +0000";
layers = (
{
anchors = (
{
name = bottom;
position = "{329, 0}";
},
{
name = btm;
position = "{333, -109}";
},
{
name = ogonek;
position = "{608, 0}";
},
{
name = top;
position = "{333, 900}";
}
);
layerId = "8BC678DE-46B6-4C98-A96E-C0ED61786D32";
paths = (
{
closed = 1;
nodes = (
"315 518 LINE",
"333 575 LINE",
"349 518 LINE",
"551 0 LINE",
"642 0 LINE",
"373 653 LINE",
"291 653 LINE",
"16 0 LINE",
"103 0 LINE"
);
},
{
closed = 1;
nodes = (
"509 170 LINE",
"493 233 LINE",
"156 233 LINE",
"141 170 LINE"
);
}
);
userData = {
RMXScaler = {
adjustSpace = 2;
height = 87;
weight = 1;
width = 96;
};
};
width = 658;
},
{
anchors = (
{
name = bottom;
position = "{342, 0}";
},
{
name = btm;
position = "{340, -109}";
},
{
name = ogonek;
position = "{633, 0}";
},
{
name = top;
position = "{336, 900}";
}
);
layerId = "23A20576-2241-481A-AD5B-28E85381F753";
paths = (
{
closed = 1;
nodes = (
"312 431 LINE",
"336 525 LINE",
"360 431 LINE",
"500 0 LINE",
"691 0 LINE",
"447 650 LINE",
"233 650 LINE",
"-8 0 LINE",
"181 0 LINE"
);
},
{
closed = 1;
nodes = (
"512 105 LINE",
"493 234 LINE",
"166 234 LINE",
"145 105 LINE"
);
}
);
userData = {
RMXScaler = {
adjustSpace = 2;
height = 87;
weight = 1;
width = 96;
};
};
width = 683;
},
{
anchors = (
{
name = bottom;
position = "{333.889, 0}";
},
{
name = btm;
position = "{335.289, -109}";
},
{
name = ogonek;
position = "{611, 0}";
},
{
name = top;
position = "{336, 900}";
}
);
layerId = "247DB4A4-D150-4133-9396-DC38172DD635";
paths = (
{
closed = 1;
nodes = (
"315 476 LINE",
"336 542 LINE",
"356 476 LINE",
"531.556 0 LINE",
"657 0 LINE",
"393.511 652.644 LINE",
"276.2 652.644 LINE",
"9 0 LINE",
"133.222 0 LINE"
);
},
{
closed = 1;
nodes = (
"510.178 147.667 LINE",
"490.356 234 LINE",
"163.178 234 LINE",
"143.178 147.667 LINE"
);
}
);
width = 666.77778;
}
);
leftKerningGroup = a.sc;
rightKerningGroup = a.sc;
userData = {
RMXScaler = {
source = A;
};
};
},
{
color = 9;
glyphname = ae.sc;
lastChange = "2019-04-01 13:45:11 +0000";
layers = (
{
anchors = (
{
name = bottom;
position = "{436, 0}";
},
{
name = btm;
position = "{651, -72}";
},
{
name = top;
position = "{547, 913}";
}
);
layerId = "8BC678DE-46B6-4C98-A96E-C0ED61786D32";
paths = (
{
closed = 1;
nodes = (
"68 0 LINE",
"381 605 LINE",
"313 646 LINE",
"-25 0 LINE"
);
},
{
closed = 1;
nodes = (
"313 646 LINE",
"328 581 LINE",
"428 581 LINE",
"396 646 LINE"
);
},
{
closed = 1;
nodes = (
"461 170 LINE",
"446 233 LINE",
"129 233 LINE",
"113 170 LINE"
);
},
{
closed = 1;
nodes = (
"839 0 LINE",
"839 66 LINE",
"479 66 LINE",
"479 301 LINE",
"722 301 LINE",
"722 366 LINE",
"479 366 LINE",
"479 581 LINE",
"804 581 LINE",
"804 646 LINE",
"396 646 LINE",
"396 0 LINE"
);
}
);
userData = {
RMXScaler = {
adjustSpace = 2;
height = 87;
weight = 1;
width = 96;
};
};
width = 872;
},
{
anchors = (
{
name = bottom;
position = "{467, 0}";
},
{
name = btm;
position = "{665, -72}";
},
{
name = top;
position = "{542, 900}";
}
);
layerId = "23A20576-2241-481A-AD5B-28E85381F753";
paths = (
{
closed = 1;
nodes = (
"145 0 LINE",
"402 592 LINE",
"281 646 LINE",
"-56 0 LINE"
);
},
{
closed = 1;
nodes = (
"281 646 LINE",
"305 525 LINE",
"432 525 LINE",
"410 646 LINE"
);
},
{
closed = 1;
nodes = (
"493 124 LINE",
"486 251 LINE",
"162 251 LINE",
"140 124 LINE"
);
},
{
closed = 1;
nodes = (
"890 0 LINE",
"890 143 LINE",
"595 143 LINE",
"595 263 LINE",
"801 263 LINE",
"801 399 LINE",
"595 399 LINE",
"595 507 LINE",
"862 507 LINE",
"862 646 LINE",
"410 646 LINE",
"410 0 LINE"
);
}
);
userData = {
RMXScaler = {
adjustSpace = 2;
height = 87;
weight = 1;
width = 96;
};
};
width = 934;
},
{
anchors = (
{
name = bottom;
position = "{443.378, 0}";
},
{
name = btm;
position = "{652.778, -72}";
},
{
name = top;
position = "{536, 913}";
}
);
layerId = "247DB4A4-D150-4133-9396-DC38172DD635";
paths = (
{
closed = 1;
nodes = (
"91.689 0 LINE",
"393 598 LINE",
"306.111 646 LINE",
"-37.844 0 LINE"
);
},
{
closed = 1;
nodes = (
"306.111 646 LINE",
"321 555 LINE",
"434 555 LINE",
"397.778 646 LINE"
);
},
{
closed = 1;
nodes = (
"475.644 157.911 LINE",
"460.311 242.889 LINE",
"134.022 242.889 LINE",
"113.489 157.911 LINE"
);
},
{
closed = 1;
nodes = (
"848.511 0 LINE",
"848.511 93.044 LINE",
"515.956 93.044 LINE",
"515.956 287.978 LINE",
"737.889 287.978 LINE",
"737.889 377.667 LINE",
"515.956 377.667 LINE",
"515.956 555.956 LINE",
"815.222 555.956 LINE",
"815.222 646 LINE",
"397.778 646 LINE",
"397.778 0 LINE"
);
}
);
width = 886.57778;
}
);
leftKerningGroup = ae.sc;
rightKerningGroup = e.sc;
userData = {
RMXScaler = {
source = AE;
};
};
},
